<svg height="800" viewBox="0 0 128 128" width="800" xmlns="http://www.w3.org/2000/svg"><circle cx="64" cy="64" fill="#00adfe" r="60"/><circle cx="64" cy="64" fill="#356cb6" opacity=".3" r="48"/><path d="m64 124a59.8 59.8 0 0 0 41.54-16.72c-1-22.43-3.94-55.49-12.65-75.18-4.83-10.92-16.15-18.22-28.89-18.22-12.74 0-24.65 7-28.89 18.22-7.53 19.83-10.76 53.23-12.11 75.66a59.74 59.74 0 0 0 41 16.24z" fill="#393c54"/><path d="m84.13 36.13c-3.52-8.48-10.48-12.82-19.74-13h-.78c-9.26.22-16.22 4.56-19.74 13-3.63 8.71-4.83 21.77 0 39.19 4.69 17 10.54 20.49 19.74 20.67h.78c9.2-.18 15-3.72 19.74-20.67 4.87-17.42 3.63-30.48 0-39.19z" fill="#fff"/><path d="m77.58 52.83h4.41" fill="none" stroke="#393c54" stroke-linecap="round" stroke-miterlimit="10" stroke-width="5.51"/><path d="m68.5 88a30.85 30.85 0 0 1 -9 0c-1.25-.33-2.5-1.12-2.5-2.5s1.2-2.13 2.5-2.5a20.4 20.4 0 0 1 9 0c1.21.31 2.5 1.12 2.5 2.5s-1.27 2.18-2.5 2.5z" fill="#393c54"/><path d="m82.05 58.11a9.91 9.91 0 0 1 -5.73-.37" fill="none" stroke="#393c54" stroke-linecap="round" stroke-miterlimit="10" stroke-width="2.21"/><path d="m75.42 65a3.31 3.31 0 0 1 6.58 0c0 1.83-3.31 14.33-5.51 14.33-1.07-.04-1.07-12.54-1.07-14.33z" fill="#a7aece"/><path d="m75.37 45a3.31 3.31 0 0 0 6.63 0c0-1.82-2.59-9.92-4.41-9.92s-2.22 8.11-2.22 9.92z" fill="#a7aece"/><path d="m46.01 52.83h4.41" fill="none" stroke="#393c54" stroke-linecap="round" stroke-miterlimit="10" stroke-width="5.51"/><path d="m51.68 57.76a10 10 0 0 1 -5.91.29" fill="none" stroke="#393c54" stroke-linecap="round" stroke-miterlimit="10" stroke-width="2.21"/><g fill="#a7aece"><path d="m52.63 45a3.31 3.31 0 0 1 -6.63 0c0-1.82 2.59-9.92 4.41-9.92s2.22 8.11 2.22 9.92z"/><path d="m52.58 65a3.31 3.31 0 0 0 -6.58 0c0 1.83 3.31 14.33 5.51 14.33 1.07-.04 1.07-12.54 1.07-14.33z"/><path d="m68.41 90.32c0 1.22-2 2.21-4.41 2.21s-4.41-1-4.41-2.21c0-.62 2-.27 4.41-.27s4.41-.35 4.41.27z"/></g><path d="m84.13 36.13a21.8 21.8 0 0 0 -4.48-6.94c1.45 10.32.63 23.64-1.36 41.86-2.09 19.1-11.43 23.3-21 24a21.16 21.16 0 0 0 6.35.94h.78c9.2-.18 15-3.72 19.74-20.67 4.84-17.42 3.6-30.48-.03-39.19z" fill="#393c54" opacity=".2"/></svg>