<svg height="800" viewBox="0 0 128 128" width="800" xmlns="http://www.w3.org/2000/svg"><circle cx="64" cy="64" fill="#ffd8c9" r="60"/><circle cx="64" cy="64" fill="#fff" opacity=".3" r="48"/><path d="m64 4a60.12 60.12 0 0 0 -18 2.75v24.25a6 6 0 0 1 -6 6l.08 5h47.84l.08-5a6 6 0 0 1 -6-6v-24.25a60.12 60.12 0 0 0 -18-2.75z" fill="#00adfe"/><path d="m94 86h1a1 1 0 0 0 1-1v-15a1 1 0 0 0 -1-1h-1z" fill="#393c54"/><path d="m40.08 93-.08 5a6 6 0 0 1 6 6v17.29a60.28 60.28 0 0 0 36 0v-17.29a6 6 0 0 1 6-6l-.08-5z" fill="#00adfe"/><rect fill="#515570" height="63" rx="10.03" width="60" x="34" y="36"/><rect fill="#393c54" height="50" rx="5.02" transform="matrix(0 1 -1 0 131.5 3.5)" width="53" x="37.5" y="42.5"/><path d="m43 54v-2.4a6.59 6.59 0 0 1 6.58-6.6h14.42" style="fill:none;stroke-linecap:round;stroke:#fff;opacity:.1;stroke-miterlimit:10;stroke-width:2"/><rect fill="#393c54" height="12" rx="1" width="5" x="92" y="49"/><path d="m56.45 83a1 1 0 0 1 -.94-1.06 8.56 8.56 0 0 1 17 0 1 1 0 0 1 -.96 1.06z" fill="#fff"/><path d="m64 79.38v8.62" fill="none" stroke="#4bc190" stroke-linecap="round" stroke-miterlimit="10" stroke-width="4"/><path d="m61 80.38v4.62" fill="none" stroke="#4bc190" stroke-linecap="round" stroke-miterlimit="10" stroke-width="4"/><path d="m63.38 76.75h-24.44a6.48 6.48 0 0 0 -6.12-4.53 6.6 6.6 0 0 0 -6.57 6.41 6.5 6.5 0 0 0 12.11 3.37h25a2.63 2.63 0 0 0 2.64-2.62 2.63 2.63 0 0 0 -2.62-2.63z" fill="#fff" opacity=".5"/><path d="m63.38 77.75h-25.17l-.22-.7a5.5 5.5 0 0 0 -2.12-2.85 13.48 13.48 0 0 1 -3 4.52 21.84 21.84 0 0 1 -4.53 3.2 5.67 5.67 0 0 0 .53.66 5.49 5.49 0 0 0 8.66-1.09l.29-.49h25.6a1.63 1.63 0 0 0 0-3.25z" fill="#f85565"/><path d="m63.38 79h-25.6l-.29.49a5.47 5.47 0 0 1 -7.93 1.7c-.41.25-.83.5-1.26.73a5.67 5.67 0 0 0 .53.66 5.49 5.49 0 0 0 8.66-1.09l.29-.49h25.6a1.62 1.62 0 0 0 1.27-2.62 1.65 1.65 0 0 1 -1.27.62z" fill="#515570" opacity=".2"/><ellipse cx="30.29" cy="76.29" fill="#fff" rx="2.79" ry=".96" transform="matrix(.70710678 -.70710678 .70710678 .70710678 -45.07 43.77)"/><path d="m58.49 63h-10a5 5 0 0 1 10 0z" fill="#fff"/><path d="m56.16 62.83h-5.33a2.67 2.67 0 0 1 5.33 0z" fill="#393c54"/><path d="m48 63h11" fill="none" stroke="#00adfe" stroke-linecap="round" stroke-linejoin="round" stroke-width="2"/><circle cx="75.83" cy="62.83" fill="#356cb6" r="5.62"/><path d="m77.83 72.83a2 2 0 0 1 -4 0c0-1.1.9-3 2-3s2 1.9 2 3z" fill="#356cb6"/><circle cx="75.83" cy="60.83" fill="#fff" r="4.92"/><circle cx="75.83" cy="60.83" fill="#393c54" r="2.67"/><g fill="none" stroke-linecap="round" stroke-width="2"><path d="m93 18.07a3.61 3.61 0 0 1 0 5l-.17.17a3.6 3.6 0 0 0 0 5.07l.12.13a3.59 3.59 0 0 1 0 5.07l-.12.12" stroke="#356cb6" stroke-linejoin="round"/><path d="m35.7 28.66a3.59 3.59 0 0 1 0-5l.17-.17a3.62 3.62 0 0 0 0-5.08l-.12-.12" stroke="#4bc190" stroke-miterlimit="10"/><path d="m100.64 39.64 2.72 2.72" stroke="#356cb6" stroke-linejoin="round"/><path d="m100.64 42.36 2.72-2.72" stroke="#356cb6" stroke-linejoin="round"/><path d="m20.64 32.64 2.72 2.72" stroke="#356cb6" stroke-linejoin="round"/><path d="m20.64 35.36 2.72-2.72" stroke="#356cb6" stroke-linejoin="round"/><path d="m87.64 106.64 2.72 2.72" stroke="#356cb6" stroke-linejoin="round"/><path d="m87.64 109.36 2.72-2.72" stroke="#356cb6" stroke-linejoin="round"/><circle cx="104" cy="31" r="2" stroke="#4bc190" stroke-miterlimit="10"/><circle cx="27" cy="47" r="2" stroke="#4bc190" stroke-miterlimit="10"/></g></svg>