<svg height="800" viewBox="0 0 128 128" width="800" xmlns="http://www.w3.org/2000/svg">
    <circle cx="64" cy="64" fill="#f85565" r="60" />
    <circle cx="64" cy="64" fill="#fff" opacity=".2" r="48" />
    <g fill="#f2bc0f">
        <circle cx="89" cy="60" r="15" />
        <circle cx="82" cy="77" r="10" />
        <circle cx="39" cy="60" r="15" />
        <circle cx="46" cy="77" r="10" />
        <path
            d="m64 14.88a32 32 0 0 1 32 32v4.71a21.59 21.59 0 0 1 -21.59 21.58h-20.82a21.59 21.59 0 0 1 -21.59-21.58v-4.71a32 32 0 0 1 32-32z" />
    </g>
    <circle cx="89" cy="60" fill="#fba875" r="7" />
    <path
        d="m64 124a59.69 59.69 0 0 0 32.55-9.61l-3.18-10.75a10 10 0 0 0 -9.37-6.64h-39.95a10 10 0 0 0 -9.42 6.64l-3.18 10.75a59.69 59.69 0 0 0 32.55 9.61z"
        fill="#ffbb94" />
    <path d="m64 88.75v7.75" fill="none" stroke="#fba875" stroke-linecap="round"
        stroke-miterlimit="10" stroke-width="14" />
    <circle cx="39" cy="60" fill="#fba875" r="7" />
    <path d="m64 90a25 25 0 0 1 -25-25v-17.48a25 25 0 1 1 50 0v17.48a25 25 0 0 1 -25 25z"
        fill="#ffbb94" />
    <circle cx="76" cy="58.28" fill="#515570" r="3" />
    <path d="m70.5 59.37a6.61 6.61 0 0 1 11.5-1.31" fill="none" stroke="#515570"
        stroke-linecap="round" stroke-linejoin="round" />
    <circle cx="52" cy="58.28" fill="#515570" r="3" />
    <path d="m61.75 69a5.29 5.29 0 0 0 4.5 0" fill="none" stroke="#fba875" stroke-linecap="round"
        stroke-miterlimit="10" stroke-width="3" />
    <path style="opacity:.2;fill:none;stroke-linecap:round;stroke:#515570;stroke-linejoin:round;stroke-width:2"
        d="m55 52h-9.25" />
    <circle cx="51" cy="67" fill="#f85565" opacity=".2" r="5.08" />
    <path
        d="m36.51 58.15v-10.75c0-14.95 11.71-27.61 26.66-28a27.51 27.51 0 0 1 28.32 27.42v-.24a2 2 0 0 1 -2 2 7.11 7.11 0 0 1 -6.31-3.85l-5.6-10.81-7.4 13.73a31.43 31.43 0 0 1 -27.67 16.5 6 6 0 0 1 -6-6z"
        fill="#f8dc25" />
    <circle cx="41.61" cy="49.55" fill="#f8dc25" r="14.61" />
    <circle cx="44" cy="33.94" fill="#f8dc25" r="7.64" />
    <path style="fill:none;stroke-linecap:round;stroke-miterlimit:10;stroke-width:3;stroke:#f2bc0f;opacity:.3"
        d="m70.22 34.94-5.32 9.86a25.41 25.41 0 0 1 -22.31 13.35c-5.28 0-9.59-3.89-9.59-8.6" />
    <circle cx="89.81" cy="41.13" fill="#f8dc25" r="7.64" />
    <circle cx="77" cy="67" fill="#f85565" opacity=".2" r="5.08" />
    <circle cx="74.5" cy="71.5" fill="#515570" r="1" />
    <path d="m83.32 120.9-7.32-24.4h-2l-8.76 27.57a59.72 59.72 0 0 0 18.08-3.17z" fill="#fff" />
    <path d="m61.52 124-7.52-27.5h-2l-7.32 24.4a59.66 59.66 0 0 0 16.84 3.1z" fill="#fff" />
    <path
        d="m71.12 78.48a.49.49 0 0 0 -.19-.7c-.71-.39-2-1.08-2.75-1.61a2.51 2.51 0 0 0 -2.76 0 2.42 2.42 0 0 1 -2.84 0 2.51 2.51 0 0 0 -2.76 0c-.78.51-2 1.18-2.69 1.58a.49.49 0 0 0 -.17.72c.77 1.11 2 4.35 6.82 4.47h.44c4.78-.14 6.19-3.33 6.9-4.46z"
        fill="#f85565" />
    <path d="m61 78.85h6s-.6 1.3-3 1.3-3-1.3-3-1.3z" fill="#fff" />
    <circle cx="90" cy="68" fill="#fff" r="3" />
    <circle cx="38" cy="68" fill="#fff" r="3" />
    <path style="opacity:.2;fill:none;stroke-linecap:round;stroke:#515570;stroke-linejoin:round;stroke-width:2"
        d="m72 51 5.18-2.36a4.6 4.6 0 0 1 4.67.5l1.15.86" />
</svg>