<svg height="800" viewBox="0 0 128 128" width="800" xmlns="http://www.w3.org/2000/svg">
    <circle cx="64" cy="64" fill="#a7aece" r="60" />
    <circle cx="64" cy="64" fill="#fff" opacity=".3" r="48" />
    <path
        d="m110.08 80.5-.88-2.69c-2.89-7.83-17.3-46.91-17.78-48l-.5-1.29h-.12a30 30 0 0 0 -53.6 0h-.13l-.52 1.36c-1.04 2.56-17.48 47.22-17.55 47.54a47.49 47.49 0 0 0 -1.54 24.39 60 60 0 0 0 93.16 0 49.66 49.66 0 0 0 -.5-21.31z"
        fill="#8f5653" />
    <path
        d="m23.45 108.21a60 60 0 0 0 81.1 0 43.38 43.38 0 0 0 .84-29.09l-.14-.46c-4.87-13.2-16.91-45.81-17.49-47.22l-.05-.1a26 26 0 0 0 -47.42 0v.08c-.57 1.38-16.82 45.28-17.5 47.26a43.4 43.4 0 0 0 .7 29.52z"
        fill="#4bc190" />
    <path
        d="m99.57 80.59c-6.34-17.19-16.57-44.78-17.34-46.81a20 20 0 0 0 -36.46 0c-1.14 2.94-16.67 44.89-17.33 46.81a37.42 37.42 0 0 0 7 36.2 60.05 60.05 0 0 0 57.06 0 37.41 37.41 0 0 0 7.16-35.89z"
        fill="#f8dc25" opacity=".5" />
    <path
        d="m99.57 80.59c-6.34-17.19-16.57-44.78-17.34-46.81a20 20 0 0 0 -36.46 0c-1.14 2.94-16.67 44.89-17.33 46.81a37.42 37.42 0 0 0 7 36.2 60.05 60.05 0 0 0 57.06 0 37.41 37.41 0 0 0 7.16-35.89z"
        fill="#fff" opacity=".3" />
    <path
        d="m64 122a29.49 29.49 0 0 1 -28-38.87c.67-1.93 15.5-42 17.11-46.24a12 12 0 0 1 21.72 0c1.07 2.79 9.4 25.32 17.13 46.26v.12a29.49 29.49 0 0 1 -27.96 38.73z"
        fill="#fff" opacity=".5" />
    <circle cx="64" cy="92.5" fill="#515570" r="20.5" />
    <circle cx="64" cy="92.5" fill="#393c54" r="11" />
    <circle cx="79.66" cy="56.5" fill="#fff" r="7.49" />
    <path style="fill:none;stroke:#515570;stroke-linecap:round;stroke-linejoin:round;stroke-width:2;opacity:.2"
        d="m48.34 68a11.46 11.46 0 0 1 -9.1-4.48" />
    <path style="fill:none;stroke:#515570;stroke-linecap:round;stroke-linejoin:round;stroke-width:2;opacity:.2"
        d="m79.84 68a11.52 11.52 0 0 0 9.85-5.56" />
    <circle cx="48.34" cy="56.5" fill="#fff" r="7.49" />
    <path
        d="m64 113a20.49 20.49 0 0 0 20.13-16.7 22.3 22.3 0 0 0 -12.13-3.13c-.54 0-1.08 0-1.63.11a2.07 2.07 0 0 0 -1.74 1.72 1.2 1.2 0 0 1 -1.81.67 3.12 3.12 0 0 0 -2.95-.67 22.58 22.58 0 0 0 -12.49 13.66 20.36 20.36 0 0 0 12.62 4.34z"
        fill="#f85565" />
    <circle cx="79.66" cy="56.5" fill="#393c54" r="4.09" />
    <circle cx="48.34" cy="56.5" fill="#393c54" r="4.09" />
    <path
        d="m68.29 95.5a1.16 1.16 0 0 1 -1.47.13 4.87 4.87 0 0 0 -.59-.36c.43 3.56 1.66 9.24 5.21 13.08a1 1 0 0 0 .73.32 1 1 0 0 0 .68-.27 1 1 0 0 0 .06-1.41c-3-3.24-4.17-8.18-4.62-11.49z"
        fill="#fff" opacity=".2" />
    <path
        d="m61.68 59.51-1.68 4.77a2 2 0 0 0 1.93 2.72h4.19a2 2 0 0 0 1.93-2.72l-1.67-4.77a2.49 2.49 0 0 0 -4.7 0z"
        fill="#4bc190" />
    <path
        d="m61.68 59.51-1.68 4.77a2 2 0 0 0 1.93 2.72h4.19a2 2 0 0 0 1.93-2.72l-1.67-4.77a2.49 2.49 0 0 0 -4.7 0z"
        fill="#8f5653" />
</svg>