<svg height="800" viewBox="0 0 128 128" width="800" xmlns="http://www.w3.org/2000/svg"><circle cx="64" cy="64" fill="#f2bc0f" r="60"/><circle cx="64" cy="64" fill="#fff" opacity=".3" r="48"/><path d="m64 124.1a59.78 59.78 0 0 0 40-15.28l-2.39-5.68c-1.71-4-6.22-6.64-11.29-6.64h-52.63c-5.07 0-9.58 2.66-11.29 6.64l-2.4 5.68a59.78 59.78 0 0 0 40 15.28z" fill="#515570"/><path d="m95.25 60.43c0 4.38.45 7.93-3.93 7.93a7.93 7.93 0 1 1 0-15.86c4.38 0 3.93 3.55 3.93 7.93z" fill="#393c54"/><path d="m44.61 60.43a7.93 7.93 0 0 1 -7.93 7.93c-4.38 0-3.93-3.55-3.93-7.93s-.45-7.93 3.93-7.93a7.93 7.93 0 0 1 7.93 7.93z" fill="#393c54"/><path d="m64 95.37a28.31 28.31 0 0 1 -28.32-28.32v-14.62c0-15.64 12.68-25.32 28.32-25.32s28.32 9.68 28.32 25.32v14.62a28.31 28.31 0 0 1 -28.32 28.32z" fill="#ffd8c9"/><g fill="none" stroke-linecap="round" stroke-linejoin="round" stroke-width="2"><path d="m56.41 82.07a.91.91 0 0 1 .84-1.07h13.5a.91.91 0 0 1 .84 1.07" stroke="#393c54"/><path d="m90.91 67a13.34 13.34 0 0 0 -11.82 13.34v4.49" opacity=".1" stroke="#515570"/><path d="m37.09 67a13.34 13.34 0 0 1 11.82 13.34v4.49" opacity=".1" stroke="#515570"/></g><path d="m35 67.53 27.68 6.22a6.14 6.14 0 0 0 2.63 0l27.69-6.22v-44.83a1 1 0 0 0 -1.6-.8l-10 7.45s-6.12-5.8-17.39-5.8a27.83 27.83 0 0 0 -18.09 6.45l-9.27-7.9a1 1 0 0 0 -1.65.76z" fill="#393c54"/><path d="m46.13 57.75 9.75 2.25a5 5 0 1 1 -9.75-2.21z" fill="#fff"/><circle cx="51" cy="59.02" fill="#393c54" r="2.72"/><path d="m56.36 60.07-10.72-2.44" style="fill:none;stroke-linecap:round;stroke-linejoin:round;stroke-width:2;stroke:#515570;opacity:.4"/><path d="m56.36 59.07-10.72-2.44" fill="none" stroke="#515570" stroke-linecap="round" stroke-linejoin="round" stroke-width="2"/><path d="m78 111.82a.5.5 0 0 0 -.26-.93h-8.09a.7.7 0 0 0 -.65.43 3.15 3.15 0 0 1 -2.3 1.89l-1 .21a.36.36 0 0 1 -.43-.29l-.27-1.41a.08.08 0 0 0 -.15 0l-.28.66a2.37 2.37 0 0 0 -1.06 0l-.28-.66a.08.08 0 0 0 -.15 0l-.27 1.41a.36.36 0 0 1 -.43.29l-1-.21a3.15 3.15 0 0 1 -2.3-1.89.7.7 0 0 0 -.65-.43h-8.14a.5.5 0 0 0 -.26.93 5.67 5.67 0 0 1 2.85 4.72.49.49 0 0 0 .56.49 13.27 13.27 0 0 1 5.89.46 9.19 9.19 0 0 1 4.26 3.41.5.5 0 0 0 .82 0 9.19 9.19 0 0 1 4.26-3.41 13.27 13.27 0 0 1 5.89-.46.49.49 0 0 0 .56-.49 5.67 5.67 0 0 1 2.88-4.72z" fill="#f8dc25"/><path d="m81.87 57.75-9.75 2.25a5 5 0 1 0 9.75-2.21z" fill="#fff"/><circle cx="77.06" cy="59.01" fill="#393c54" r="2.63"/><path d="m71.64 60.07 10.72-2.44" style="fill:none;stroke-linecap:round;stroke-linejoin:round;stroke-width:2;stroke:#515570;opacity:.4"/><path d="m71.64 59.07 10.72-2.44" fill="none" stroke="#515570" stroke-linecap="round" stroke-linejoin="round" stroke-width="2"/><path d="m93 96.5v-29.5l-5 1.36-2.75 12.29a15.8 15.8 0 0 1 -7.39 10.16l-2.14.93a29.26 29.26 0 0 1 -23.44 0l-2.14-.93a15.8 15.8 0 0 1 -7.39-10.16l-2.75-12.29-5-1.36v29.5l-16.46 6.64 1.37 1.55a60.21 60.21 0 0 0 17.24 13l19.35-13a14 14 0 0 1 7.5-2.19 16.37 16.37 0 0 1 7.5 1.81l19.37 13.34a60.39 60.39 0 0 0 17-12.72c.56-.61 1.1-1.21 1.61-1.79z" fill="#393c54"/><path d="m60 90a7 7 0 0 1 8 0" fill="none" stroke="#fbc0aa" stroke-linecap="round" stroke-linejoin="round" stroke-width="2"/><path d="m64 63.12v8.21a.51.51 0 0 1 -.63.49l-3.62-1a.51.51 0 0 1 -.31-.71l3.61-7.23a.5.5 0 0 1 .95.24z" fill="#515570"/></svg>