<svg height="800" viewBox="0 0 128 128" width="800" xmlns="http://www.w3.org/2000/svg">
    <circle cx="64" cy="64" fill="#f85565" r="60" />
    <circle cx="64" cy="64" fill="#fff" opacity=".2" r="48" />
    <path d="m89 51.35 12.66 14.82a4 4 0 0 1 -3.55 5.83h-22.44l-4-23z" fill="#4bc190" />
    <path d="m89 51.35 12.66 14.82a4 4 0 0 1 -3.55 5.83h-22.44l-4-23z" fill="#356cb6"
        opacity=".3" />
    <circle cx="89.84" cy="70.87" fill="#fbc0aa" r="7.5" />
    <path
        d="m64 124a59.75 59.75 0 0 0 37.53-13.2l-2-5.53c-1.53-3.77-5.85-6.27-10.64-6.27h-49.78c-4.79 0-9.07 2.51-10.68 6.28l-2 5.53a59.75 59.75 0 0 0 37.57 13.19z"
        fill="#356cb6" />
    <path
        d="m74.26 101.86c0 5.66-4.6 9.25-10.26 9.25s-10.26-3.59-10.26-9.25 4.6-3.42 10.26-3.42 10.26-2.25 10.26 3.42z"
        fill="#fff" />
    <path d="m64 88.88v12" fill="none" stroke="#fbc0aa" stroke-linecap="round"
        stroke-linejoin="round" stroke-width="14" />
    <circle cx="38.16" cy="70.87" fill="#fbc0aa" r="7.5" />
    <path
        d="m64 98a26.78 26.78 0 0 1 -26.79-26.81v-9.62a26.79 26.79 0 0 1 53.58 0v9.62a26.78 26.78 0 0 1 -26.79 26.81z"
        fill="#ffd8c9" />
    <circle cx="64" cy="27.38" fill="#4bc190" r="4" />
    <circle cx="64" cy="27.38" fill="#356cb6" opacity=".3" r="4" />
    <path style="fill:none;stroke-linecap:round;stroke-linejoin:round;stroke:#515570;stroke-width:1.89;opacity:.4"
        d="m74.12 64.84 9.09-.24" />
    <path style="fill:none;stroke-linecap:round;stroke-linejoin:round;stroke:#515570;stroke-width:1.89;opacity:.4"
        d="m53.88 64.84-9.09-.24" />
    <path d="m64 70v5l2.36 4.03h-4.73" fill="none" stroke="#fbc0aa" stroke-linecap="round"
        stroke-linejoin="round" stroke-width="3" />
    <ellipse cx="51.15" cy="78.72" fill="#f85565" opacity=".1" rx="4.34" ry="2.82" />
    <ellipse cx="76.85" cy="78.72" fill="#f85565" opacity=".1" rx="4.34" ry="2.82" />
    <path d="m71.55 84a1 1 0 0 1 .94 1.07 8.56 8.56 0 0 1 -17 0 1 1 0 0 1 .96-1.07z"
        fill="#393c54" />
    <path d="m59 90.91a8.52 8.52 0 0 0 10.08 0c-1.08-1.75-2.91-1.91-5.08-1.91s-4 .16-5 1.91z"
        fill="#f85565" />
    <path d="m62 84h2v2h-2z" fill="#fff" />
    <path d="m65 84h2v2h-2z" fill="#fff" />
    <circle cx="76" cy="70.87" fill="#515570" r="3" />
    <circle cx="52" cy="70.87" fill="#515570" r="3" />
    <path
        d="m91.49 60.12v-.72c0-14.95-11.71-27.61-26.66-28a27.51 27.51 0 0 0 -28.32 27.42v1.33a2 2 0 0 0 2 2h7.38a6.23 6.23 0 0 0 5.35-3l2.52-4.19s13 0 13 0c4.4 4.34 10 7.18 16.21 7.18h6.44a2 2 0 0 0 2.08-2.02z"
        fill="#393c54" />
    <path
        d="m90.92 57a2 2 0 0 0 2-2.15c-1.06-14.82-13-27-28-27.45-15.67-.47-28.68 12.13-29.8 27.46a2 2 0 0 0 2 2.14z"
        fill="#4bc190" />
    <path
        d="m74 57c.56 0 1-1 1-2.15-.52-14.82-3.29-27-10.57-27.45-7.59-.47-15.89 12.13-16.43 27.46 0 1.14.41 2.14 1 2.14z"
        fill="#fff" opacity=".4" />
    <path d="m70.67 52c0 5-18.07 5-18.07 0a9 9 0 0 1 18.07 0z" fill="#393c54" />
    <path d="m66.08 47.92a6 6 0 0 0 -4.45-2h-9.69" fill="none" stroke="#515570"
        stroke-linecap="round" stroke-miterlimit="10" stroke-width="4" />
    <path
        d="m48 52h27.5a2.5 2.5 0 0 1 2.5 2.5 2.5 2.5 0 0 1 -2.5 2.5h-27.5a1 1 0 0 1 -1-1v-3a1 1 0 0 1 1-1z"
        fill="#4bc190" />
    <path
        d="m48 52h27.5a2.5 2.5 0 0 1 2.5 2.5 2.5 2.5 0 0 1 -2.5 2.5h-27.5a1 1 0 0 1 -1-1v-3a1 1 0 0 1 1-1z"
        fill="#356cb6" opacity=".3" />
    <g fill="#393c54">
        <circle cx="74.67" cy="54.5" r="1" />
        <circle cx="70.67" cy="54.5" r="1" />
        <circle cx="66.67" cy="54.5" r="1" />
        <circle cx="62.67" cy="54.5" r="1" />
        <circle cx="58.67" cy="54.5" r="1" />
        <circle cx="54.67" cy="54.5" r="1" />
    </g>
</svg>