<svg height="800" viewBox="0 0 128 128" width="800" xmlns="http://www.w3.org/2000/svg">
    <circle cx="64" cy="64" fill="#00adfe" r="60" />
    <circle cx="64" cy="64" fill="#fff" opacity=".3" r="48" />
    <path d="m32.86 66.94v-14.8c0-17.2 13.94-24.14 31.14-24.14s31.14 6.94 31.14 24.14v14.8z"
        fill="#bc5b57" />
    <circle cx="89.84" cy="70.87" fill="#fba875" r="7.5" />
    <path
        d="m64 124a59.75 59.75 0 0 0 37.53-13.2l-2-5.53c-1.53-3.77-5.85-6.27-10.64-6.27h-49.78c-4.79 0-9.07 2.51-10.68 6.28l-2 5.53a59.75 59.75 0 0 0 37.57 13.19z"
        fill="#4bc190" />
    <path
        d="m74.26 100.86c0 5.66-4.6 9.25-10.26 9.25s-10.26-3.59-10.26-9.25 4.6-3.42 10.26-3.42 10.26-2.25 10.26 3.42z"
        fill="#7cdbcd" />
    <path d="m64 88.88v10" fill="none" stroke="#fba875" stroke-linecap="round"
        stroke-miterlimit="10" stroke-width="16" />
    <path
        d="m93.85 29.41-5.94 1.59a1 1 0 0 1 -1.26-.95l-.13-8.17a1 1 0 0 0 -1.52-.57l-4.57 2.58a1 1 0 0 1 -1.43-.58l-1.66-5.47a1 1 0 0 0 -1.63-.46l-4.47 4a1 1 0 0 1 -1.59-.35l-2.52-5.83a1 1 0 0 0 -1.75-.2l-3.89 5.84a1 1 0 0 1 -1.68 0l-3.08-4.84a1 1 0 0 0 -1.64-.07l-5.37 7.07a1 1 0 0 1 -1.32.26l-6-3.65a1 1 0 0 0 -1.4.66l.28 9.36a1 1 0 0 1 -1.32 1l-5.66-1.94a1 1 0 0 0 -1.43.9v23.63h62.27v-22.86a1 1 0 0 0 -1.29-.95z"
        fill="#bc5b57" />
    <circle cx="38.16" cy="70.87" fill="#fba875" r="7.5" />
    <path
        d="m64 98a26.78 26.78 0 0 1 -26.79-26.81v-9.62a26.79 26.79 0 0 1 53.58 0v9.62a26.78 26.78 0 0 1 -26.79 26.81z"
        fill="#ffbb94" />
    <path d="m37.51 64.68v-18.92" fill="none" stroke="#bc5b57" stroke-linecap="round"
        stroke-linejoin="round" stroke-width="4" />
    <path d="m90.49 65.68v-19.87" fill="none" stroke="#bc5b57" stroke-linecap="round"
        stroke-linejoin="round" stroke-width="4" />
    <path
        d="m63.15 30.12c-15.23.45-27.15 13.35-27.15 28.58a2 2 0 0 0 2 2 2.72 2.72 0 0 0 2.6-2.1 9.28 9.28 0 0 1 9.13-7.6h28.54a9.28 9.28 0 0 1 9.13 7.6 2.72 2.72 0 0 0 2.6 2.06 2 2 0 0 0 2-2v-.6a28 28 0 0 0 -28.85-27.94z"
        fill="#db7a72" />
    <g fill="none" stroke-linecap="round">
        <path d="m74.12 63.84 9.09-.24" opacity=".4" stroke="#515570" stroke-linejoin="round"
            stroke-width="1.89" />
        <path d="m53.88 63.84-9.09-.24" opacity=".4" stroke="#515570" stroke-linejoin="round"
            stroke-width="1.89" />
        <path d="m64 72v6" stroke="#fba875" stroke-miterlimit="10" stroke-width="3.74" />
        <path d="m66.36 79.03h-4.72" stroke="#fba875" stroke-miterlimit="10" stroke-width="3.78" />
        <path d="m64.95 78.08h1.89" opacity=".3" stroke="#f85565" stroke-linejoin="round"
            stroke-width="1.89" />
    </g>
    <ellipse cx="51.15" cy="78.72" fill="#f85565" opacity=".1" rx="4.34" ry="2.82" />
    <ellipse cx="76.85" cy="78.72" fill="#f85565" opacity=".1" rx="4.34" ry="2.82" />
    <path d="m71.55 84a1 1 0 0 1 .94 1.07 8.56 8.56 0 0 1 -17 0 1 1 0 0 1 .96-1.07z"
        fill="#393c54" />
    <path d="m59 90.91a8.52 8.52 0 0 0 10.08 0c-1.08-1.75-2.91-1.91-5.08-1.91s-4 .16-5 1.91z"
        fill="#f85565" />
    <path d="m69 86h-10a1.84 1.84 0 0 1 -1.73-2h13.5a1.84 1.84 0 0 1 -1.77 2z" fill="#fff" />
    <path d="m60 84h2v3h-2z" fill="#393c54" />
    <path d="m71.67 72.28a3 3 0 0 1 6 0" fill="none" stroke="#515570" stroke-linecap="round"
        stroke-linejoin="round" stroke-width="2" />
    <path d="m56 72.28a3 3 0 0 0 -6 0" fill="none" stroke="#515570" stroke-linecap="round"
        stroke-linejoin="round" stroke-width="2" />
</svg>