<svg height="800" viewBox="0 0 128 128" width="800" xmlns="http://www.w3.org/2000/svg"><circle cx="64" cy="64" fill="#00adfe" r="60"/><circle cx="64" cy="64" fill="#fff" opacity=".3" r="48"/><path d="m91.34 25.88c-7.8-7.18-16-10.77-23.71-11.61h-.24l-.93-.08h-.55-.67-.62-1.24-.62-.67-.55l-.93.08h-.24c-7.72.84-15.91 4.43-23.71 11.61a17.91 17.91 0 0 0 -5 11.47v21.65c0 17.83 64.64 17.83 64.64 0v-21.65a17.91 17.91 0 0 0 -4.96-11.47z" fill="#515570"/><circle cx="91.32" cy="60.38" fill="#fba875" r="7.93"/><path d="m64 124.1a59.73 59.73 0 0 0 39.8-15.1l-2.2-5.41c-1.71-4-6.22-6.64-11.29-6.64h-52.62c-5.07 0-9.58 2.66-11.29 6.64l-2.2 5.41a59.73 59.73 0 0 0 39.8 15.1z" fill="#fff"/><path d="m74 99.95h-20l-.78-5.48h21.56z" fill="#a7aece"/><path d="m64 84.7v13.75" fill="none" stroke="#fba875" stroke-linecap="round" stroke-miterlimit="10" stroke-width="18"/><path d="m64 124.05h1v-18.05a1 1 0 1 0 -2 0v18z" fill="#a7aece"/><circle cx="36.68" cy="60.38" fill="#fba875" r="7.93"/><path d="m64 94.32a28.31 28.31 0 0 1 -28.32-28.32v-12.62a28.32 28.32 0 1 1 56.64 0v12.62a28.31 28.31 0 0 1 -28.32 28.32z" fill="#ffbb94"/><path d="m74.39 52.95 9.61-.25" style="fill:none;stroke-linecap:round;stroke:#515570;opacity:.4;stroke-linejoin:round;stroke-width:2"/><path d="m53 52.95-9.61-.25" style="fill:none;stroke-linecap:round;stroke:#515570;opacity:.4;stroke-linejoin:round;stroke-width:2"/><path d="m64 103.25a11 11 0 0 1 -10.78-8.8 11.4 11.4 0 0 0 -.22 2.2 11 11 0 0 0 22 0 11.4 11.4 0 0 0 -.22-2.2 11 11 0 0 1 -10.78 8.8z" fill="#fff"/><path d="m64 103.25a11 11 0 0 1 -10.78-8.8 11.4 11.4 0 0 0 -.22 2.2 11 11 0 0 0 22 0 11.4 11.4 0 0 0 -.22-2.2 11 11 0 0 1 -10.78 8.8z" fill="#393c54" opacity=".1"/><path d="m71.55 76a1 1 0 0 1 1 1.06 8.55 8.55 0 0 1 -17 0 1 1 0 0 1 1-1.06z" fill="#393c54"/><path d="m64 84.61a8.51 8.51 0 0 0 6.29-2.79 9.06 9.06 0 0 0 -12.58 0 8.51 8.51 0 0 0 6.29 2.79z" fill="#f85565"/><path d="m64 86.09a8.33 8.33 0 0 1 -3.24-.65.5.5 0 0 0 -.59.75l2.28 3.41a1.86 1.86 0 0 0 3.1 0l2.28-3.41a.5.5 0 0 0 -.59-.75 8.33 8.33 0 0 1 -3.24.65z" fill="#393c54"/><path d="m58 76h5a0 0 0 0 1 0 0v2a0 0 0 0 1 0 0h-3a2 2 0 0 1 -2-2 0 0 0 0 1 0 0z" fill="#fff"/><path d="m65 76h5a0 0 0 0 1 0 0 2 2 0 0 1 -2 2h-3a0 0 0 0 1 0 0v-2a0 0 0 0 1 0 0z" fill="#fff"/><path d="m63.56 73.13a2.59 2.59 0 0 1 -2.15 3l-2.33.37a19 19 0 0 1 -13.67-3.07l15.19-2.43a2.59 2.59 0 0 1 2.96 2.13z" fill="#393c54"/><path d="m64.44 73.13a2.59 2.59 0 0 0 2.15 3l2.33.37a19 19 0 0 0 13.67-3.07l-15.19-2.43a2.59 2.59 0 0 0 -2.96 2.13z" fill="#393c54"/><circle cx="78" cy="59.23" fill="#393c54" r="3"/><circle cx="50" cy="59.23" fill="#393c54" r="3"/><path d="m64 60.7v8.5" fill="none" stroke="#fba875" stroke-linecap="round" stroke-miterlimit="10" stroke-width="6"/><g fill="#fff"><path d="m82.1 65h-7.92a4.77 4.77 0 0 1 -4.65-3.73l-.53-2.63a2.64 2.64 0 0 1 2.16-3.19 45.34 45.34 0 0 1 13.76 0 2.64 2.64 0 0 1 2.21 2.9l-.26 2.31a4.77 4.77 0 0 1 -4.77 4.34z" opacity=".3"/><path d="m45.9 65h7.92a4.77 4.77 0 0 0 4.65-3.73l.53-2.63a2.64 2.64 0 0 0 -2.16-3.19 45.34 45.34 0 0 0 -13.76 0 2.64 2.64 0 0 0 -2.21 2.9l.26 2.31a4.77 4.77 0 0 0 4.77 4.34z" opacity=".3"/><path d="m73.64 55.16-4.44 4.43a.41.41 0 0 1 0 .11l.34 1.52a4.72 4.72 0 0 0 1.34 2.36l8.6-8.6a43.63 43.63 0 0 0 -5.84.18z" opacity=".3"/><path d="m82.12 55.16-9.52 9.52a4.9 4.9 0 0 0 1.58.27h1l9.48-9.49q-1.28-.18-2.54-.3z" opacity=".3"/></g><path d="m82.1 65h-7.92a4.77 4.77 0 0 1 -4.65-3.73l-.53-2.63a2.64 2.64 0 0 1 2.16-3.19 45.34 45.34 0 0 1 13.76 0 2.64 2.64 0 0 1 2.21 2.9l-.26 2.31a4.77 4.77 0 0 1 -4.77 4.34z" fill="none" stroke="#393c54" stroke-linecap="round" stroke-linejoin="round" stroke-width="2"/><path d="m42.72 63.73 8.76-8.73a46 46 0 0 0 -5.87.22l-4.41 4.4v.64s0 .49 0 .73a4.74 4.74 0 0 0 1.52 2.74z" fill="#fff" opacity=".3"/><path d="m54.14 55.14-9.59 9.59a4.65 4.65 0 0 0 1.35.27h1.26l9.52-9.52c-.85-.18-1.68-.27-2.54-.34z" fill="#fff" opacity=".3"/><path d="m45.9 65h7.92a4.77 4.77 0 0 0 4.65-3.73l.53-2.63a2.64 2.64 0 0 0 -2.16-3.19 45.34 45.34 0 0 0 -13.76 0 2.64 2.64 0 0 0 -2.21 2.9l.26 2.31a4.77 4.77 0 0 0 4.77 4.34z" fill="none" stroke="#393c54" stroke-linecap="round" stroke-linejoin="round" stroke-width="2"/><path d="m59 58.95h10" fill="none" stroke="#393c54" stroke-linecap="round" stroke-linejoin="round" stroke-width="2"/><circle cx="68" cy="112.95" fill="#515570" r="1.5"/><circle cx="68" cy="119.95" fill="#515570" r="1.5"/><path d="m92.24 36a12.58 12.58 0 0 0 -4.86-8l-.38-.4c0-.21 0-.43 0-.65 0-7.73-10.3-14-23-14s-23 6.27-23 14.05a7.73 7.73 0 0 0 .06 1 12.53 12.53 0 0 0 -4.86 8l-2.76 17.15 2.24 9.08s1-25.37 10.64-25.33a10.52 10.52 0 0 0 1.39-.07 31.71 31.71 0 0 0 16.29 4.17 31.76 31.76 0 0 0 16.35-4.2 12.54 12.54 0 0 0 1.76.1c9.68 0 10.65 25.33 10.65 25.33l2.24-9.08z" fill="#393c54"/><path d="m69.64 96a31.9 31.9 0 0 1 -11.28 0c-1.3 0-2.36-1.51-2.36-3.3v-.7a48.27 48.27 0 0 0 16 0v.75c0 1.74-1.06 3.25-2.36 3.25z" fill="#393c54" opacity=".5"/></svg>