<svg height="800" viewBox="0 0 128 128" width="800" xmlns="http://www.w3.org/2000/svg"><circle cx="64" cy="64" fill="#ffd8c9" r="60"/><circle cx="64" cy="64" fill="#fff" opacity=".3" r="48"/><g fill="none" stroke-linecap="round" stroke-linejoin="round"><path d="m38.77 76.14 4 2.86-4 2.86" stroke="#4bc190" stroke-width="2.42"/><path d="m38.77 60.14 4 2.86-4 2.86" stroke="#4bc190" stroke-width="2.42"/><path d="m38.77 44.14 4 2.86-4 2.86" stroke="#4bc190" stroke-width="2.42"/><path d="m46.67 29.5.83 5-5-.83" stroke="#4bc190" stroke-width="2.5"/><path d="m89.53 76.14-4 2.86 4 2.86" stroke="#4bc190" stroke-width="2.42"/><path d="m89.53 60.14-4 2.86 4 2.86" stroke="#4bc190" stroke-width="2.42"/><path d="m90.53 44.14-4 2.86 4 2.86" stroke="#4bc190" stroke-width="2.42"/><path d="m81.63 29.5-.84 5 5-.83" stroke="#4bc190" stroke-width="2.5"/><path d="m89.53 76.14-4 2.86 4 2.86" opacity=".3" stroke="#356cb6" stroke-width="2.42"/><path d="m89.53 60.14-4 2.86 4 2.86" opacity=".3" stroke="#356cb6" stroke-width="2.42"/><path d="m90.53 44.14-4 2.86 4 2.86" opacity=".3" stroke="#356cb6" stroke-width="2.42"/><path d="m81.63 29.5-.84 5 5-.83" opacity=".3" stroke="#356cb6" stroke-width="2.5"/></g><path d="m64 109a22 22 0 0 1 -22-22v-38a22 22 0 0 1 44 0v38a22 22 0 0 1 -22 22z" fill="#4bc190"/><path d="m48 49a16 16 0 0 1 16-16" style="fill:none;stroke-linecap:round;stroke:#fff;stroke-miterlimit:10;stroke-width:4;opacity:.2"/><path d="m76.27 30.73a22 22 0 0 1 3.73 12.27v31a22 22 0 0 1 -34.27 18.27 22 22 0 0 0 18.27 9.73c12.15 0 22-2.85 22-15v-38a22 22 0 0 0 -9.73-18.27z" fill="#356cb6" opacity=".3"/><path d="m63.5 21.17a3.29 3.29 0 0 0 -4.88.24 3.38 3.38 0 0 0 .31 4.52l4 4a.78.78 0 0 0 1.1 0l4-4a3.38 3.38 0 0 0 .31-4.52 3.29 3.29 0 0 0 -4.84-.24z" fill="#f85565"/><path d="m40 119a60 60 0 0 0 47 .45l3-26.45h-53z" fill="#8f5653"/><rect fill="#b56b63" height="11" rx="2" width="62" x="33" y="88"/><path d="m93 88h-58a2 2 0 0 0 -2 2v3a2 2 0 0 1 2-2h58a2 2 0 0 1 2 2v-3a2 2 0 0 0 -2-2z" fill="#db7a72" opacity=".5"/><path d="m71.55 66.34a1 1 0 0 1 .94 1.08 8.54 8.54 0 0 1 -17 0 1 1 0 0 1 .94-1.08z" fill="#393c54"/><path d="m64 69a9.08 9.08 0 0 0 -6.6 2.84 8.47 8.47 0 0 0 13.2 0 9.08 9.08 0 0 0 -6.6-2.84z" fill="#f85565"/><ellipse cx="53" cy="63.31" fill="#f85565" opacity=".3" rx="3" ry="2.02"/><ellipse cx="75" cy="63.31" fill="#f85565" opacity=".3" rx="3" ry="2.02"/><ellipse cx="75" cy="58.25" fill="#393c54" rx="2" ry="2.02"/><path d="m57.65 57.16c-.61-2.73-2.84-2.46-5.54-1.84s-4.82 1.35-4.21 4.08a5 5 0 1 0 9.75-2.24z" fill="#393c54"/><path d="m55 56.23 28-19.22" fill="none" stroke="#393c54" stroke-linecap="round" stroke-linejoin="round" stroke-width="2"/><path d="m49 58.25h-7" fill="none" stroke="#393c54" stroke-linecap="round" stroke-linejoin="round" stroke-width="2"/><path d="m61 78h6" style="fill:none;stroke-linecap:round;stroke-linejoin:round;opacity:.2;stroke-width:2;stroke:#515570"/></svg>