<svg height="800" viewBox="0 0 128 128" width="800" xmlns="http://www.w3.org/2000/svg"><circle cx="64" cy="64" fill="#4bc190" r="60"/><circle cx="64" cy="64" fill="#356cb6" opacity=".3" r="48"/><path d="m91 46-27 27-27-27 24.17-30.17a4 4 0 0 1 5.66 0z" fill="#fff"/><path d="m64.72 14.73-.72 1.27 14 37 4.5 1.5 8.5-8.5-24.17-30.17a4 4 0 0 0 -2.11-1.1z" fill="#393c54" opacity=".1"/><path d="m50 53 29.5 4.5 11.5-11.5-24.17-30.17a3.89 3.89 0 0 0 -1.68-1l-1.15 1.17z" fill="#393c54" opacity=".1"/><path d="m64 46-14 6-13-6v71.58a60 60 0 0 0 54 0v-71.58l-13 6z" fill="#f2bc0f"/><path d="m50 52-13-6v71.58a59.95 59.95 0 0 0 41 4.76v-70.34l-14-6z" fill="#f8dc25"/><path d="m37 117.58a59.77 59.77 0 0 0 13 4.76v-70.34l-13-6z" fill="#fff" opacity=".5"/><path d="m70.17 20-3.34-4.17a4 4 0 0 0 -5.66 0l-3.34 4.17z" fill="#515570"/><g fill="#f85565"><ellipse cx="51" cy="74.85" opacity=".2" rx="5.08" ry="2.85"/><ellipse cx="77" cy="74.85" opacity=".2" rx="5.08" ry="2.85"/><path d="m77.24 63.75a3.9 3.9 0 0 0 -5.77.28 4 4 0 0 0 .38 5.34l4.74 4.74a.92.92 0 0 0 1.3 0l4.74-4.74a4 4 0 0 0 .37-5.37 3.89 3.89 0 0 0 -5.76-.25z"/><path d="m50.76 63.75a3.89 3.89 0 0 0 -5.76.25 4 4 0 0 0 .37 5.34l4.74 4.74a.92.92 0 0 0 1.3 0l4.74-4.74a4 4 0 0 0 .38-5.34 3.9 3.9 0 0 0 -5.77-.25z"/></g><path d="m57.24 89.54v6.79" style="fill:none;stroke-linecap:round;stroke:#fff;stroke-miterlimit:10;stroke-width:4;opacity:.7"/><path d="m55.24 85.54v8.79" style="fill:none;stroke-linecap:round;stroke:#fff;stroke-miterlimit:10;stroke-width:4;opacity:.7"/><path d="m71.24 90.54v5.79" style="fill:none;stroke-linecap:round;stroke:#fff;stroke-miterlimit:10;stroke-width:4;opacity:.7"/><path d="m73.24 88.54v4.79" style="fill:none;stroke-linecap:round;stroke:#fff;stroke-miterlimit:10;stroke-width:4;opacity:.7"/><path d="m73 83a1.93 1.93 0 0 1 3 1.6c0 5.4-4.3 9.49-11 9.49a13.09 13.09 0 0 1 -13-11.49 1.65 1.65 0 0 1 2.45-1.6c7.2 3.89 13.77 4.39 18.55 2z" fill="#393c54"/><path d="m65 94.09a12 12 0 0 0 7.77-2.53c-1.77-2.13-4.56-2.43-7.77-2.43s-6 .3-7.76 2.41a13.07 13.07 0 0 0 7.76 2.55z" fill="#f85565"/><path d="m80.67 57.41 5.33 2.11a4.62 4.62 0 0 1 2.86 3.73l.14 1.42" style="opacity:.2;fill:none;stroke-linecap:round;stroke:#515570;stroke-linejoin:round;stroke-width:2"/><path d="m47.54 59-2.71.09a4.61 4.61 0 0 0 -3.75 2.84l-.54 1.32" style="opacity:.2;fill:none;stroke-linecap:round;stroke:#515570;stroke-linejoin:round;stroke-width:2"/></svg>