<svg height="800" viewBox="0 0 128 128" width="800" xmlns="http://www.w3.org/2000/svg">
    <circle cx="64" cy="64" fill="#4bc190" r="60" />
    <circle cx="64" cy="64" fill="#356cb6" opacity=".3" r="48" />
    <path d="m99 82a4 4 0 0 1 -4-4v-44a13 13 0 0 0 -25.9 0l6 48a12 12 0 0 0 24 0z" fill="#393c54" />
    <circle cx="75" cy="36" fill="#f85565" r="10" />
    <path
        d="m63 28a29.41 29.41 0 0 1 29.41 29.41v6.12a10.94 10.94 0 0 1 -10.94 10.94h-36.94a10.94 10.94 0 0 1 -10.94-10.94v-6.12a29.41 29.41 0 0 1 29.41-29.41z"
        fill="#393c54" />
    <circle cx="85.98" cy="74.31" fill="#fbc0aa" r="6.43" />
    <path
        d="m64 124a59.62 59.62 0 0 0 33-9.92l-2.66-7.44a10 10 0 0 0 -9.34-6.64h-43.95a10 10 0 0 0 -9.42 6.64l-2.27 6.36a59.74 59.74 0 0 0 34.64 11z"
        fill="#f8dc25" />
    <path d="m82.92 100h-39.84a20 20 0 0 0 39.84 0z" fill="#f2bc0f" />
    <path d="m72 101.25a9 9 0 0 1 -18 0c0-5 4-3 9-3s9-1.97 9 3z" fill="#fff" />
    <path d="m63 87.75v13.75" fill="none" stroke="#fbc0aa" stroke-linecap="round"
        stroke-linejoin="round" stroke-width="12" />
    <circle cx="40.02" cy="74.31" fill="#fbc0aa" r="6.43" />
    <path d="m63 98.84a23 23 0 0 1 -23-23v-15.08a23 23 0 0 1 46 0v15.11a23 23 0 0 1 -23 22.97z"
        fill="#ffd8c9" />
    <path style="fill:none;stroke-linecap:round;stroke:#fff;stroke-miterlimit:10;stroke-width:3.68;opacity:.1"
        d="m44.82 51a19.9 19.9 0 0 1 17.58-12.46" />
    <path
        d="m88.82 58.82a25.82 25.82 0 0 0 -26.55-25.82c-14.06.39-25.09 12.28-25.09 26.35v4a4.83 4.83 0 0 0 1.48 3.51 5.93 5.93 0 0 0 1.36 1v-3.86a4 4 0 0 1 4-4h5.38a1 1 0 0 0 .9-.55l1.7-3.45 1.72 3.45a1 1 0 0 0 .9.55h27.38a4 4 0 0 1 4 4v3.89a5.93 5.93 0 0 0 1.36-1 4.83 4.83 0 0 0 1.48-3.51z"
        fill="#515570" />
    <g fill="none" stroke-linecap="round" stroke-linejoin="round">
        <path d="m70.67 75.28a3 3 0 0 1 6 0" stroke="#515570" stroke-width="2" />
        <path d="m62.5 77.5v4" stroke="#fbc0aa" stroke-width="4.71" />
        <path d="m72 68h7" opacity=".2" stroke="#515570" stroke-width="2" />
        <path d="m55 75.28a3 3 0 0 0 -6 0" stroke="#515570" stroke-width="2" />
        <path d="m54 68h-7" opacity=".2" stroke="#515570" stroke-width="2" />
    </g>
    <path d="m70.55 86a1 1 0 0 1 .94 1.07 8.56 8.56 0 0 1 -17 0 1 1 0 0 1 .96-1.07z"
        fill="#393c54" />
    <path d="m58 92.91a8.52 8.52 0 0 0 10.08 0c-1.08-1.75-2.91-1.91-5.08-1.91s-4 .16-5 1.91z"
        fill="#f85565" />
    <path d="m68 88h-10a1.84 1.84 0 0 1 -1.73-2h13.5a1.84 1.84 0 0 1 -1.77 2z" fill="#fff" />
</svg>