<svg height="800" viewBox="0 0 128 128" width="800" xmlns="http://www.w3.org/2000/svg"><circle cx="64" cy="64" fill="#00adfe" r="60"/><circle cx="64" cy="64" fill="#fff" opacity=".3" r="48"/><path d="m109.39 68.76a17.56 17.56 0 0 0 -17.57-17.56 18.1 18.1 0 0 0 -3.85.43 26.19 26.19 0 0 0 -40-10 16.33 16.33 0 0 0 -23.15 17.37 8.78 8.78 0 0 0 -3.37 15.75 21 21 0 0 0 24.86 28.09 11.37 11.37 0 0 0 19.21 3.8 21 21 0 0 0 33.61-16.83 21.27 21.27 0 0 0 -.57-4.81 17.56 17.56 0 0 0 10.83-16.24z" fill="#fff"/><path d="m109.39 68.76a17.56 17.56 0 0 0 -17.57-17.56 18.1 18.1 0 0 0 -3.85.43 26.19 26.19 0 0 0 -40-10 16.33 16.33 0 0 0 -23.15 17.37 8.78 8.78 0 0 0 -3.37 15.75 21 21 0 0 0 24.86 28.09 11.37 11.37 0 0 0 19.21 3.8 21 21 0 0 0 33.61-16.83 21.27 21.27 0 0 0 -.57-4.81 17.56 17.56 0 0 0 10.83-16.24z" fill="#393c54" opacity=".1"/><path d="m106.53 60.49c-.07-.48-.18-1.09-.32-1.78a17.51 17.51 0 0 0 -14.39-7.51 18.1 18.1 0 0 0 -3.85.43 26.19 26.19 0 0 0 -40-10 16.33 16.33 0 0 0 -23.15 17.37 8.8 8.8 0 0 0 -6.47 5.5 9.88 9.88 0 0 0 11.06 6.5 17.89 17.89 0 0 0 29.67 17.19 17.77 17.77 0 0 0 32.73-9.6 18 18 0 0 0 -.35-3.47 12.93 12.93 0 0 0 15.07-14.63z" fill="#fff"/><path d="m97.22 14a59.64 59.64 0 0 0 -16.08-7.5 72.93 72.93 0 0 0 -37.45 51.68l13.07 2.32a59.72 59.72 0 0 1 40.46-46.5z" fill="#f85565"/><path d="m97.23 14.05a60 60 0 0 0 -40.47 46.45l13.08 2.32a46.53 46.53 0 0 1 39.61-38 60 60 0 0 0 -12.22-10.77z" fill="#f8dc25"/><path d="m118 37.83a60 60 0 0 0 -8.55-13 46.42 46.42 0 0 0 -39.61 38l13.08 2.32a33.13 33.13 0 0 1 32.63-27.41c.81-.01 1.63.03 2.45.09z" fill="#4bc190"/><path d="m82.92 65.14a33.14 33.14 0 0 1 4.63-12 13 13 0 0 0 -16.55.97 16.49 16.49 0 0 0 -10.21-3.56h-.33a12.94 12.94 0 0 0 -8-8.74 12.63 12.63 0 0 0 -3.46-.81 73.4 73.4 0 0 0 -5.26 17.14l13.02 2.36 13.08 2.32z" fill="#393c54" opacity=".1"/><path d="m70 123.7a59.86 59.86 0 0 0 10-1.87v-45.83h-10z" fill="#356cb6"/><path d="m40 119a59.62 59.62 0 0 0 10 3.35v-46.35h-10z" fill="#356cb6"/><path d="m83 55.21a9 9 0 0 0 -11.6 5.29 12.42 12.42 0 0 0 -14.55-5.3 9 9 0 1 0 -7.85 7.8 12.44 12.44 0 0 0 23.42 8.41 12.7 12.7 0 0 0 .58-1.92 9 9 0 1 0 10-14.28z" fill="#fff"/><path d="m66 72a4 4 0 0 0 4 4h10" fill="none" stroke="#515570" stroke-linecap="round" stroke-linejoin="round" stroke-width="2"/><path d="m53.67 72a4 4 0 0 1 -4 4h-9.67" fill="none" stroke="#515570" stroke-linecap="round" stroke-linejoin="round" stroke-width="2"/><path d="m52.45 94a1 1 0 0 1 -.94-1.06 8.56 8.56 0 0 1 17 0 1 1 0 0 1 -.96 1.06z" fill="#393c54"/><path d="m65.75 94a6.06 6.06 0 0 0 -11.5 0z" fill="#f85565"/><g fill="#356cb6"><path d="m36 110a2 2 0 0 1 -4 0c0-1.1.9-3.41 2-3.41s2 2.31 2 3.41z"/><path d="m58.67 119a2 2 0 0 1 -4 0c0-1.1.89-3.41 2-3.41s2 2.31 2 3.41z"/><path d="m66 115.41a2 2 0 0 1 -4 0c0-1.1.9-3.41 2-3.41s2 2.31 2 3.41z"/><path d="m87.55 115.41a2 2 0 0 1 -4 0c0-1.1.9-3.41 2-3.41s2 2.31 2 3.41z"/></g></svg>