<svg height="800" viewBox="0 0 128 128" width="800" xmlns="http://www.w3.org/2000/svg">
    <circle cx="64" cy="64" fill="#515570" r="60" />
    <circle cx="64" cy="64" fill="#6b718e" r="48" />
    <path d="m40.55 119.5a59.73 59.73 0 0 0 23.45 4.6 59.73 59.73 0 0 0 23.45-4.6l4.55-68.5h-56z"
        fill="#fff" />
    <path
        d="m84.56 51-5.92 54.15a16.41 16.41 0 0 1 -11.18 13.85 89.27 89.27 0 0 1 -18.58 3.32 62.17 62.17 0 0 0 15.12 1.78 59.73 59.73 0 0 0 23.45-4.6l4.55-68.5z"
        fill="#356cb6" opacity=".1" />
    <path d="m84 32.67h-39a3 3 0 0 0 -2.76 1.81l-4.24 9.85h53l-4.22-9.85a3 3 0 0 0 -2.78-1.81z"
        fill="#a7aece" />
    <path d="m84 32.67h-39a3 3 0 0 0 -2.76 1.81l-4.24 9.85h53l-4.22-9.85a3 3 0 0 0 -2.78-1.81z"
        fill="#fff" opacity=".3" />
    <path d="m64 94h17a0 0 0 0 1 0 0 5 5 0 0 1 -5 5h-7a5 5 0 0 1 -5-5 0 0 0 0 1 0 0z" fill="#393c54"
        transform="matrix(.96592583 .25881905 -.25881905 .96592583 27.44 -15.47)" />
    <path d="m47 94h17a0 0 0 0 1 0 0 5 5 0 0 1 -5 5h-7a5 5 0 0 1 -5-5 0 0 0 0 1 0 0z" fill="#393c54"
        transform="matrix(.96592583 -.25881905 .25881905 .96592583 -23.07 17.66)" />
    <rect fill="#a7aece" height="12" rx="2.06" width="66" x="31" y="41" />
    <path
        d="m94.94 41h-9a2.06 2.06 0 0 1 2.06 2.06v7.88a2.06 2.06 0 0 1 -2.06 2.06h9a2.06 2.06 0 0 0 2.06-2.06v-7.88a2.06 2.06 0 0 0 -2.06-2.06z"
        fill="#393c54" opacity=".15" />
    <path
        d="m91.65 91.13 1.8-27a2 2 0 0 0 -2-2.13h-55.91a2 2 0 0 0 -2 2.13l1.8 27a2 2 0 0 0 2 1.87h52.32a2 2 0 0 0 1.99-1.87z"
        fill="#f85565" />
    <path
        d="m91.65 91.13 1.8-27a2 2 0 0 0 -2-2.13h-55.91a2 2 0 0 0 -2 2.13l1.8 27a2 2 0 0 0 2 1.87h52.32a2 2 0 0 0 1.99-1.87z"
        fill="#f85565" />
    <path
        d="m91.46 62h-8a2 2 0 0 1 2 2.13l-1.8 27a2 2 0 0 1 -2 1.87h8a2 2 0 0 0 2-1.87l1.8-27a2 2 0 0 0 -2-2.13z"
        fill="#393c54" opacity=".15" />
    <ellipse cx="76.5" cy="80" fill="#fff" rx="8.17" ry="4.61" />
    <ellipse cx="51.5" cy="80" fill="#fff" rx="8.17" ry="4.61" />
    <circle cx="76.75" cy="78.8" fill="#515570" r="3" />
    <circle cx="51.25" cy="78.8" fill="#515570" r="3" />
    <path d="m59 104h10" fill="none" stroke="#f85565" stroke-linecap="round" stroke-linejoin="round"
        stroke-width="2" />
    <path d="m100 65h10a0 0 0 0 1 0 0 7 7 0 0 1 -7 7h-10a0 0 0 0 1 0 0 7 7 0 0 1 7-7z"
        fill="#f85565" />
    <path d="m100 72h10a0 0 0 0 1 0 0 7 7 0 0 1 -7 7h-10a0 0 0 0 1 0 0 7 7 0 0 1 7-7z"
        fill="#f85565" transform="matrix(.70710678 .70710678 -.70710678 .70710678 83.12 -49.66)" />
    <g fill="#fff">
        <path d="m100 72h10a0 0 0 0 1 0 0 7 7 0 0 1 -7 7h-10a0 0 0 0 1 0 0 7 7 0 0 1 7-7z"
            opacity=".2"
            transform="matrix(.70710678 .70710678 -.70710678 .70710678 83.12 -49.66)" />
        <path d="m98 21.83h-14.17a7.5 7.5 0 0 0 -7.5 7.5h14.17a7.5 7.5 0 0 0 7.5-7.5z"
            opacity=".3" />
        <path d="m94.77 12.49a7.5 7.5 0 0 0 -4.44 6.84h13.72a60 60 0 0 0 -9.28-6.84z"
            opacity=".3" />
    </g>
</svg>