<svg height="800" viewBox="0 0 128 128" width="800" xmlns="http://www.w3.org/2000/svg"><circle cx="64" cy="64" fill="#515570" r="60"/><circle cx="64" cy="64" fill="#393c54" opacity=".5" r="48"/><circle cx="91.32" cy="60.43" fill="#4bc190" r="7.93"/><path d="m86.94 36.78a5.12 5.12 0 0 0 .06-.78 6 6 0 0 0 -5.08-5.92 6 6 0 0 0 -5.92-5.08 5.12 5.12 0 0 0 -.78.06 6 6 0 0 0 -8.67-2 6 6 0 0 0 -10.55 3.94c0 3.31 2.69 19 6 19 1.29 0 18.69 2 22 2a6 6 0 0 0 2.94-11.22z" fill="#ff8475"/><path d="m63 123.32a56.83 56.83 0 0 0 38-14.52l-2.27-5.31c-1.62-3.78-5.91-6.31-10.73-6.31h-50c-4.82 0-9.11 2.53-10.73 6.31l-2.27 5.31a56.83 56.83 0 0 0 38 14.52z" fill="#4bc190"/><path d="m64 124a59.77 59.77 0 0 0 39.83-15.14l-2.23-5.22c-1.71-4-6.22-6.64-11.29-6.64h-51.67a1 1 0 0 0 -1 .94l-.64 11.56s-4.78-6.82-6.52-9.24a1 1 0 0 0 -1.48-.16 10 10 0 0 0 -2.61 3.54l-2.23 5.22a59.77 59.77 0 0 0 39.84 15.14z" fill="#00adfe"/><path d="m77.43 98.73a13.43 13.43 0 0 1 -26.86 0c0-5 6-3.25 13.43-3.25s13.43-1.8 13.43 3.25z" fill="#356cb6"/><path d="m64 84.75v13.75" fill="none" stroke="#4bc190" stroke-linecap="round" stroke-linejoin="round" stroke-width="20"/><path d="m64 84.75v13.75" style="fill:none;stroke-linecap:round;stroke-linejoin:round;stroke-width:20;stroke:#356cb6;opacity:.3"/><circle cx="36.68" cy="60.43" fill="#4bc190" r="7.93"/><circle cx="91.32" cy="60.43" fill="#356cb6" opacity=".3" r="7.93"/><circle cx="36.68" cy="60.43" fill="#356cb6" opacity=".3" r="7.93"/><path d="m90 42a.22.22 0 0 0 0-.08c-.65 0-1.32.08-2 .08a26 26 0 0 1 -25.51-21 3.91 3.91 0 0 0 -.49 0 6 6 0 0 0 -6 6c0 3.31 2.69 19 6 19 1.29 0 18.69 2 22 2a6 6 0 0 0 6-6z" fill="#356cb6" opacity=".3"/><path d="m86 44a26 26 0 0 1 -25.76-22.5 2 2 0 0 0 -2.4-1.71 28.32 28.32 0 0 0 -22.16 27.64v18c0 15.43 12.1 28.47 27.52 28.89a28.32 28.32 0 0 0 29.12-28.27v-18.62c0-.64 0-1.28-.07-1.91a2 2 0 0 0 -2.32-1.82 25.42 25.42 0 0 1 -3.93.3z" fill="#4bc190"/><path d="m53.65 29.73a23.15 23.15 0 0 0 -9 10.61" fill="none" stroke="#f85565" stroke-linecap="round" stroke-linejoin="round" stroke-width="3"/><circle cx="77.5" cy="60" fill="#fff" r="5"/><circle cx="77.5" cy="60" fill="#393c54" r="1.75"/><circle cx="50.5" cy="60" fill="#393c54" r="5"/><path d="m56.33 60h-11.66a5.83 5.83 0 0 1 11.66 0z" fill="#4bc190"/><path d="m56.33 60h-11.66a5.83 5.83 0 0 1 11.66 0z" fill="#356cb6" opacity=".3"/><path d="m83.33 60h-11.66a5.83 5.83 0 0 1 11.66 0z" fill="#4bc190"/><path d="m83.33 60h-11.66a5.83 5.83 0 0 1 11.66 0z" fill="#356cb6" opacity=".3"/><path d="m60.17 86h3.66" style="fill:none;stroke-linecap:round;stroke-linejoin:round;stroke:#515570;stroke-width:2;opacity:.4"/><path d="m70 83h-12a4 4 0 0 1 0-8h12a4 4 0 0 1 0 8z" fill="#393c54"/><path d="m57 75h3a0 0 0 0 1 0 0v1.5a1.5 1.5 0 0 1 -1.5 1.5 1.5 1.5 0 0 1 -1.5-1.5v-1.5a0 0 0 0 1 0 0z" fill="#fff"/><path d="m56.36 82.64a3.9 3.9 0 0 0 1.64.36h12a3.9 3.9 0 0 0 1.64-.36c-.28-2.59-3.59-4.64-7.64-4.64s-7.36 2.05-7.64 4.64z" fill="#f85565"/><g fill="none" stroke-linecap="round" stroke-linejoin="round"><path d="m67.62 68.35-2.86-6.55a.61.61 0 0 0 -1.12 0l-2.86 6.55" opacity=".5" stroke="#515570" stroke-width="2"/><path d="m85.75 70.5a7.5 7.5 0 0 0 -7.5 7.5v5" opacity=".1" stroke="#515570" stroke-width="2"/><path d="m42.25 70.5a7.5 7.5 0 0 1 7.5 7.5v5" opacity=".1" stroke="#515570" stroke-width="2"/><path d="m69 50h13" stroke="#515570" stroke-width="4"/><path d="m46 50h13" stroke="#515570" stroke-width="4"/><path d="m44 36 5 3" stroke="#515570" stroke-width="2"/><path d="m48.44 30.44 4.12 4.12" stroke="#515570" stroke-width="2"/><path d="m68.5 81.5v4" stroke="#f85565" stroke-width="3"/></g><path d="m29.16 99.52-1 4.69a1 1 0 0 0 .57 1.12l8.27 3.67s-4.77-6.81-6.51-9.23a1 1 0 0 0 -1.33-.25z" fill="#356cb6"/></svg>