<svg height="800" viewBox="0 0 128 128" width="800" xmlns="http://www.w3.org/2000/svg">
    <circle cx="64" cy="64" fill="#4bc190" r="60" />
    <circle cx="64" cy="64" fill="#356cb6" opacity=".3" r="48" />
    <g fill="#fff">
        <circle cx="30.76" cy="59.37" r="10" />
        <circle cx="97.24" cy="59.37" r="10" />
        <circle cx="32.76" cy="41.77" r="12.43" />
        <circle cx="95.24" cy="41.77" r="12.43" />
        <circle cx="44.5" cy="25.34" r="12.43" />
        <circle cx="83.5" cy="25.34" r="12.43" />
    </g>
    <circle cx="91.32" cy="64.43" fill="#fbc0aa" r="7.93" />
    <path
        d="m64 124.1a59.78 59.78 0 0 0 40-15.28l-2.39-5.68c-1.71-4-6.22-6.64-11.29-6.64h-52.63c-5.07 0-9.58 2.66-11.29 6.64l-2.4 5.68a59.78 59.78 0 0 0 40 15.28z"
        fill="#fff" />
    <path d="m79 96.5h-30.15a15.07 15.07 0 0 0 30.15 0z" fill="#515570" />
    <path d="m64 84.75v13.75" fill="none" stroke="#fbc0aa" stroke-linecap="round"
        stroke-linejoin="round" stroke-width="20" />
    <path d="m64 113 9.66 3.51a1 1 0 0 0 1.34-.94v-11.14a1 1 0 0 0 -1.34-.94l-9.66 3.51z"
        fill="#393c54" />
    <path d="m64 113-9.66 3.51a1 1 0 0 1 -1.34-.94v-11.14a1 1 0 0 1 1.34-.94l9.66 3.51z"
        fill="#393c54" />
    <circle cx="64" cy="110" fill="#393c54" r="5" />
    <path
        d="m64 103.25a11 11 0 0 1 -10.78-8.8 11.4 11.4 0 0 0 -.22 2.2 11 11 0 0 0 22 0 11.4 11.4 0 0 0 -.22-2.2 11 11 0 0 1 -10.78 8.8z"
        fill="#fff" />
    <path
        d="m64 103.25a11 11 0 0 1 -10.78-8.8 11.4 11.4 0 0 0 -.22 2.2 11 11 0 0 0 22 0 11.4 11.4 0 0 0 -.22-2.2 11 11 0 0 1 -10.78 8.8z"
        fill="#393c54" opacity=".1" />
    <path
        d="m72.78 101.1-8.78 4.64-8.78-4.64a.9.9 0 0 0 -1.22.7v8.4a.9.9 0 0 0 1.22.7l8.78-4.64 8.78 4.64a.9.9 0 0 0 1.22-.7v-8.4a.9.9 0 0 0 -1.22-.7z"
        fill="#fff" />
    <path
        d="m72.78 101.1-8.78 4.64-8.78-4.64a.9.9 0 0 0 -1.22.7v8.4a.9.9 0 0 0 1.22.7l8.78-4.64 8.78 4.64a.9.9 0 0 0 1.22-.7v-8.4a.9.9 0 0 0 -1.22-.7z"
        fill="#393c54" opacity=".1" />
    <circle cx="36.68" cy="64.43" fill="#fbc0aa" r="7.93" />
    <path
        d="m64 98.37a28.31 28.31 0 0 1 -28.32-28.32v-14.62a28.32 28.32 0 1 1 56.64 0v14.62a28.31 28.31 0 0 1 -28.32 28.32z"
        fill="#ffd8c9" />
    <path d="m60 94a7 7 0 0 1 8 0" fill="none" stroke="#fbc0aa" stroke-linecap="round"
        stroke-linejoin="round" stroke-width="2" />
    <path d="m71.55 80a1 1 0 0 1 .94 1.07 8.56 8.56 0 0 1 -17 0 1 1 0 0 1 .96-1.07z"
        fill="#393c54" />
    <path d="m64 92a4 4 0 0 1 -4-4v-11h8v11a4 4 0 0 1 -4 4z" fill="#f85565" />
    <path d="m51.25 82.26c0-5.67 5.68-10.26 12.67-10.26s12.67 4.59 12.67 10.26" fill="#fff" />
    <path d="m64 77a5 5 0 0 1 -5-5v-15h10v15a5 5 0 0 1 -5 5z" fill="#fbc0aa" />
    <circle cx="50" cy="62.51" fill="#393c54" r="3.15" />
    <path d="m56 45h16" fill="none" stroke="#fbc0aa" stroke-linecap="round" stroke-linejoin="round"
        stroke-width="2" />
    <ellipse cx="63.91" cy="24.95" fill="#fff" rx="18.28" ry="16.82" />
    <path
        d="m80.83 18.58c-.41 10.66-9.9 19.19-21.58 19.19a23.05 23.05 0 0 1 -9.25-1.94 18.9 18.9 0 0 0 13.93 5.94c10.07 0 18.26-7.53 18.26-16.77a15.72 15.72 0 0 0 -1.36-6.42z"
        fill="#356cb6" opacity=".1" />
    <circle cx="78" cy="62.51" fill="#393c54" r="3.15" />
    <path
        d="m87 53.77c-.4 1.69-10.86.65-12.55.25a3.15 3.15 0 1 1 1.46-6.12c1.67.4 11.47 4.18 11.09 5.87z"
        fill="#fff" />
    <path
        d="m41 53.77c.4 1.69 10.86.65 12.55.25a3.15 3.15 0 0 0 -1.46-6.12c-1.67.4-11.47 4.18-11.09 5.87z"
        fill="#fff" />
    <path d="m75 69h6" fill="none" stroke="#fbc0aa" stroke-linecap="round" stroke-linejoin="round"
        stroke-width="2" />
    <path d="m47 69h6" fill="none" stroke="#fbc0aa" stroke-linecap="round" stroke-linejoin="round"
        stroke-width="2" />
    <path
        d="m104 108.82-2.39-5.68c-1.71-4-6.22-6.64-11.29-6.64h-13.32l-.4 26.26a59.82 59.82 0 0 0 27.4-13.94z"
        fill="#393c54" />
    <path
        d="m23.59 108.82 2.41-5.68c1.71-4 6.23-6.64 11.29-6.64h13.3l.4 26.26a59.82 59.82 0 0 1 -27.4-13.94z"
        fill="#393c54" />
</svg>