<svg height="800" viewBox="0 0 128 128" width="800" xmlns="http://www.w3.org/2000/svg"><circle cx="64" cy="64" fill="#ff8475" r="60"/><circle cx="64" cy="64" fill="#f85565" opacity=".4" r="48"/><circle cx="64" cy="25" fill="#fff" r="14.92"/><circle cx="64" cy="25" fill="#356cb6" opacity=".1" r="14.92"/><path d="m64 19.4a30.33 30.33 0 0 1 30.33 30.33v4.46a20.46 20.46 0 0 1 -20.46 20.46h-19.74a20.46 20.46 0 0 1 -20.46-20.46v-4.46a30.33 30.33 0 0 1 30.33-30.33z" fill="#fff"/><circle cx="89" cy="65" fill="#fbc0aa" r="7"/><path d="m64 124a59.7 59.7 0 0 0 34.7-11.07l-3.33-10.29a10 10 0 0 0 -9.37-6.64h-43.95a10 10 0 0 0 -9.42 6.64l-3.33 10.29a59.7 59.7 0 0 0 34.7 11.07z" fill="#00adfe"/><path d="m46.54 121.41a60.15 60.15 0 0 0 34.92 0l-2.46-25.41h-30z" fill="#356cb6"/><g fill="#fff"><circle cx="56" cy="98" r="3"/><circle cx="57" cy="102" r="3"/><circle cx="72" cy="98" r="3"/><circle cx="71" cy="102" r="3"/><circle cx="60" cy="105" r="3"/><circle cx="64" cy="106" r="3"/><circle cx="68" cy="105" r="3"/></g><path d="m64 88v10" fill="none" stroke="#fbc0aa" stroke-linecap="round" stroke-linejoin="round" stroke-width="14"/><circle cx="39" cy="65" fill="#fbc0aa" r="7"/><path d="m64 95a25 25 0 0 1 -25-25v-16.48a25 25 0 1 1 50 0v16.48a25 25 0 0 1 -25 25z" fill="#ffd8c9"/><path d="m91.49 53.12v-1.72c0-14.95-11.71-27.61-26.66-28a27.51 27.51 0 0 0 -28.32 27.42v-.24a2 2 0 0 0 2 2h9.87a9.79 9.79 0 0 0 8.34-4.67c2 4.15 6.05 6 8.41 6.75a10 10 0 0 0 3 .46h21.32a2 2 0 0 0 2.04-2z" fill="#fff"/><path d="m91.49 53.12v-1.72c0-14.95-11.71-27.61-26.66-28a27.51 27.51 0 0 0 -28.32 27.42v-.24a2 2 0 0 0 2 2h9.87a9.79 9.79 0 0 0 8.34-4.67c2 4.15 6.05 6 8.41 6.75a10 10 0 0 0 3 .46h21.32a2 2 0 0 0 2.04-2z" fill="#356cb6" opacity=".1"/><path d="m63 43c2.52 5.22 6.39 6.09 9.6 6.09h12" fill="none" stroke="#fff" stroke-linecap="round" stroke-miterlimit="10" stroke-width="2"/><path d="m64 69.75v6.5" fill="none" stroke="#fbc0aa" stroke-linecap="round" stroke-linejoin="round" stroke-width="5"/><path d="m53.63 57h-9.25" style="fill:none;stroke-linecap:round;stroke-linejoin:round;stroke-width:2;stroke:#515570;opacity:.2"/><path d="m83.63 57h-9.25" style="fill:none;stroke-linecap:round;stroke-linejoin:round;stroke-width:2;stroke:#515570;opacity:.2"/><path d="m64 86c5 0 7-3 7-3h-14s2 3 7 3z" fill="#f85565"/><path d="m74 68h4" style="fill:none;stroke-linecap:round;stroke-linejoin:round;stroke:#515570;stroke-width:2.33;opacity:.7"/><path d="m50 68h4" style="fill:none;stroke-linecap:round;stroke-linejoin:round;stroke:#515570;stroke-width:2.33;opacity:.7"/><circle cx="52" cy="65" fill="#00adfe" opacity=".2" r="7"/><circle cx="52" cy="65" fill="none" r="7" stroke="#515570" stroke-linecap="round" stroke-linejoin="round" stroke-width="2.33"/><circle cx="76" cy="65" fill="#00adfe" opacity=".2" r="7"/><circle cx="76" cy="65" fill="none" r="7" stroke="#515570" stroke-linecap="round" stroke-linejoin="round" stroke-width="2.33"/><path d="m59 65h10" fill="none" stroke="#515570" stroke-linecap="round" stroke-linejoin="round" stroke-width="2.33"/><path d="m52 84 5-7" style="opacity:.1;fill:none;stroke-linecap:round;stroke-linejoin:round;stroke-width:2;stroke:#515570"/><path d="m75 84-5-7" style="opacity:.1;fill:none;stroke-linecap:round;stroke-linejoin:round;stroke-width:2;stroke:#515570"/></svg>