<svg height="800" viewBox="0 0 128 128" width="800" xmlns="http://www.w3.org/2000/svg">
    <circle cx="64" cy="64" fill="#ffd8c9" r="60" />
    <circle cx="64" cy="64" fill="#fff" opacity=".3" r="48" />
    <path
        d="m64 14a31 31 0 0 1 31 31v41.07a9.93 9.93 0 0 1 -9.93 9.93h-42.14a9.93 9.93 0 0 1 -9.93-9.93v-41.07a31 31 0 0 1 31-31z"
        fill="#393c54" />
    <circle cx="89" cy="60" fill="#fbc0aa" r="7" />
    <path
        d="m64 124a59.7 59.7 0 0 0 34.7-11.07l-3.33-10.29a10 10 0 0 0 -9.37-6.64h-43.95a10 10 0 0 0 -9.42 6.64l-3.33 10.29a59.7 59.7 0 0 0 34.7 11.07z"
        fill="#00adfe" />
    <path d="m46.54 121.45a59.93 59.93 0 0 0 34.92 0l-2.46-25.45h-30z" fill="#ff8475" />
    <path d="m48.13 105h31.74l-.39-4h-30.96z" fill="#f85565" />
    <path d="m76 96a12 12 0 0 1 -24 0z" fill="#ffd8c9" />
    <path d="m64 83v12" fill="none" stroke="#fbc0aa" stroke-linecap="round" stroke-linejoin="round"
        stroke-width="14" />
    <circle cx="39" cy="60" fill="#fbc0aa" r="7" />
    <path d="m64 90a25 25 0 0 1 -25-25v-16.48a25 25 0 1 1 50 0v16.48a25 25 0 0 1 -25 25z"
        fill="#ffd8c9" />
    <path d="m64 64.75v6.5" fill="none" stroke="#fbc0aa" stroke-linecap="round"
        stroke-linejoin="round" stroke-width="5" />
    <path
        d="m64.83 18.35a27.51 27.51 0 0 0 -28.32 27.47v4.76a2 2 0 0 0 2 2h.58a1 1 0 0 0 .86-.49l4.05-7.09 2.48 4.13a1 1 0 0 0 1.71 0l2.48-4.13 2.47 4.13a1 1 0 0 0 1.72 0l2.47-4.13 2.48 4.13a1 1 0 0 0 1.71 0l2.48-4.13 2.48 4.13a1 1 0 0 0 1.71 0l2.48-4.13 2.47 4.13a1 1 0 0 0 1.72 0l2.47-4.13 2.48 4.13a1 1 0 0 0 1.71 0l2.48-4.13 4 7.09a1 1 0 0 0 .86.49h.58a2 2 0 0 0 2-2v-4.18c.05-14.95-11.66-27.61-26.61-28.05z"
        fill="#515570" />
    <path d="m47.35 113h33.29l-.38-4h-32.52z" fill="#f85565" />
    <path d="m46.58 121h34.84l-.39-4h-34.06z" fill="#f85565" />
    <path d="m58.52 79.39c0-.84 11-.84 11 0 0 1.79-2.45 3.25-5.48 3.25s-5.52-1.46-5.52-3.25z"
        fill="#ff8475" opacity=".7" />
    <path d="m69.48 79.29c0 .78-11 .78-11 0 .04-1.79 2.52-3.29 5.52-3.29s5.48 1.5 5.48 3.29z"
        fill="#f85565" opacity=".7" />
    <circle cx="76.25" cy="58.75" fill="#515570" r="3" />
    <path d="m70.75 59.84a6.61 6.61 0 0 1 11.5-1.31" fill="none" stroke="#515570"
        stroke-linecap="round" stroke-linejoin="round" />
    <path style="fill:none;stroke-linecap:round;stroke-linejoin:round;stroke:#515570;stroke-width:2;opacity:.2"
        d="m72.11 51.46 5.68-.4a4.62 4.62 0 0 1 4.21 2.1l.77 1.21" />
    <circle cx="51.75" cy="58.75" fill="#515570" r="3" />
    <g fill="none" stroke-linecap="round">
        <path d="m57.25 59.84a6.61 6.61 0 0 0 -11.5-1.31" stroke="#515570"
            stroke-linejoin="round" />
        <path d="m55.89 51.45-5.68-.39a4.59 4.59 0 0 0 -4.21 2.11l-.77 1.21" opacity=".2"
            stroke="#515570" stroke-linejoin="round" stroke-width="2" />
        <path d="m57.25 78.76a17.4 17.4 0 0 0 6.75 1.12 17.4 17.4 0 0 0 6.75-1.12" stroke="#f85565"
            stroke-miterlimit="10" />
    </g>
</svg>