<svg height="800" viewBox="0 0 128 128" width="800" xmlns="http://www.w3.org/2000/svg"><circle cx="64" cy="64" fill="#f2bc0f" r="60"/><circle cx="64" cy="64" fill="#fff" opacity=".3" r="48"/><path d="m79.19 23.51v-11.09a4 4 0 0 0 -2.72-3.8 41.08 41.08 0 0 0 -12.47-1.94 41 41 0 0 0 -41 41v6a29.75 29.75 0 0 0 29.66 29.69h24.68a27.66 27.66 0 0 0 27.66-27.66v-8a40.89 40.89 0 0 0 -3.62-16.86 4 4 0 0 0 -3.65-2.33h-13.56a5 5 0 0 1 -4.98-5.01z" fill="#393c54"/><circle cx="91.32" cy="64.43" fill="#8f5653" r="7.93"/><path d="m64 124a59.77 59.77 0 0 0 39.83-15.14l-2.23-5.22c-1.71-4-6.22-6.64-11.29-6.64h-52.62c-5.07 0-9.58 2.66-11.29 6.64l-2.23 5.22a59.77 59.77 0 0 0 39.83 15.14z" fill="#393c54"/><path d="m77.43 99.73a13.43 13.43 0 0 1 -26.86 0c0-5 6-3.25 13.43-3.25s13.43-1.8 13.43 3.25z" fill="#a7aece"/><path d="m64 85.75v13.75" fill="none" stroke="#8f5653" stroke-linecap="round" stroke-miterlimit="10" stroke-width="20"/><circle cx="36.68" cy="64.43" fill="#8f5653" r="7.93"/><path d="m36 70.27v-17.73c0-13.67 9.69-25.69 23.19-27.94a28 28 0 0 1 32.81 27.6v18.41a28 28 0 0 1 -32.81 27.6c-13.5-2.21-23.19-14.21-23.19-27.94z" fill="#b56b63"/><path d="m74.69 53 9.62 1.75" style="fill:none;stroke-linecap:round;stroke:#515570;stroke-linejoin:round;stroke-width:2;opacity:.4"/><path d="m70.21 79a.79.79 0 0 1 .78.89c-.43 3.47-3.4 4.16-7 4.16s-6.56-.69-7-4.16a.79.79 0 0 1 .78-.89z" fill="#fff"/><path d="m75 80.4c-.07-5-6-5.08-11-5.08s-10.92.11-11 5.08v15.35a4 4 0 0 0 2.85 3.84 28.5 28.5 0 0 0 16.3 0 4 4 0 0 0 2.85-3.84zm-5 9h-2.22a1 1 0 0 1 -1-.75l-.62-2.49a1 1 0 0 0 -1-.76h-2.38a1 1 0 0 0 -1 .76l-.62 2.49a1 1 0 0 1 -1 .75h-2.16a2 2 0 0 1 -2-2v-4.91a2 2 0 0 1 2-2h12a2 2 0 0 1 2 2v4.91a2 2 0 0 1 -2 2z" fill="#393c54"/><path d="m53.31 53-9.62 1.75" style="fill:none;stroke-linecap:round;stroke:#515570;stroke-linejoin:round;stroke-width:2;opacity:.4"/><path d="m64 61v13" fill="none" stroke="#8f5653" stroke-linecap="round" stroke-miterlimit="10" stroke-width="5"/><path d="m37.61 24-5.54 5.8a5 5 0 0 0 .13 7.07l12.48-13a5 5 0 0 0 -7.07.13z" fill="#4bc190"/><g fill="none"><path d="m33.24 35.79 5.77 5.55" stroke="#4bc190" stroke-miterlimit="10" stroke-width="3"/><path d="m36.71 32.19 5.77 5.54" stroke="#4bc190" stroke-miterlimit="10" stroke-width="3"/><path d="m40.17 28.58 5.77 5.55" stroke="#4bc190" stroke-miterlimit="10" stroke-width="3"/><path d="m43.64 24.98 5.77 5.55" stroke="#4bc190" stroke-miterlimit="10" stroke-width="3"/><path d="m31.23 23.45 5.05 4.86z" stroke="#4bc190" stroke-linecap="round" stroke-linejoin="round" stroke-width="4"/><path d="m67 73h-6" stroke="#8f5653" stroke-linecap="round" stroke-miterlimit="10" stroke-width="5"/></g><path d="m33 57.41 3 4.87 3.48-11.6a11 11 0 0 1 10.52-7.82l38.15.1a47.5 47.5 0 0 0 3.74 18.44l.11.27 3-4.26-3.7-15a20 20 0 0 0 -8.79-12.18l-4-2.47a27 27 0 0 0 -25.95-1.49l-3.67 1.73a20.84 20.84 0 0 0 -11 12.91z" fill="#393c54"/><circle cx="77.67" cy="62.28" fill="#a7aece" r="7.5"/><path d="m77.67 54.78c-.22 0-.43 0-.64 0l-6.83 6.86v.64a7.42 7.42 0 0 0 1.12 3.93l10.28-10.31a7.42 7.42 0 0 0 -3.93-1.12z" fill="#fff" opacity=".3"/><path d="m74.22 68.93 10.1-10.1a7.66 7.66 0 0 0 -1.17-1.66l-10.58 10.59a7.37 7.37 0 0 0 1.65 1.17z" fill="#fff" opacity=".3"/><circle cx="77.67" cy="62.28" fill="none" r="7.5" stroke="#515570" stroke-linecap="round" stroke-linejoin="round" stroke-width="2.22"/><circle cx="50.67" cy="62.28" fill="#a7aece" r="7.5"/><path d="m50.67 54.78c-.22 0-.43 0-.64 0l-6.83 6.86v.64a7.42 7.42 0 0 0 1.12 3.93l10.28-10.31a7.42 7.42 0 0 0 -3.93-1.12z" fill="#fff" opacity=".3"/><path d="m47.22 68.93 10.1-10.1a7.66 7.66 0 0 0 -1.17-1.66l-10.58 10.59a7.37 7.37 0 0 0 1.65 1.17z" fill="#fff" opacity=".3"/><circle cx="50.67" cy="62.28" fill="none" r="7.5" stroke="#515570" stroke-linecap="round" stroke-linejoin="round" stroke-width="2.22"/><path d="m58.17 62.28h12" fill="none" stroke="#515570" stroke-linecap="round" stroke-linejoin="round" stroke-width="2.22"/></svg>