<svg height="800" viewBox="0 0 128 128" width="800" xmlns="http://www.w3.org/2000/svg"><circle cx="64" cy="64" fill="#ffd8c9" r="60"/><circle cx="64" cy="64" fill="#fff" opacity=".3" r="48"/><path d="m32.48 115.05h63c1.48-.92 2.93-1.89 4.33-2.93l-3-65.73a32.89 32.89 0 0 0 -32.81-32.89 32.89 32.89 0 0 0 -32.89 32.89l-3 65.73c1.44 1.04 2.89 2.01 4.37 2.93z" fill="#393c54"/><circle cx="89" cy="61" fill="#eaa78f" r="7"/><path d="m64 124a59.67 59.67 0 0 0 34.69-11.06l-3.32-9.3a10 10 0 0 0 -9.37-6.64h-43.95a10 10 0 0 0 -9.42 6.64l-3.32 9.3a59.67 59.67 0 0 0 34.69 11.06z" fill="#4bc190"/><path d="m82 98.5a14.91 14.91 0 0 0 -.08-1.5h-35.84a14.91 14.91 0 0 0 -.08 1.5 18 18 0 0 0 36 0z" fill="#356cb6" opacity=".3"/><path d="m77 98.5a14.74 14.74 0 0 0 -.09-1.5h-25.82a14.74 14.74 0 0 0 -.09 1.5 13 13 0 0 0 26 0z" fill="#f7bda4"/><path d="m64 84.75v13.75" fill="none" stroke="#eaa78f" stroke-linecap="round" stroke-linejoin="round" stroke-width="14"/><circle cx="39" cy="61" fill="#eaa78f" r="7"/><path d="m64 91a25 25 0 0 1 -25-25v-16.48a25 25 0 1 1 50 0v16.48a25 25 0 0 1 -25 25z" fill="#f7bda4"/><path d="m73 53 5.18-2.36a4.6 4.6 0 0 1 4.67.5l1.15.86" style="fill:none;stroke-linecap:round;stroke-linejoin:round;stroke:#515570;stroke-width:2;opacity:.5"/><path d="m55 53-5.18-2.36a4.6 4.6 0 0 0 -4.67.5l-1.15.86" style="fill:none;stroke-linecap:round;stroke-linejoin:round;stroke:#515570;stroke-width:2;opacity:.5"/><path d="m35 54.64v-4.5c0-15.78 12.35-29.14 28.12-29.6a29 29 0 0 1 29.88 28.99v5.11s-23.06-4.53-28-12.93a1.22 1.22 0 0 0 -2 0c-4.74 8.4-28 12.93-28 12.93z" fill="#393c54"/><path d="m64 63.75v4.5" fill="none" stroke="#eaa78f" stroke-linecap="round" stroke-linejoin="round" stroke-width="4"/><path d="m69.15 78.94c0 2-2.3 3.16-5.15 3.16s-5.15-1.52-5.15-3.16c0-2.84 2.48-3.94 5.15-3.15 2.58-.87 5.15.31 5.15 3.15z" fill="#f85565" opacity=".5"/><path d="m58 77.87a16.83 16.83 0 0 0 12 0" fill="none" stroke="#f85565" stroke-linecap="round" stroke-linejoin="round" stroke-width="2"/><g fill="#f8dc25"><path d="m85.43 73.83a4.57 4.57 0 1 1 9.14 0"/><circle cx="86.5" cy="76" r="1.17"/><circle cx="90" cy="76" r="1.17"/><circle cx="93.5" cy="76" r="1.17"/><path d="m33.43 73.83a4.57 4.57 0 0 1 9.14 0"/><circle cx="34.5" cy="76" r="1.17"/><circle cx="38" cy="76" r="1.17"/><circle cx="41.5" cy="76" r="1.17"/></g><circle cx="76.25" cy="60.28" fill="#393c54" r="3"/><path d="m70.75 61.37a6.61 6.61 0 0 1 11.5-1.31" fill="none" stroke="#393c54" stroke-linecap="round" stroke-linejoin="round"/><circle cx="51.75" cy="60.28" fill="#393c54" r="3"/><path d="m57.25 61.37a6.61 6.61 0 0 0 -11.5-1.31" fill="none" stroke="#393c54" stroke-linecap="round" stroke-linejoin="round"/><ellipse cx="51" cy="67" fill="#f85565" opacity=".2" rx="5.08" ry="3"/><ellipse cx="77" cy="67" fill="#f85565" opacity=".2" rx="5.08" ry="3"/><circle cx="64" cy="51" fill="#f85565" r="2.33"/><path d="m66.8 45.2a2.8 2.8 0 0 1 -5.6 0c0-1.55 1.25-5.2 2.8-5.2s2.8 3.65 2.8 5.2z" fill="#f8dc25"/><circle cx="64" cy="45" fill="#f2bc0f" r="1.5"/><path d="m86 97h-9l-25.72 25.63a59.88 59.88 0 0 0 47.41-9.69l-3.32-9.3a10 10 0 0 0 -9.37-6.64z" fill="#f85565"/><path d="m86 97h-9l-25.72 25.63a58.81 58.81 0 0 0 10 1.3l26.72-26.71a9.9 9.9 0 0 0 -2-.22z" fill="#ff8475"/><path d="m90.83 101.52-4 1.16a.51.51 0 0 0 -.22.86l2.84 2.84a.51.51 0 0 0 .85-.22l1.16-4a.51.51 0 0 0 -.63-.64z" fill="#ff8475"/><path d="m86.38 106-4 1.16a.51.51 0 0 0 -.22.85l2.84 2.82a.51.51 0 0 0 .86-.22l1.16-4a.51.51 0 0 0 -.64-.61z" fill="#ff8475"/><path d="m81.92 110.43-4 1.16a.51.51 0 0 0 -.22.86l2.84 2.84a.51.51 0 0 0 .85-.22l1.17-4a.52.52 0 0 0 -.64-.64z" fill="#ff8475"/><path d="m77.47 114.89-4 1.16a.51.51 0 0 0 -.22.85l2.84 2.84a.51.51 0 0 0 .86-.22l1.16-4a.51.51 0 0 0 -.64-.63z" fill="#ff8475"/><path d="m86 118.89 4-1.16a.51.51 0 0 0 .22-.85l-2.8-2.88a.51.51 0 0 0 -.85.22l-1.16 4a.5.5 0 0 0 .59.67z" fill="#ff8475"/><path d="m90.5 114.44 4-1.16a.52.52 0 0 0 .22-.86l-2.84-2.84a.52.52 0 0 0 -.86.22l-1.16 4a.52.52 0 0 0 .64.64z" fill="#ff8475"/><path d="m95.85 105a.5.5 0 0 0 -.37.36l-1.16 4a.5.5 0 0 0 .68.64l2.43-.7z" fill="#ff8475"/><path d="m64 16v22" style="fill:none;stroke-linecap:round;stroke-linejoin:round;stroke-width:2;stroke:#f8dc25;stroke-dasharray:.1 3"/><path d="m68 41s14 5 28 5" style="fill:none;stroke-linecap:round;stroke-linejoin:round;stroke-width:2;stroke:#f8dc25;stroke-dasharray:.1 3"/><path d="m60 41s-14 5-28 5" style="fill:none;stroke-linecap:round;stroke-linejoin:round;stroke-width:2;stroke:#f8dc25;stroke-dasharray:.1 3"/></svg>