<svg height="800" viewBox="0 0 128 128" width="800" xmlns="http://www.w3.org/2000/svg"><linearGradient id="a" gradientTransform="matrix(-1 0 0 1 67.62 0)" gradientUnits="userSpaceOnUse" x1="-28.47" x2="-28.47" y1="40.35" y2="94"><stop offset="0" stop-color="#fff"/><stop offset=".99" stop-color="#00adfe"/></linearGradient><linearGradient id="b" gradientUnits="userSpaceOnUse" x1="31.91" x2="31.91" y1="40.35" y2="94"><stop offset="0" stop-color="#fff"/><stop offset=".99" stop-color="#f85565"/></linearGradient><circle cx="64" cy="64" fill="#515570" r="60"/><circle cx="64" cy="64" fill="#6b718e" r="48"/><path d="m64 21a29.69 29.69 0 0 1 29.69 29.69v8.93a15.93 15.93 0 0 1 -15.93 15.93h-27.52a15.93 15.93 0 0 1 -15.93-15.93v-8.93a29.69 29.69 0 0 1 29.69-29.69z" fill="#fff"/><path d="m89.81 34c1.56 5 .46 41.91.82 53.58a6.62 6.62 0 0 0 6.62 6.42 6.62 6.62 0 0 0 6.62-6.59c.06-12.28 1.86-51.18-.62-59.09a10 10 0 0 0 -12.54-6.54c-5.27 1.66-2.56 6.95-.9 12.22z" fill="url(#a)"/><circle cx="89" cy="63" fill="#fbc0aa" r="7"/><path d="m38.19 34c-1.56 5-.46 41.91-.82 53.58a6.62 6.62 0 0 1 -6.62 6.42 6.62 6.62 0 0 1 -6.62-6.59c-.06-12.28-1.86-51.18.62-59.09a10 10 0 0 1 12.54-6.54c5.27 1.66 2.56 6.95.9 12.22z" fill="url(#b)"/><path d="m64 124.05a59.66 59.66 0 0 0 34.69-11l-3.32-9.36a10 10 0 0 0 -9.37-6.69h-43.95a10 10 0 0 0 -9.42 6.64l-3.32 9.36a59.66 59.66 0 0 0 34.69 11.05z" fill="#fff"/><path d="m86 97h-43.95a10 10 0 0 0 -8.2 4.29l9.25 12.5a3 3 0 0 0 2.41 1.21h37a3 3 0 0 0 2.41-1.21l9.25-12.5a10 10 0 0 0 -8.17-4.29z" fill="#f85565"/><path d="m50.5 98.19a13.5 13.5 0 0 0 27 0 10.74 10.74 0 0 0 -.07-1.19h-26.86a10.74 10.74 0 0 0 -.07 1.19z" fill="#ffd8c9"/><path d="m64 86.75v10.75" fill="none" stroke="#fbc0aa" stroke-linecap="round" stroke-linejoin="round" stroke-width="14"/><circle cx="39" cy="63" fill="#fbc0aa" r="7"/><path d="m64 93a25 25 0 0 1 -25-25v-16.48a25 25 0 1 1 50 0v16.48a25 25 0 0 1 -25 25z" fill="#ffd8c9"/><path d="m74.79 57.39a3.79 3.79 0 0 0 -3.79 4.17 3.89 3.89 0 0 0 4 3.44h4.58a6.63 6.63 0 0 1 6.63 6.64h2.79v-5.52a8.73 8.73 0 0 0 -8.72-8.73z" fill="#00adfe" opacity=".5"/><circle cx="75" cy="61" fill="#515570" r="2.5"/><g fill="none" stroke-linecap="round" stroke-linejoin="round"><path d="m64 65.75v4.5" stroke="#fbc0aa" stroke-width="5"/><path d="m72.39 55 8.61-1" opacity=".2" stroke="#515570" stroke-width="2"/><path d="m58 84v4" stroke="#f85565" stroke-width="2"/><path d="m57 81v4" stroke="#f85565" stroke-width="2"/></g><path d="m54.22 57.39a3.78 3.78 0 0 1 3.78 4.16 3.88 3.88 0 0 1 -3.94 3.45h-4.58a6.64 6.64 0 0 0 -6.64 6.64h-2.84v-5.52a8.73 8.73 0 0 1 8.73-8.73z" fill="#f85565" opacity=".5"/><circle cx="54.01" cy="61" fill="#515570" r="2.5"/><path d="m58.49 63.33a6.62 6.62 0 0 0 -10.72-4.39" fill="none" stroke="#515570" stroke-linecap="round" stroke-linejoin="round"/><path d="m32.5 86.75c3.87 0 9-3.13 9-7v-10.32c0-16 6.58-30.81 20.49-38.76l2-1.15 2 1.15c13.93 7.95 21.51 22.74 21.51 38.76v10.32c0 3.87 5.13 7 9 7" fill="none" stroke="#fff" stroke-linecap="round" stroke-linejoin="round" stroke-width="4"/><path d="m40 71.82v-2.39c0-15.29 7.82-24.9 20.61-32.65a7.56 7.56 0 0 1 3.89-1.11 7.56 7.56 0 0 1 3.89 1.11c12.79 7.75 20.61 17.36 20.61 32.65v1.48a15.87 15.87 0 0 0 4.69-11.29v-8.93a29.69 29.69 0 0 0 -29.69-29.69 29.69 29.69 0 0 0 -29.69 29.69v8.93a15.88 15.88 0 0 0 5.69 12.2z" fill="#fff"/><path d="m56 53s-1-2-5-2-5 2-5 2" style="fill:none;stroke-linecap:round;stroke-linejoin:round;stroke:#515570;stroke-width:2;opacity:.2"/><path d="m64 87.56a9.58 9.58 0 0 1 -9.49-8.37 2 2 0 0 1 1.94-2.19h15.1a2 2 0 0 1 1.94 2.19 9.58 9.58 0 0 1 -9.49 8.37z" fill="#f85565"/><path d="m71.1 78.25a.89.89 0 0 1 .89 1 8.05 8.05 0 0 1 -16 0 .89.89 0 0 1 .89-1z" fill="#393c54"/><path d="m56 79.26a6.08 6.08 0 0 0 .16.87h15.67a6.21 6.21 0 0 0 .16-.86.89.89 0 0 0 -.89-1h-14.2a.89.89 0 0 0 -.9.99z" fill="#fff"/><path d="m70.52 63.33a6.62 6.62 0 0 1 10.72-4.39" fill="none" stroke="#515570" stroke-linecap="round" stroke-linejoin="round"/><path d="m56 94h16v6h-16z" fill="#393c54"/><path d="m88.83 34.74.79-2.74-2-8-4.37 5.17z" fill="#356cb6"/><path d="m38.79 34.74-.79-2.74 2-8 4.37 5.17z" fill="#f85565"/></svg>