<svg height="800" viewBox="0 0 128 128" width="800" xmlns="http://www.w3.org/2000/svg"><circle cx="64" cy="64" fill="#a7aece" r="60"/><circle cx="64" cy="64" fill="#fff" opacity=".3" r="48"/><path d="m40 22a10 10 0 0 0 -10 10v81.43a59.62 59.62 0 0 0 20 8.91v-90.34a10 10 0 0 0 -10-10z" fill="#7f3838"/><path d="m107.85 85.85c0-14.49-9.1-25-21.9-28.94l2-3.31a.59.59 0 0 0 -.58-.9l-6 .82a.59.59 0 0 1 -.54-1l2.66-3.2a.59.59 0 0 0 -.54-1 100 100 0 0 0 -21.07 5.4 35 35 0 0 0 -21.73 32.13v3.22c0 15.48-1.65 21.18-6.36 26.76a59.94 59.94 0 0 0 72-8.77v-.16a94.24 94.24 0 0 0 2.06-21.05z" fill="#bc5b57"/><path d="m88.74 93.46a6.31 6.31 0 0 1 -5-7.63 6.55 6.55 0 0 1 7.58-4.72l5.91 1a.8.8 0 0 0 .77-1.11c-3.89-7-13.76-12.64-24-12.64s-20.12 5.64-24 12.64a.8.8 0 0 0 .83 1.18l5.91-1a6.55 6.55 0 0 1 7.58 4.72 6.31 6.31 0 0 1 -5.05 7.63l-8.18 1.37a.8.8 0 0 0 -.53 1.23c3.23 5 10.2 8.42 23.44 8.42s20.21-3.38 23.44-8.42a.8.8 0 0 0 -.53-1.23z" fill="#ffd8c9"/><path d="m81.89 92.19a9 9 0 0 1 -2.77 2.21 11.61 11.61 0 0 1 -10.24 0" fill="none" stroke="#393c54" stroke-linecap="round" stroke-linejoin="round" stroke-width="3"/><g fill="#393c54"><path d="m79.12 86.62c0 2.83-2.29 4.25-5.12 4.25s-5.12-1.42-5.12-4.25c0-1.62 10.24-1.87 10.24 0z"/><path d="m57.33 87.48 3.05-.73a.71.71 0 0 1 .89.68 4 4 0 0 1 -4.28 4 3.9 3.9 0 0 1 -3-1.84 3.94 3.94 0 0 1 5.53-5.37.73.73 0 0 1 .08 1.11z"/><path d="m90.4 87.48 3-.73a.72.72 0 0 1 .89.68 4 4 0 0 1 -4.29 4 3.88 3.88 0 0 1 -3-1.84 3.94 3.94 0 0 1 5.52-5.37.72.72 0 0 1 .09 1.11z"/><path d="m92 29h-76.72a59.76 59.76 0 0 0 -8.19 16h84.91a8 8 0 0 0 0-16z"/></g><circle cx="92" cy="37" fill="#515570" r="8"/><circle cx="92" cy="37" r="4.31" style="fill:none;stroke-linecap:round;stroke:#fff;stroke-miterlimit:10;stroke-width:2;opacity:.1"/><path d="m13 42 7.5 7.5" fill="none" stroke="#393c54" stroke-linecap="round" stroke-linejoin="round" stroke-width="6"/><path d="m66 32.1 8.38-8.38" fill="none" stroke="#393c54" stroke-linecap="round" stroke-linejoin="round" stroke-width="6"/></svg>