<svg height="800" viewBox="0 0 128 128" width="800" xmlns="http://www.w3.org/2000/svg"><circle cx="64" cy="64" fill="#4bc190" r="60"/><circle cx="64" cy="64" fill="#356cb6" opacity=".3" r="48"/><path d="m31.08 61.57v-15.65a32.92 32.92 0 0 1 65.84 0v15.65z" fill="#393c54"/><circle cx="91.32" cy="60.43" fill="#fba875" r="7.93"/><path d="m64 124.1a59.78 59.78 0 0 0 40-15.28l-2.39-5.68c-1.71-4-6.22-6.64-11.29-6.64h-52.63c-5.07 0-9.58 2.66-11.29 6.64l-2.4 5.68a59.78 59.78 0 0 0 40 15.28z" fill="#fff"/><path d="m81.72 98.25a3.06 3.06 0 0 0 -3.08-2.88h-29.28a3.07 3.07 0 0 0 -3.08 2.93v.32c-.17 7.32 10.52 16.64 10.52 16.64l7.2-7.21 7.17 7.17s10.56-9 10.56-16.22c0-.26 0-.51-.01-.75z" fill="#fff"/><path d="m64 84.75v13.75" fill="none" stroke="#fba875" stroke-linecap="round" stroke-miterlimit="10" stroke-width="20"/><circle cx="36.68" cy="60.43" fill="#fba875" r="7.93"/><path d="m64 94.37a28.31 28.31 0 0 1 -28.32-28.32v-18.62a28.32 28.32 0 1 1 56.64 0v18.62a28.31 28.31 0 0 1 -28.32 28.32z" fill="#ffbb94"/><circle cx="76.67" cy="59.28" fill="#393c54" r="3"/><circle cx="49.67" cy="59.28" fill="#393c54" r="3"/><path d="m74.39 53 9.61-.25" style="fill:none;stroke-linecap:round;stroke:#515570;stroke-linejoin:round;stroke-width:2;opacity:.4"/><path d="m53 53-9.61-.25" style="fill:none;stroke-linecap:round;stroke:#515570;stroke-linejoin:round;stroke-width:2;opacity:.4"/><path d="m71.55 74a1 1 0 0 1 .94 1.07 8.56 8.56 0 0 1 -17 0 1 1 0 0 1 .96-1.07z" fill="#393c54"/><g fill="none" stroke-linecap="round"><path d="m60 86h8" opacity=".4" stroke="#515570" stroke-linejoin="round" stroke-width="2"/><path d="m63.35 60.75v6.5" stroke="#fba875" stroke-miterlimit="10" stroke-width="4"/><path d="m66 68h-5" stroke="#fba875" stroke-miterlimit="10" stroke-width="4"/></g><path d="m59 80.91a8.52 8.52 0 0 0 10.08 0 5.79 5.79 0 0 0 -10.08 0z" fill="#f85565"/><path d="m69 76h-10a1.84 1.84 0 0 1 -1.73-2h13.5a1.84 1.84 0 0 1 -1.77 2z" fill="#fff"/><path d="m64 16.85a30 30 0 0 0 -30 30v6.15a4 4 0 0 0 4-4v-7.44a4.18 4.18 0 0 1 4.18-4.18h7.36a20.61 20.61 0 0 0 14.46 5.39 20.61 20.61 0 0 0 14.41-5.39h7.36a4.18 4.18 0 0 1 4.23 4.18v7.35a4 4 0 0 0 4 4v-6.07a30 30 0 0 0 -30-29.99z" fill="#515570"/><path d="m60.16 123.86c1.27.08 2.55.14 3.84.14s2.57-.06 3.84-.14l-.84-8.86h-6z" fill="#393c54"/><path d="m52.19 31.87a16.93 16.93 0 0 0 11.81 4.42 16.93 16.93 0 0 0 11.81-4.42h7.58" style="fill:none;stroke-linecap:round;stroke-miterlimit:10;stroke:#fff;stroke-width:3.28;opacity:.1"/><path d="m64.58 117.22h-1.32a4.58 4.58 0 0 1 -4.58-4.58v-4.64h10.49v4.64a4.58 4.58 0 0 1 -4.59 4.58z" fill="#515570"/><path d="m64 108 10.17-12.62h4.47l-7.47 19.84z" fill="#fff"/><path d="m64 108-10.17-12.62h-4.47l7.47 19.84z" fill="#fff"/><path d="m81.72 98.25a3.06 3.06 0 0 0 -3.08-2.88h-4.47l-10.17 12.63-10.17-12.63h-4.47a3.06 3.06 0 0 0 -3.08 2.92v.32c-.17 7.32 10.52 16.64 10.52 16.64l7.2-7.2 7.17 7.17s10.56-9 10.56-16.22c0-.26 0-.51-.01-.75z" fill="#356cb6" opacity=".1"/></svg>