<svg height="800" viewBox="0 0 128 128" width="800" xmlns="http://www.w3.org/2000/svg">
    <circle cx="64" cy="64" fill="#a7aece" r="60" />
    <circle cx="64" cy="64" fill="#515570" opacity=".2" r="48" />
    <path d="m31 101.76v-54a33 33 0 0 1 66 0v54c0 18.34-66 18.34-66 0z" fill="#515570" />
    <path
        d="m64 124a59.77 59.77 0 0 0 39.83-15.14l-2.23-5.22c-1.71-4-6.22-6.64-11.29-6.64h-52.62c-5.07 0-9.58 2.66-11.29 6.64l-2.23 5.22a59.77 59.77 0 0 0 39.83 15.14z"
        fill="#393c54" />
    <path d="m77.43 98.73a13.43 13.43 0 0 1 -26.86 0c0-5 6-3.25 13.43-3.25s13.43-1.8 13.43 3.25z"
        fill="#393c54" />
    <path d="m78.43 98.73c0 7.42-7 13.43-14.43 13.43s-14.43-6-14.43-13.43" fill="none"
        stroke="#393c54" stroke-linecap="round" stroke-miterlimit="10" stroke-width="2" />
    <path d="m64 89.75v8.75" fill="none" stroke="#efb19e" stroke-linecap="round"
        stroke-linejoin="round" stroke-width="20" />
    <path d="m54 95.26 8.68 8a2 2 0 0 0 2.7 0l8.68-8 4.4 14.53-17.26 6.88-12.34-6.84-3.16-4.39z"
        fill="#393c54" />
    <path d="m76.78 96.5-11.61 17.38" fill="none" stroke="#515570" stroke-linecap="round"
        stroke-linejoin="round" stroke-width="2" />
    <path d="m51.17 96.5 11.61 17.38" fill="none" stroke="#515570" stroke-linecap="round"
        stroke-linejoin="round" stroke-width="2" />
    <path
        d="m64 94.37c-10 0-28.32-12.67-28.32-28.32v-18.62a28.32 28.32 0 1 1 56.64 0v18.62c0 15.65-18.32 28.32-28.32 28.32z"
        fill="#ffd8c9" />
    <path d="m67.5 113.88h-2.33v-2.34h-2.34v2.34h-2.33v2.33h2.33v5.25h2.34v-5.25h2.33z" fill="none"
        stroke="#fff" stroke-linecap="round" stroke-linejoin="round" stroke-width="1.5" />
    <path
        d="m94.72 102.72s-.06-37-.06-55.29c0-19.69-15.62-30.32-30.32-30.32a1.86 1.86 0 0 0 -.34 0 1.86 1.86 0 0 0 -.34 0c-14.7 0-30.32 10.63-30.32 30.32 0 18.25-.31 55.29-.31 55.29l4 8.53a1.56 1.56 0 0 0 3-.7v-56.55c0-7.19 4.6-14.06 11.47-17.5l12.5-6.25 12.53 6.27c6.87 3.48 11.47 10.32 11.47 17.48v56.28a1.56 1.56 0 0 0 3 .67z"
        fill="#515570" />
    <path d="m68 69.21c0 3.4-1.79 6.16-4 6.16s-4-2.76-4-6.16 1.79-8.7 4-8.7 4 5.29 4 8.7z"
        fill="#fbc0aa" />
    <circle cx="75.5" cy="62.05" fill="#8f5653" opacity=".7" r="8" />
    <circle cx="75.5" cy="62.05" fill="none" r="8" stroke="#515570" stroke-linecap="round"
        stroke-linejoin="round" stroke-width="2.22" />
    <circle cx="52.5" cy="62.05" fill="#8f5653" opacity=".7" r="8" />
    <circle cx="52.5" cy="62.05" fill="none" r="8" stroke="#515570" stroke-linecap="round"
        stroke-linejoin="round" stroke-width="2.22" />
    <path d="m72 79h-16v13.43a20.94 20.94 0 0 0 8 1.94 20.94 20.94 0 0 0 8-1.94z" fill="#f85565" />
    <path d="m71.55 78a1 1 0 0 1 .94 1.07 8.56 8.56 0 0 1 -17 0 1 1 0 0 1 .96-1.07z"
        fill="#393c54" />
    <path d="m58 78h2a0 0 0 0 1 0 0v2a1 1 0 0 1 -1 1 1 1 0 0 1 -1-1v-2a0 0 0 0 1 0 0z"
        fill="#fff" />
    <path d="m70 78h-2v4a1 1 0 0 0 1 1 1 1 0 0 0 1-1z" fill="#f85565" />
    <path d="m68 78h2a0 0 0 0 1 0 0v2a1 1 0 0 1 -1 1 1 1 0 0 1 -1-1v-2a0 0 0 0 1 0 0z"
        fill="#fff" />
    <g fill="none" stroke="#515570" stroke-linecap="round" stroke-linejoin="round">
        <path d="m68 59h-8" stroke-width="2.22" />
        <path d="m74 77-4-4" opacity=".1" stroke-width="2" />
        <path d="m54 77 4-4" opacity=".1" stroke-width="2" />
        <path d="m70.48 52.63a5 5 0 0 1 4.11-3.45l6.93-1" opacity=".5" stroke-width="2" />
        <path d="m57.52 52.63a5 5 0 0 0 -4.11-3.45l-6.93-1" opacity=".5" stroke-width="2" />
        <path d="m40 43v30a4 4 0 0 0 4 4" stroke-width="4" />
    </g>
</svg>