<svg height="800" viewBox="0 0 128 128" width="800" xmlns="http://www.w3.org/2000/svg"><circle cx="64" cy="64" fill="#f85565" r="60"/><circle cx="64" cy="64" fill="#fff" opacity=".2" r="48"/><path d="m34 77.5v-26.64c0-16.38 12.84-30.25 29.21-30.67a30.07 30.07 0 0 1 30.79 30.15v27.16a5.5 5.5 0 0 1 -5.5 5.5h-49a5.5 5.5 0 0 1 -5.5-5.5z" fill="#f2bc0f"/><path d="m34 50.46v7.54h60v-8.12a8.89 8.89 0 0 0 -8.89-8.88h-42.11a9 9 0 0 0 -9 8.77z" fill="#fff" opacity=".5"/><circle cx="88.5" cy="63.5" fill="#fba875" r="7.5"/><path d="m64 124.1a59.78 59.78 0 0 0 40-15.28l-2.39-5.68c-1.71-4-6.22-6.64-11.29-6.64h-52.63c-5.07 0-9.58 2.66-11.29 6.64l-2.4 5.68a59.78 59.78 0 0 0 40 15.28z" fill="#fff"/><path d="m47 96.5h-9.31c-5.07 0-9.58 2.66-11.29 6.64l-2.4 5.68a59.84 59.84 0 0 0 33.07 14.87z" fill="#356cb6"/><path d="m46.98 96.5 9.7 26.67-15.8-15.17 5.39-2.68-8.58-8.82z" fill="#393c54" opacity=".5"/><path d="m81.11 96.5h9.29c5.06 0 9.58 2.66 11.29 6.64l2.39 5.68a59.84 59.84 0 0 1 -33.08 14.87z" fill="#356cb6"/><path d="m81.11 96.5-9.7 26.67 15.79-15.17-5.38-2.68 8.58-8.82z" fill="#393c54" opacity=".5"/><path d="m81.72 98.25a3.06 3.06 0 0 0 -3.08-2.88h-29.28a3.07 3.07 0 0 0 -3.08 2.93v.32l10.52 16.64 7.2-7.21 7.17 7.17s10.56-16.73 10.56-16.22c0 .26 0-.51-.01-.75z" fill="#fff"/><path d="m64 86v12" fill="none" stroke="#fba875" stroke-linecap="round" stroke-miterlimit="10" stroke-width="20"/><circle cx="63.5" cy="86.5" fill="#ffbb94" r="9.5"/><circle cx="38.5" cy="63.5" fill="#fba875" r="7.5"/><path d="m38 73.68v-22.07c0-13.22 9.7-24.7 22.82-26.25a26 26 0 0 1 29.18 25.76v22.56a18.32 18.32 0 0 1 -18.32 18.32h-15.36a18.32 18.32 0 0 1 -18.32-18.32z" fill="#ffbb94"/><path d="m60.19 84.14a6.43 6.43 0 0 1 7.33 0" style="fill:none;stroke-linecap:round;stroke:#515570;stroke-linejoin:round;stroke-width:2;opacity:.4"/><path d="m64 71a3 3 0 0 1 -3-3v-18h6v18a3 3 0 0 1 -3 3z" fill="#fba875"/><path d="m70.65 86.31a6.87 6.87 0 0 1 -13.74 0" style="fill:none;stroke-linecap:round;stroke:#515570;stroke-linejoin:round;stroke-width:2;opacity:.1"/><path d="m60.16 123.86c1.27.08 2.55.14 3.84.14s2.57-.06 3.84-.14l-.84-8.86h-6z" fill="#f85565"/><path d="m64.58 117.22h-1.32a4.58 4.58 0 0 1 -4.58-4.58v-4.64h10.49v4.64a4.58 4.58 0 0 1 -4.59 4.58z" fill="#ff8475"/><path d="m64 108 10.17-12.62h4.47l-7.47 19.84z" fill="#fff"/><path d="m64 108-10.17-12.62h-4.47l7.47 19.84z" fill="#fff"/><path d="m81.72 98.25a3.06 3.06 0 0 0 -3.08-2.88h-4.47l-10.17 12.63-10.17-12.63h-4.47a3.06 3.06 0 0 0 -3.08 2.92v.32l10.52 16.64 7.2-7.2 7.17 7.17 10.56-16.22c0-.26 0-.51-.01-.75z" fill="#356cb6" opacity=".1"/><circle cx="50.5" cy="58.5" fill="#fff" r="5.5"/><circle cx="51" cy="59" fill="#393c54" r="3"/><path d="m30 25h40.9a16.86 16.86 0 0 1 16.87 16.86 8.14 8.14 0 0 1 -8.14 8.14h-25.85a23.78 23.78 0 0 1 -23.78-23.78z" fill="#f8dc25"/><path d="m80.5 44.5h-26a18.42 18.42 0 0 1 -5.23-.75 18.2 18.2 0 0 1 -12.77-17.57v-2.68" fill="none" stroke="#f2bc0f" stroke-linecap="round" stroke-linejoin="round" stroke-width="3"/><path d="m76.5 38.5h-22.24a12.92 12.92 0 0 1 -8.56-3.21" fill="none" stroke="#f2bc0f" stroke-linecap="round" stroke-linejoin="round" stroke-width="3"/><circle cx="77.5" cy="58.5" fill="#fff" r="5.5"/><path d="m56 58.5a5.5 5.5 0 0 1 -11 0" fill="#fba875"/><circle cx="77" cy="59" fill="#393c54" r="3"/><path d="m83 58.5a5.5 5.5 0 0 1 -11 0" fill="#fba875"/><path d="m85.8 52h-14.17l-1 4h13.17z" fill="#f8dc25"/><path d="m42.23 52h14.17l1 4h-13.17z" fill="#f8dc25"/><g fill="none" stroke-linecap="round" stroke-linejoin="round" stroke-width="2"><path d="m57.23 66.73-1 2.71a3.54 3.54 0 0 1 -3.32 2.33 3.52 3.52 0 0 0 -3.38 2.5l-1.07 3.52" opacity=".1" stroke="#515570"/><path d="m70.47 66.73 1 2.71a3.52 3.52 0 0 0 3.31 2.33 3.52 3.52 0 0 1 3.38 2.5l1.07 3.52" opacity=".1" stroke="#515570"/><path d="m85 59h2" opacity=".1" stroke="#515570"/><path d="m85.17 61.75 2.2.91" opacity=".1" stroke="#515570"/><path d="m42 59h-2" opacity=".1" stroke="#515570"/><path d="m42.47 61.75-2.2.91" opacity=".1" stroke="#515570"/><path d="m72 80.68-2-2.68h-12l-2 2.68" stroke="#ff8475"/></g></svg>