<svg height="800" viewBox="0 0 128 128" width="800" xmlns="http://www.w3.org/2000/svg"><circle cx="64" cy="64" fill="#515570" r="60"/><circle cx="64" cy="64" fill="#6b718e" r="48"/><path d="m34 77.58v28.42s24.54 3.6 30 3.6 30-3.6 30-3.6v-28.42c2.55-4.77-62.55-4.77-60 0z" fill="#fff"/><path d="m30 61.6a33.77 33.77 0 0 0 4 16v28.4s24.54 3.6 30 3.6 30-3.6 30-3.6v-28.42a33.77 33.77 0 0 0 4-16z" fill="#393c54" opacity=".2"/><path d="m64 125.1a59.73 59.73 0 0 0 39.8-15.1l-2.2-5.41c-1.71-4-6.22-6.64-11.29-6.64h-52.62c-5.07 0-9.58 2.66-11.29 6.64l-2.2 5.41a59.73 59.73 0 0 0 39.8 15.1z" fill="#fff"/><path d="m74 100.95h-20l-.78-5.48h21.56z" fill="#a7aece"/><path d="m64 85.7v13.75" fill="none" stroke="#fba875" stroke-linecap="round" stroke-miterlimit="10" stroke-width="18"/><path d="m64 125.05h1v-18.05a1 1 0 1 0 -2 0v18z" fill="#a7aece"/><path d="m64 95.32a28.31 28.31 0 0 1 -28.32-28.32v-12.62a28.32 28.32 0 1 1 56.64 0v12.62a28.31 28.31 0 0 1 -28.32 28.32z" fill="#ffbb94"/><path d="m74.39 51.95 9.61 1.75" style="fill:none;stroke-linecap:round;stroke:#515570;stroke-linejoin:round;stroke-width:2;opacity:.4"/><path d="m53 51.95-9.61 1.75" style="fill:none;stroke-linecap:round;stroke:#515570;stroke-linejoin:round;stroke-width:2;opacity:.4"/><path d="m64 104.25a11 11 0 0 1 -10.78-8.8 11.4 11.4 0 0 0 -.22 2.2 11 11 0 0 0 22 0 11.4 11.4 0 0 0 -.22-2.2 11 11 0 0 1 -10.78 8.8z" fill="#fff"/><path d="m64 104.25a11 11 0 0 1 -10.78-8.8 11.4 11.4 0 0 0 -.22 2.2 11 11 0 0 0 22 0 11.4 11.4 0 0 0 -.22-2.2 11 11 0 0 1 -10.78 8.8z" fill="#393c54" opacity=".1"/><path d="m67.54 81a9 9 0 0 0 -7.32.11" fill="none" stroke="#f85565" stroke-linecap="round" stroke-linejoin="round" stroke-width="2"/><circle cx="78" cy="60.23" fill="#393c54" r="3"/><circle cx="50" cy="60.23" fill="#393c54" r="3"/><path d="m64 61.7v8.5" fill="none" stroke="#fba875" stroke-linecap="round" stroke-miterlimit="10" stroke-width="6"/><circle cx="68" cy="113.95" fill="#515570" r="1.5"/><circle cx="68" cy="120.95" fill="#515570" r="1.5"/><path d="m75 78c-.07-5-6-5.08-11-5.08s-10.92.08-11 5.08v16.16a28.48 28.48 0 0 0 22 0zm-5 9h-2.22a1 1 0 0 1 -1-.76l-.62-2.48a1 1 0 0 0 -1-.76h-2.38a1 1 0 0 0 -1 .76l-.62 2.48a1 1 0 0 1 -1 .76h-2.16a2 2 0 0 1 -2-2v-4.92a2 2 0 0 1 2-2h12a2 2 0 0 1 2 2v4.92a2 2 0 0 1 -2 2z" fill="#393c54"/><path d="m37.69 98a12.7 12.7 0 0 0 -10.08 4.59l11.94 6a1 1 0 0 0 1.45-.89v-9.7z" fill="#356cb6" opacity=".1"/><path d="m32 43-4.76 54.29a4 4 0 0 0 2.19 3.93l8.12 4.06a1 1 0 0 0 1.45-.9v-57.88z" fill="#fff"/><path d="m90.31 98h-5.31v9.67a1 1 0 0 0 1.45.89l13.35-6.67a13 13 0 0 0 -9.49-3.89z" fill="#356cb6" opacity=".1"/><path d="m96 43 4.76 54.29a4 4 0 0 1 -2.19 3.93l-8.12 4.06a1 1 0 0 1 -1.45-.9v-57.88z" fill="#fff"/><path d="m95 48a31 31 0 0 0 -62 0v4a181.28 181.28 0 0 1 62 0z" fill="#fff"/><circle cx="43.5" cy="64.5" fill="#515570" opacity=".4" r="1.5"/><path d="m94.69 34.18a252.1 252.1 0 0 0 -61.38 0 2.88 2.88 0 0 0 -2.52 2.54l-.79 6.91a2.86 2.86 0 0 0 3.29 3.14 207.69 207.69 0 0 1 61.38 0 2.86 2.86 0 0 0 3.33-3.14l-.77-6.91a2.88 2.88 0 0 0 -2.54-2.54z" fill="#393c54"/></svg>