<svg height="800" viewBox="0 0 128 128" width="800" xmlns="http://www.w3.org/2000/svg">
    <circle cx="64" cy="64" fill="#a7aece" r="60" />
    <circle cx="64" cy="64" fill="#515570" opacity=".2" r="48" />
    <path
        d="m64 124a59.67 59.67 0 0 0 34.69-11.06l-3.32-9.3a10 10 0 0 0 -9.37-6.64h-43.95a10 10 0 0 0 -9.42 6.64l-3.32 9.3a59.67 59.67 0 0 0 34.69 11.06z"
        fill="#515570" />
    <path d="m64 84.75v13.75" fill="none" stroke="#fbc0aa" stroke-linecap="round"
        stroke-linejoin="round" stroke-width="14" />
    <path
        d="m64 124a59.77 59.77 0 0 0 41.6-16.79c-2.28-7.34-7.31-21-7.31-24.28v-34.61a34.32 34.32 0 0 0 -34.29-34.32 34.31 34.31 0 0 0 -34.35 34.32v34.61c0 3.39-4.62 17.82-6.54 25a59.78 59.78 0 0 0 40.89 16.07z"
        fill="#393c54" />
    <path d="m64 91a25 25 0 0 1 -25-25v-16.48a25 25 0 1 1 50 0v16.48a25 25 0 0 1 -25 25z"
        fill="#ffd8c9" />
    <path d="m35.67 49.19a28.33 28.33 0 0 1 56.66 0l-.33 2.29-56 .27z" fill="#393c54" />
    <path style="fill:none;stroke-linecap:round;stroke:#fff;stroke-miterlimit:10;stroke-width:4;opacity:.1"
        d="m44.22 38.85a21.67 21.67 0 0 1 19.13-13.51" />
    <circle cx="76" cy="58.28" fill="#515570" r="3" />
    <circle cx="52" cy="58.28" fill="#515570" r="3" />
    <path d="m64 63.75v4.5" fill="none" stroke="#fbc0aa" stroke-linecap="round"
        stroke-linejoin="round" stroke-width="5" />
    <path
        d="m69.15 78.94c0 2-2.3 3.16-5.15 3.16s-5.15-1.52-5.15-3.16c0-2.84 2.48-3.94 5.15-3.15 2.58-.87 5.15.31 5.15 3.15z"
        fill="#f85565" opacity=".5" />
    <path d="m58 77.87a16.83 16.83 0 0 0 12 0" fill="none" stroke="#f85565" stroke-linecap="round"
        stroke-linejoin="round" stroke-width="2" />
    <path
        d="m86.42 48.48a118.24 118.24 0 0 0 -44.84 0 3.21 3.21 0 0 0 -2.58 3.16v3.36a105.67 105.67 0 0 1 50 0v-3.36a3.21 3.21 0 0 0 -2.58-3.16z"
        fill="#515570" />
    <path
        d="m92.36 65.68a28.34 28.34 0 1 1 -56.67 0s19.19-1.29 26.16-3.83a6.23 6.23 0 0 1 4.3 0c6.98 2.54 26.21 3.83 26.21 3.83z"
        fill="#393c54" />
    <path style="fill:none;stroke-linecap:round;stroke:#fff;stroke-miterlimit:10;stroke-width:2;opacity:.7"
        d="m35.69 116.89v-67.7a28.33 28.33 0 0 1 56.66 0v67.67" />
</svg>