<svg height="800" viewBox="0 0 128 128" width="800" xmlns="http://www.w3.org/2000/svg"><circle cx="64" cy="64" fill="#f2bc0f" r="60"/><circle cx="64" cy="64" fill="#fff" opacity=".3" r="48"/><path d="m64 14.88a32 32 0 0 1 32 32v42.71a21.59 21.59 0 0 1 -21.59 21.59h-20.82a21.59 21.59 0 0 1 -21.59-21.59v-42.71a32 32 0 0 1 32-32z" fill="#393c54"/><circle cx="88" cy="60" fill="#fbc0aa" r="7"/><path d="m64 124a59.69 59.69 0 0 0 32.55-9.61l-3.18-10.75a10 10 0 0 0 -9.37-6.64h-39.95a10 10 0 0 0 -9.42 6.64l-3.18 10.75a59.69 59.69 0 0 0 32.55 9.61z" fill="#393c54"/><path d="m64 88.75v7.75" fill="none" stroke="#fba875" stroke-linecap="round" stroke-miterlimit="10" stroke-width="14"/><path d="m71 90v-4h-14v4a7 7 0 0 1 -7 7v8h28v-8a7 7 0 0 1 -7-7z" fill="#fff"/><circle cx="40" cy="60" fill="#fbc0aa" r="7"/><path d="m64 90a25 25 0 0 1 -25-25v-17.48a25 25 0 1 1 50 0v17.48a25 25 0 0 1 -25 25z" fill="#ffd8c9"/><path d="m37 46a27 27 0 0 1 54 0z" fill="#393c54"/><path d="m45.49 33.07a21 21 0 0 1 18.51-11.07" style="fill:none;stroke-linecap:round;stroke-miterlimit:10;stroke:#fff;stroke-width:4;opacity:.1"/><circle cx="76" cy="58.28" fill="#515570" r="3"/><path d="m70.5 59.37a6.61 6.61 0 0 1 11.5-1.31" fill="none" stroke="#515570" stroke-linecap="round" stroke-linejoin="round"/><path d="m63.51 59.28-2.19 10.24a1 1 0 0 0 .68 1.18 6.62 6.62 0 0 0 3.94 0 1 1 0 0 0 .71-1.18l-2.16-10.25a.5.5 0 0 0 -.98.01z" fill="#fbc0aa"/><ellipse cx="51" cy="66.54" fill="#f85565" opacity=".2" rx="5.08" ry="3.54"/><ellipse cx="77" cy="66.54" fill="#f85565" opacity=".2" rx="5.08" ry="3.54"/><path d="m72 52 5.18-2.36a4.6 4.6 0 0 1 4.67.5l1.15.86" style="fill:none;stroke-linecap:round;stroke:#515570;stroke-linejoin:round;opacity:.2;stroke-width:2"/><circle cx="51.5" cy="58.28" fill="#515570" r="3"/><path d="m57 59.37a6.62 6.62 0 0 0 -11.51-1.31" fill="none" stroke="#515570" stroke-linecap="round" stroke-linejoin="round"/><path d="m55.5 52-5.18-2.36a4.62 4.62 0 0 0 -4.68.5l-1.14.86" style="fill:none;stroke-linecap:round;stroke:#515570;stroke-linejoin:round;opacity:.2;stroke-width:2"/><path d="m39 41h50v9h-50z" fill="#fff"/><path d="m93.37 103.64a10 10 0 0 0 -9.37-6.64h-39.95a10 10 0 0 0 -9.42 6.64l-.1.34a38 38 0 0 0 58.94 0z" fill="#fff"/><path d="m76.78 95.5-9.61 12.38" style="fill:none;stroke-linecap:round;stroke:#515570;stroke-linejoin:round;opacity:.2;stroke-width:2"/><path d="m51.17 95.5 9.61 12.38" style="fill:none;stroke-linecap:round;stroke:#515570;stroke-linejoin:round;opacity:.2;stroke-width:2"/><path d="m68.59 106.06h-3.06v-3.06h-3.06v3.06h-3.06v3.06h3.06v6.88h3.06v-6.88h3.06z" fill="#f85565"/><path d="m59 79h10" fill="none" stroke="#f85565" stroke-linecap="round" stroke-linejoin="round" stroke-width="2"/></svg>