<svg height="800" viewBox="0 0 128 128" width="800" xmlns="http://www.w3.org/2000/svg"><circle cx="64" cy="64" fill="#ffd8c9" r="60"/><circle cx="64" cy="64" fill="#fff" opacity=".3" r="48"/><circle cx="91.32" cy="60.43" fill="#8f5653" r="7.93"/><path d="m64 124a59.77 59.77 0 0 0 39.83-15.14l-2.23-5.22c-1.71-4-6.22-6.64-11.29-6.64h-52.62c-5.07 0-9.58 2.66-11.29 6.64l-2.23 5.22a59.77 59.77 0 0 0 39.83 15.14z" fill="#393c54"/><path d="m77.43 98.73a13.43 13.43 0 0 1 -26.86 0c0-5 6-3.25 13.43-3.25s13.43-1.8 13.43 3.25z" fill="#ff8475"/><path d="m64 84.75v13.75" fill="none" stroke="#8f5653" stroke-linecap="round" stroke-miterlimit="10" stroke-width="20"/><circle cx="36.68" cy="60.43" fill="#8f5653" r="7.93"/><path d="m64 94.37a28.31 28.31 0 0 1 -28.32-28.32v-18.62a28.32 28.32 0 1 1 56.64 0v18.62a28.31 28.31 0 0 1 -28.32 28.32z" fill="#b56b63"/><circle cx="76.67" cy="59.28" fill="#393c54" r="3"/><circle cx="49.67" cy="59.28" fill="#393c54" r="3"/><path d="m74.39 51 9.61 1.75" style="fill:none;stroke-linecap:round;stroke:#515570;stroke-linejoin:round;stroke-width:2;opacity:.4"/><path d="m53 51-9.61 1.75" style="fill:none;stroke-linecap:round;stroke:#515570;stroke-linejoin:round;stroke-width:2;opacity:.4"/><path d="m63.11 60-4.67 10.69a1 1 0 0 0 .92 1.4h9.34a1 1 0 0 0 .91-1.4l-4.67-10.69a1 1 0 0 0 -1.83 0z" fill="#8f5653"/><path d="m92.32 47.43a28.32 28.32 0 1 0 -56.64 0v5.57h.93c3.87 0 7-11.13 7-15v.17c3.52 3.76 11.38 6.38 20.52 6.38 9.46 0 17.54-2.8 20.87-6.77v.22c0 3.87 3.13 15 7 15h.32z" fill="#8f5653" opacity=".4"/><path d="m70.21 76a.79.79 0 0 1 .78.89 7 7 0 0 1 -14 0 .79.79 0 0 1 .78-.89z" fill="#fff"/><path d="m60.17 86h7.66" style="fill:none;stroke-linecap:round;stroke:#515570;stroke-linejoin:round;stroke-width:2;opacity:.4"/></svg>