<svg height="800" viewBox="0 0 128 128" width="800" xmlns="http://www.w3.org/2000/svg"><circle cx="64" cy="64" fill="#4bc190" r="60"/><circle cx="64" cy="64" fill="#fff" opacity=".3" r="48"/><path d="m120.57 84h-53.57v16h45a60 60 0 0 0 8.57-16z" fill="#356cb6"/><path d="m50 95h29v15h-29z" fill="#8f5653"/><path d="m64 124.1a59.73 59.73 0 0 0 39.8-15.1l-2.2-5.36c-1.71-4-6.22-6.64-11.29-6.64h-52.62c-5.07 0-9.58 2.66-11.29 6.64l-2.2 5.36a59.73 59.73 0 0 0 39.8 15.1z" fill="#fff"/><path d="m64 95.75v2.75" fill="none" stroke="#356cb6" stroke-linecap="round" stroke-linejoin="round" stroke-width="24"/><path d="m64 77.75v12.75" fill="none" stroke="#fbc0aa" stroke-linecap="round" stroke-linejoin="round" stroke-width="20"/><path d="m64 94.37a28.31 28.31 0 0 1 -28.32-28.32v-18.62a28.32 28.32 0 1 1 56.64 0v18.62a28.31 28.31 0 0 1 -28.32 28.32z" fill="#ffd8c9"/><circle cx="76.67" cy="59.28" fill="#393c54" r="3"/><circle cx="49.67" cy="59.28" fill="#393c54" r="3"/><g fill="none" stroke="#515570" stroke-linecap="round" stroke-linejoin="round" stroke-width="2"><path d="m74.39 53 9.61-.25" opacity=".4"/><path d="m53 53-9.61-.25" opacity=".4"/><path d="m60 86h8" opacity=".4"/></g><path d="m69.5 82h-11a3.5 3.5 0 0 1 0-7h11a3.5 3.5 0 0 1 0 7z" fill="#393c54"/><path d="m58 75h12a0 0 0 0 1 0 0 2 2 0 0 1 -2 2h-8a2 2 0 0 1 -2-2 0 0 0 0 1 0 0z" fill="#fff"/><path d="m60 82h9.5a3.5 3.5 0 0 0 3.5-3.5 4 4 0 0 0 0-.5h-7a6.5 6.5 0 0 0 -6 4z" fill="#f85565"/><path d="m103.8 109-2.2-5.36c-1.71-4-6.22-6.64-11.29-6.64h-12.31v25.2c9.34-2.41 18.8-6.99 25.8-13.2z" fill="#db7a72"/><path d="m26.4 103.64-2.2 5.36a59.86 59.86 0 0 0 25.8 13.46v-25.46h-12.31c-5.07 0-9.58 2.66-11.29 6.64z" fill="#db7a72"/><path d="m78 95h5a3 3 0 0 1 3 3v9a8 8 0 0 1 -8 8 0 0 0 0 1 0 0v-20a0 0 0 0 1 0 0z" fill="#bc5b57"/><path d="m64 70h17a0 0 0 0 1 0 0 5 5 0 0 1 -5 5h-7a5 5 0 0 1 -5-5 0 0 0 0 1 0 0z" fill="#ff6d00"/><path d="m47 70h17a0 0 0 0 1 0 0 5 5 0 0 1 -5 5h-7a5 5 0 0 1 -5-5 0 0 0 0 1 0 0z" fill="#ff6d00"/><path d="m93 74 3.79-1.89a4 4 0 0 0 2.21-3.58v-15.65a4 4 0 0 0 -2.74-3.79l-3.26-1.09z" fill="#db7a72"/><path d="m64 72a3 3 0 0 1 -3-3v-19h6v19a3 3 0 0 1 -3 3z" fill="#fbc0aa"/><path d="m35 74-3.79-1.89a4 4 0 0 1 -2.21-3.58v-15.65a4 4 0 0 1 2.74-3.79l3.26-1.09z" fill="#db7a72"/><path d="m63.78 52.56a7.78 7.78 0 0 1 0-15.56" fill="#ff6d00"/><path d="m70.44 57a7.78 7.78 0 0 1 0-15.56" fill="#ff6d00"/><path d="m42 95a8 8 0 0 1 8 8v9a3 3 0 0 1 -3 3h-5a0 0 0 0 1 0 0v-20a0 0 0 0 1 0 0z" fill="#bc5b57" transform="matrix(-1 0 0 -1 92 210)"/><path d="m63.08 15.13c-16.49.49-29.4 14.45-29.4 30.95v30 11.42c.13 2.76 4.29 2.62 4.29-.15v-32.35a10 10 0 0 1 10.03-10h32a10 10 0 0 1 10 10v32.32c0 2.77 4.16 2.91 4.29.15 0-.47 0-10.94 0-11.42v-30.62a30.35 30.35 0 0 0 -31.21-30.3z" fill="#bc5b57"/><path d="m87 35h7a2 2 0 0 1 2 2v2a2 2 0 0 1 -2 2h-7a0 0 0 0 1 0 0v-6a0 0 0 0 1 0 0z" fill="#8f5653"/><path d="m87 34h3a2 2 0 0 1 2 2v4a2 2 0 0 1 -2 2h-3a0 0 0 0 1 0 0v-8a0 0 0 0 1 0 0z" fill="#fff"/><path d="m34 35h7a0 0 0 0 1 0 0v6a0 0 0 0 1 0 0h-7a2 2 0 0 1 -2-2v-2a2 2 0 0 1 2-2z" fill="#8f5653"/><path d="m36 34h3a2 2 0 0 1 2 2v4a2 2 0 0 1 -2 2h-3a0 0 0 0 1 0 0v-8a0 0 0 0 1 0 0z" fill="#fff" transform="matrix(-1 0 0 -1 77 76)"/><path d="m58 35h10v6h-10z" fill="#8f5653"/><circle cx="77" cy="39.28" fill="#356cb6" r="11"/><circle cx="77" cy="39.28" fill="#a7aece" r="6.88"/><path d="m77 32.4a5.49 5.49 0 0 0 -.58 0l-6.27 6.3v.58a6.9 6.9 0 0 0 1 3.6l9.46-9.45a6.85 6.85 0 0 0 -3.61-1.03z" fill="#fff" opacity=".3"/><path d="m73.84 45.38 9.26-9.26a6.82 6.82 0 0 0 -1.1-1.52l-9.71 9.71a7.31 7.31 0 0 0 1.55 1.07z" fill="#fff" opacity=".3"/><circle cx="77" cy="39.28" fill="none" r="9.98" stroke="#515570" stroke-linecap="round" stroke-linejoin="round" stroke-width="2.22"/><circle cx="51" cy="39.28" fill="#356cb6" r="11"/><circle cx="51" cy="39.28" fill="none" r="9.98" stroke="#515570" stroke-linecap="round" stroke-linejoin="round" stroke-width="2.22"/><circle cx="51" cy="39.28" fill="#a7aece" r="6.88"/><path d="m51 32.4a5.49 5.49 0 0 0 -.58 0l-6.27 6.3v.58a6.9 6.9 0 0 0 1 3.6l9.46-9.45a6.85 6.85 0 0 0 -3.61-1.03z" fill="#fff" opacity=".3"/><path d="m47.84 45.38 9.26-9.26a6.82 6.82 0 0 0 -1.1-1.52l-9.71 9.71a7.31 7.31 0 0 0 1.55 1.07z" fill="#fff" opacity=".3"/></svg>