<svg height="800" viewBox="0 0 128 128" width="800" xmlns="http://www.w3.org/2000/svg"><circle cx="64" cy="64" fill="#ffd8c9" r="60"/><circle cx="64" cy="64" fill="#fff" opacity=".3" r="48"/><circle cx="85.98" cy="63.31" fill="#fbc0aa" r="6.43"/><path d="m63 76.75v13.75" fill="none" stroke="#fbc0aa" stroke-linecap="round" stroke-linejoin="round" stroke-width="12"/><g fill="#fff"><circle cx="64" cy="21.78" r="9.25"/><circle cx="81.14" cy="26.61" r="9.25"/><circle cx="93.86" cy="38.97" r="9.25"/><circle cx="46.86" cy="26.61" r="9.25"/><circle cx="34.14" cy="38.97" r="9.25"/></g><circle cx="40.02" cy="63.31" fill="#fbc0aa" r="6.43"/><path d="m64 21.78a37 37 0 0 0 -37 37v52.47a59.93 59.93 0 0 0 74 0v-52.49a37 37 0 0 0 -37-36.98z" fill="#00adfe"/><path d="m64 25.78a33 33 0 0 0 -33 33v48.11a32.85 32.85 0 0 0 1 7.86 59.94 59.94 0 0 0 64 0 32.85 32.85 0 0 0 1-7.86v-48.13a33 33 0 0 0 -33-32.98z" fill="#fff"/><circle cx="86.98" cy="63.31" fill="#fbc0aa" r="6.15"/><circle cx="41.02" cy="63.31" fill="#fbc0aa" r="6.15"/><path d="m64 87.84a23 23 0 0 1 -23-23v-6.08a23 23 0 0 1 46 0v6.11a23 23 0 0 1 -23 22.97z" fill="#ffd8c9"/><circle cx="53.01" cy="71.24" fill="#ffd8c9" r="11.99"/><ellipse cx="51.01" cy="73.63" fill="#f85565" opacity=".2" rx="3.99" ry="2.38"/><circle cx="74.99" cy="71.24" fill="#ffd8c9" r="11.99"/><ellipse cx="76.99" cy="73.63" fill="#f85565" opacity=".2" rx="3.99" ry="2.38"/><path d="m64 72v1" fill="none" stroke="#fbc0aa" stroke-linecap="round" stroke-linejoin="round" stroke-width="4"/><path d="m72 66a3 3 0 0 0 6 0" fill="none" stroke="#515570" stroke-linecap="round" stroke-linejoin="round" stroke-width="2"/><path d="m50 66a3 3 0 0 0 6 0" fill="none" stroke="#515570" stroke-linecap="round" stroke-linejoin="round" stroke-width="2"/><circle cx="60.5" cy="54" fill="#f2bc0f" r="4.31"/><circle cx="67.5" cy="56" fill="#f2bc0f" r="4.31"/><circle cx="71.5" cy="52" fill="#f2bc0f" r="4.31"/><path d="m85.42 45.81a175.44 175.44 0 0 0 -42.84 0 2 2 0 0 0 -1.76 1.77l-.53 4.82a2 2 0 0 0 2.3 2.19 144.94 144.94 0 0 1 42.82 0 2 2 0 0 0 2.3-2.19l-.53-4.82a2 2 0 0 0 -1.76-1.77z" fill="#ff8475"/><path d="m85.34 45.8a25 25 0 0 0 -42.68 0 176.14 176.14 0 0 1 42.68 0z" fill="#f85565"/><path d="m72 81a4 4 0 0 0 -6-3.46 3.86 3.86 0 0 1 -4 0 4 4 0 1 0 -4 6.91 11.92 11.92 0 0 0 12 0 4 4 0 0 0 2-3.45z" fill="#f85565"/><circle cx="64" cy="83" fill="#f8dc25" r="4"/><ellipse cx="64" cy="88" fill="none" rx="5" ry="4.83" stroke="#00adfe" stroke-miterlimit="10" stroke-width="2"/><path d="m31 75v39.1a59.95 59.95 0 0 0 66 0v-1l-.6-.14c-47.1-9.96-62.99-33.85-65.4-37.96z" fill="#00adfe"/><path d="m31.6 113-.6.14v1a59.95 59.95 0 0 0 66 0l.2-39.14c-2.41 4.11-18.5 28-65.6 38z" fill="#00adfe"/><path d="m31 75v39.1a59.95 59.95 0 0 0 66 0v-1l-.6-.14c-47.1-9.96-62.99-33.85-65.4-37.96z" fill="#fff" opacity=".2"/><path d="m61.58 123.94c-20.69-10.67-28.9-23.08-30.58-25.94v16.1a59.64 59.64 0 0 0 30.58 9.84z" fill="#00adfe"/><path d="m66.42 123.94a59.64 59.64 0 0 0 30.58-9.84v-16.1c-1.68 2.86-9.89 15.27-30.58 25.94z" fill="#00adfe"/><path d="m66.42 123.94a59.64 59.64 0 0 0 30.58-9.84v-16.1c-1.68 2.86-9.89 15.27-30.58 25.94z" fill="#fff" opacity=".4"/><path d="m61.58 123.94c-20.69-10.67-28.9-23.08-30.58-25.94v16.1a59.64 59.64 0 0 0 30.58 9.84z" fill="#00adfe"/><path d="m61.58 123.94c-20.69-10.67-28.9-23.08-30.58-25.94v16.1a59.64 59.64 0 0 0 30.58 9.84z" fill="#fff" opacity=".6"/></svg>