<svg height="800" viewBox="0 0 128 128" width="800" xmlns="http://www.w3.org/2000/svg"><circle cx="64" cy="64" fill="#00adfe" r="60"/><circle cx="64" cy="64" fill="#fff" opacity=".3" r="48"/><path d="m31.08 61.57v-15.65a32.92 32.92 0 0 1 65.84 0v15.65z" fill="#393c54"/><circle cx="91.32" cy="60.43" fill="#fba875" r="7.93"/><path d="m64 124.1a59.78 59.78 0 0 0 40-15.28l-2.39-5.68c-1.71-4-6.22-6.64-11.29-6.64h-52.63c-5.07 0-9.58 2.66-11.29 6.64l-2.4 5.68a59.78 59.78 0 0 0 40 15.28z" fill="#b56b63"/><path d="m81.72 98.25a3.06 3.06 0 0 0 -3.08-2.88h-29.28a3.07 3.07 0 0 0 -3.08 2.93v.32c-.17 7.32 10.52 16.64 10.52 16.64l7.2-7.21 7.17 7.17s10.56-9 10.56-16.22c0-.26 0-.51-.01-.75z" fill="#fff"/><path d="m64 84.75v13.75" fill="none" stroke="#fba875" stroke-linecap="round" stroke-miterlimit="10" stroke-width="20"/><circle cx="36.68" cy="60.43" fill="#fba875" r="7.93"/><path d="m64 94.37a28.31 28.31 0 0 1 -28.32-28.32v-18.62a28.32 28.32 0 1 1 56.64 0v18.62a28.31 28.31 0 0 1 -28.32 28.32z" fill="#ffbb94"/><circle cx="77.5" cy="59.28" fill="#393c54" r="3"/><circle cx="50.5" cy="59.28" fill="#393c54" r="3"/><path d="m74.69 53 9.62-.25" style="fill:none;stroke-linecap:round;stroke:#515570;opacity:.4;stroke-linejoin:round;stroke-width:2"/><path d="m53.31 53-9.62-.25" style="fill:none;stroke-linecap:round;stroke:#515570;opacity:.4;stroke-linejoin:round;stroke-width:2"/><path d="m92.32 64.81h-1.1a3.22 3.22 0 0 0 -3.22 3.19 3.22 3.22 0 0 1 -3.22 3.22h-41.56a3.22 3.22 0 0 1 -3.22-3.22 3.22 3.22 0 0 0 -3.22-3.22h-1.1v17.5c0 15.43 12.1 28.47 27.52 28.9a28.32 28.32 0 0 0 29.12-28.31z" fill="#393c54"/><path d="m71.55 75a1 1 0 0 1 .94 1.07 8.56 8.56 0 0 1 -17 0 1 1 0 0 1 .96-1.07z" fill="#fff"/><g fill="none" stroke-linecap="round" stroke-miterlimit="10" stroke-width="4"><path d="m64 60.75v6.5" stroke="#fba875"/><path d="m66.5 68h-5" stroke="#fba875"/><path d="m36 56v-20" stroke="#393c54"/><path d="m92 56v-21" stroke="#393c54"/></g><path d="m31 23.83a15.17 15.17 0 0 0 15.17 15.17h45.33a1 1 0 0 0 1-1.29 29.92 29.92 0 0 0 -28.5-20.71h-33z" fill="#515570"/><path d="m70.5 33h-22.77a10 10 0 0 1 -10-10" style="fill:none;stroke-linecap:round;stroke-miterlimit:10;stroke-width:4;stroke:#fff;opacity:.1"/><path d="m65 67h2" style="opacity:.3;fill:none;stroke-linecap:round;stroke-linejoin:round;stroke-width:2;stroke:#f85565"/><ellipse cx="50.42" cy="67.67" fill="#f85565" opacity=".1" rx="4.58" ry="2.98"/><ellipse cx="77.58" cy="67.67" fill="#f85565" opacity=".1" rx="4.58" ry="2.98"/></svg>