<svg height="800" viewBox="0 0 128 128" width="800" xmlns="http://www.w3.org/2000/svg"><clipPath id="a"><rect height="10" rx="1.99" width="56" x="36" y="50.04"/></clipPath><circle cx="64" cy="64" fill="#4bc190" r="60"/><circle cx="64" cy="64" fill="#356cb6" opacity=".3" r="48"/><path d="m64.94 25a31.19 31.19 0 0 0 -32.09 31.15v34.85a2.26 2.26 0 0 0 2.15 2.2l1.63 3.37a1.07 1.07 0 0 0 1.84 0l2-3.35h1.29l2 3.35a1.07 1.07 0 0 0 1.84 0l2-3.35h32.8l2 3.35a1.07 1.07 0 0 0 1.84 0l2-3.35h1.29l2 3.36a1.07 1.07 0 0 0 1.84 0l1.63-3.38a2.3 2.3 0 0 0 2.11-2.29v-34.1c.04-16.95-13.23-31.29-30.17-31.81z" fill="#393c54"/><circle cx="89.84" cy="70.87" fill="#fba875" r="7.5"/><path d="m64 124a59.75 59.75 0 0 0 37.53-13.2l-2-5.53c-1.53-3.77-5.85-6.27-10.64-6.27h-49.78c-4.79 0-9.07 2.51-10.68 6.28l-2 5.53a59.75 59.75 0 0 0 37.57 13.19z" fill="#ffbb94"/><path d="m64 88.88v12" fill="none" stroke="#fba875" stroke-linecap="round" stroke-miterlimit="10" stroke-width="14"/><circle cx="38.16" cy="70.87" fill="#fba875" r="7.5"/><path d="m64 98a26.78 26.78 0 0 1 -26.79-26.81v-9.62a26.79 26.79 0 0 1 53.58 0v9.62a26.78 26.78 0 0 1 -26.79 26.81z" fill="#ffbb94"/><path d="m87 48.36 4.25 4.64 4.25-4.64v-8.86l-2 .5 2-3.75v-9.14a4.25 4.25 0 0 0 -4.25-4.25 4.25 4.25 0 0 0 -4.25 4.25v4.89l2.5 5-2.5-2.07z" fill="#fff"/><path d="m91.5 31v24" style="fill:none;stroke-linecap:round;stroke:#515570;stroke-linejoin:round;stroke-width:1.89;opacity:.4"/><path d="m91.25 22.86a4.25 4.25 0 0 1 4.25 4.25v2.25l-4.25 4.64-4.25-4.64v-2.25a4.25 4.25 0 0 1 4.25-4.25z" fill="#f85565"/><path d="m91 56.88v-.7c0-14.69-11.5-27.13-26.18-27.56a27 27 0 0 0 -27.82 26.99v1.31a2 2 0 0 0 2 2h50a2 2 0 0 0 2-2.04z" fill="#515570"/><rect fill="#f8dc25" height="10" rx="1.99" width="56" x="36" y="50"/><circle cx="44.48" cy="55.04" fill="#fff" opacity=".5" r="1.77"/><circle cx="54.48" cy="55.04" fill="#fff" opacity=".5" r="1.77"/><circle cx="64.48" cy="55.04" fill="#fff" opacity=".5" r="1.77"/><circle cx="74.48" cy="55.04" fill="#fff" opacity=".5" r="1.77"/><circle cx="84.48" cy="55.04" fill="#fff" opacity=".5" r="1.77"/><g clip-path="url(#a)"><path d="m94.11 60.03-4.97-4.93-4.96 4.93-4.97-4.93-4.96 4.93-4.96-4.93-4.97 4.93-4.96-4.93-4.97 4.93-4.96-4.93-4.97 4.93-4.96-4.93-4.5 4.93.42 5.67 57.65-1.56z" fill="#ff8475"/><path d="m29.59 50.13 4.96 4.94 4.97-4.94 4.96 4.94 4.97-4.94 4.96 4.94 4.97-4.94 4.96 4.94 4.96-4.94 4.97 4.94 4.96-4.94 4.97 4.94 4.5-4.94 4.97 4.97 4.74-4.74-1.07-5.66-21.75-4-21.67-.33-24.33 6.83z" fill="#f2bc0f"/></g><path d="m74.12 66.84c3.07-2.07 6.1-1.8 9.09-.24" style="fill:none;stroke-linecap:round;stroke:#515570;stroke-linejoin:round;stroke-width:1.89;opacity:.4"/><path d="m53.88 66.84a8.33 8.33 0 0 0 -9.09-.24" style="fill:none;stroke-linecap:round;stroke:#515570;stroke-linejoin:round;stroke-width:1.89;opacity:.4"/><path d="m64 73v7" fill="none" stroke="#eaa78f" stroke-linecap="round" stroke-linejoin="round" stroke-width="4"/><path d="m71.55 85a1 1 0 0 1 .94 1.07 8.56 8.56 0 0 1 -17 0 1 1 0 0 1 .96-1.07z" fill="#393c54"/><path d="m59 91.91a8.52 8.52 0 0 0 10.08 0c-1.08-1.75-2.91-1.91-5.08-1.91s-4 .16-5 1.91z" fill="#f85565"/><path d="m58 85h12a0 0 0 0 1 0 0 2 2 0 0 1 -2 2h-8a2 2 0 0 1 -2-2 0 0 0 0 1 0 0z" fill="#fff"/><g fill="none" stroke-linecap="round" stroke-linejoin="round"><path d="m80 72.87a3 3 0 0 0 -6 0" stroke="#515570" stroke-width="2"/><path d="m54 72.87a3 3 0 0 0 -6 0" stroke="#515570" stroke-width="2"/><path d="m71 77h7" stroke="#f85565" stroke-width="2"/><path d="m71 80h7" stroke="#f85565" stroke-width="2"/><path d="m50 77h7" stroke="#f85565" stroke-width="2"/><path d="m50 80h7" stroke="#f85565" stroke-width="2"/><path d="m78.68 102.07a15 15 0 0 1 -29.6-1.5" stroke="#fff" stroke-dasharray=".1 3.04" stroke-width="2"/><path d="m65.63 114 .87 6" stroke="#fff" stroke-width="2"/><path d="m62.44 114-.63 6" stroke="#fff" stroke-width="2"/><path d="m68.52 113.31 1.23 3.69" stroke="#fff" stroke-width="2"/><path d="m59.48 113.31-1.42 3.25" stroke="#fff" stroke-width="2"/></g></svg>