<svg height="800" viewBox="0 0 128 128" width="800" xmlns="http://www.w3.org/2000/svg">
    <circle cx="64" cy="64" fill="#515570" r="60" />
    <circle cx="64" cy="64" fill="#515570" r="60" />
    <circle cx="64" cy="64" fill="#393c54" opacity=".5" r="48" />
    <circle cx="91.32" cy="60.43" fill="#fbc0aa" r="7.93" />
    <path
        d="m64 124a59.75 59.75 0 0 0 39.8-15.12l-2.2-5.24c-1.71-4-6.22-6.64-11.29-6.64h-52.62c-5.07 0-9.58 2.66-11.29 6.64l-2.2 5.24a59.75 59.75 0 0 0 39.8 15.12z"
        fill="#f8dc25" />
    <path d="m64 84.75v13.75" fill="none" stroke="#fbc0aa" stroke-linecap="round"
        stroke-linejoin="round" stroke-width="20" />
    <circle cx="36.68" cy="60.43" fill="#fbc0aa" r="7.93" />
    <path
        d="m64 94.37a28.31 28.31 0 0 1 -28.32-28.32v-18.62a28.32 28.32 0 1 1 56.64 0v18.62a28.31 28.31 0 0 1 -28.32 28.32z"
        fill="#ffd8c9" />
    <circle cx="76.67" cy="59.28" fill="#393c54" r="3" />
    <path
        d="m32 46 2.87 15.45a1 1 0 0 0 1.94.1c1.7-5.81 5.19-15.55 9.19-15.55 5.75 0 2.19-8 2.19-8z"
        fill="#8f5653" />
    <path
        d="m96 46-2.87 15.45a1 1 0 0 1 -1.94.1c-1.7-5.81-5.19-15.55-9.19-15.55-5.75 0-2.19-8-2.19-8z"
        fill="#8f5653" />
    <circle cx="49.67" cy="59.28" fill="#393c54" r="3" />
    <path d="m33 45v-1.55a31 31 0 0 1 62 0v1.55" fill="#f2bc0f" />
    <g fill="none" stroke="#515570" stroke-linecap="round" stroke-linejoin="round" stroke-width="2">
        <path d="m74.39 53 9.61-.25" opacity=".4" />
        <path d="m53 53-9.61-.25" opacity=".4" />
        <path d="m60 86h8" opacity=".4" />
    </g>
    <path d="m39 118.54a60 60 0 0 0 50 0v-5.54h-50z" fill="#356cb6" />
    <path d="m56.5 39h15l6.78-23.06a31 31 0 0 0 -28.56 0z" fill="#393c54" opacity=".2" />
    <path
        d="m64 11.45a69.94 69.94 0 0 0 -7.72.43 1.09 1.09 0 0 0 -1 1l1.22 31.12h15l1.25-31.13a1.09 1.09 0 0 0 -1-1 69.94 69.94 0 0 0 -7.75-.42z"
        fill="#f2bc0f" />
    <path d="m39 118.54a60 60 0 0 0 50 0v-5.54h-50z" fill="#393c54" opacity=".5" />
    <path d="m39 97h8a0 0 0 0 1 0 0v17a4 4 0 0 1 -4 4 4 4 0 0 1 -4-4v-17a0 0 0 0 1 0 0z"
        fill="#356cb6" />
    <path d="m81 97h8a0 0 0 0 1 0 0v17a4 4 0 0 1 -4 4 4 4 0 0 1 -4-4v-17a0 0 0 0 1 0 0z"
        fill="#356cb6" />
    <circle cx="43" cy="114" fill="#393c54" r="2" />
    <circle cx="85" cy="114" fill="#393c54" r="2" />
    <path
        d="m63.11 57.23-4.52 10.36a1 1 0 0 0 .89 1.35h9a1 1 0 0 0 .89-1.35l-4.48-10.36a1 1 0 0 0 -1.78 0z"
        fill="#fbc0aa" />
    <path d="m69.5 82h-11a3.5 3.5 0 0 1 0-7h11a3.5 3.5 0 0 1 0 7z" fill="#393c54" />
    <path d="m58 75h12a0 0 0 0 1 0 0 2 2 0 0 1 -2 2h-8a2 2 0 0 1 -2-2 0 0 0 0 1 0 0z" fill="#fff" />
    <path d="m60 82h9.5a3.5 3.5 0 0 0 3.5-3.5 4 4 0 0 0 0-.5h-7a6.5 6.5 0 0 0 -6 4z"
        fill="#f85565" />
    <path d="m75.61 49.45h-24.22a44.66 44.66 0 0 1 -21.39-5.45h67a44.66 44.66 0 0 1 -21.39 5.45z"
        fill="#f2bc0f" />
    <rect fill="#f8dc25" height="4" rx="1" width="67" x="30" y="41" />
    <path
        d="m77 75a5 5 0 0 0 -5-5h-16a5 5 0 0 0 -5 5h-6a5 5 0 0 0 8.18 3.86 15.77 15.77 0 0 1 10-3.86h1.68a15.77 15.77 0 0 1 10 3.86 5 5 0 0 0 8.14-3.86z"
        fill="#8f5653" />
</svg>