<svg height="800" viewBox="0 0 128 128" width="800" xmlns="http://www.w3.org/2000/svg">
    <circle cx="64" cy="64" fill="#00adfe" r="60" />
    <circle cx="64" cy="64" fill="#fff" opacity=".2" r="48" />
    <path d="m106 57a4 4 0 0 1 -4-4v-14a13 13 0 0 0 -25.9 0l6 18a12 12 0 0 0 24 0z"
        fill="#ff6d00" />
    <circle cx="82" cy="41" fill="#4bc190" r="10" />
    <path d="m20 57a4 4 0 0 0 4-4v-14h.05a13 13 0 0 1 25.95 0l-6 18a12 12 0 0 1 -24 0z"
        fill="#ff6d00" />
    <circle cx="44" cy="41" fill="#4bc190" r="10" />
    <path
        d="m63 28a29.41 29.41 0 0 1 29.41 29.41v6.12a10.94 10.94 0 0 1 -10.94 10.94h-36.94a10.94 10.94 0 0 1 -10.94-10.94v-6.12a29.41 29.41 0 0 1 29.41-29.41z"
        fill="#ff6d00" />
    <circle cx="85.98" cy="74.31" fill="#fbc0aa" r="6.43" />
    <path
        d="m64 124a59.62 59.62 0 0 0 33-9.92l-2.66-7.44a10 10 0 0 0 -9.34-6.64h-43.95a10 10 0 0 0 -9.42 6.64l-2.27 6.36a59.74 59.74 0 0 0 34.64 11z"
        fill="#393c54" />
    <path d="m77.92 100h-29.83l-2.63 6.3 8.54 3.7-3 5 12 6 11-6-2-5 8-3.7z" fill="#515570" />
    <path d="m72 101.25c0 5-4 16-9 16s-9-11-9-16 4-3 9-3 9-1.97 9 3z" fill="#fff" />
    <path d="m63 87.75v13.75" fill="none" stroke="#fbc0aa" stroke-linecap="round"
        stroke-linejoin="round" stroke-width="12" />
    <circle cx="40.02" cy="74.31" fill="#fbc0aa" r="6.43" />
    <path d="m63 98.84a23 23 0 0 1 -23-23v-15.08a23 23 0 0 1 46 0v15.11a23 23 0 0 1 -23 22.97z"
        fill="#ffd8c9" />
    <path style="fill:none;stroke-linecap:round;stroke:#fff;stroke-miterlimit:10;stroke-width:3.68;opacity:.1"
        d="m44.82 51a19.9 19.9 0 0 1 17.58-12.46" />
    <path
        d="m88.82 58.82a25.82 25.82 0 0 0 -26.55-25.82c-14.06.39-25.09 12.28-25.09 26.35v4a4.83 4.83 0 0 0 1.48 3.51 5.93 5.93 0 0 0 1.36 1v-3.86a4 4 0 0 1 4-4h5.38a1 1 0 0 0 .9-.55l1.7-3.45 1.72 3.45a1 1 0 0 0 .9.55h1.24a1 1 0 0 0 .91-.58l1.65-3.5 1.8 3.53a1 1 0 0 0 .89.55h10.78a1 1 0 0 0 .89-.55l1.8-3.53 1.65 3.5a1 1 0 0 0 .91.58h4.86a4 4 0 0 1 4 4v3.89a5.93 5.93 0 0 0 1.36-1 4.83 4.83 0 0 0 1.48-3.51z"
        fill="#ff8b2c" />
    <path d="m62.5 77.5v4" fill="none" stroke="#fbc0aa" stroke-linecap="round"
        stroke-linejoin="round" stroke-width="4.71" />
    <path style="opacity:.2;fill:none;stroke-linecap:round;stroke-linejoin:round;stroke:#515570;stroke-width:2"
        d="m72 68h7" />
    <path style="opacity:.2;fill:none;stroke-linecap:round;stroke-linejoin:round;stroke:#515570;stroke-width:2"
        d="m54 68h-7" />
    <path d="m70.55 86a1 1 0 0 1 .94 1.07 8.56 8.56 0 0 1 -17 0 1 1 0 0 1 .96-1.07z"
        fill="#393c54" />
    <path d="m58 92.91a8.52 8.52 0 0 0 10.08 0c-1.08-1.75-2.91-1.91-5.08-1.91s-4 .16-5 1.91z"
        fill="#f85565" />
    <path d="m68 88h-10a1.84 1.84 0 0 1 -1.73-2h13.5a1.84 1.84 0 0 1 -1.77 2z" fill="#fff" />
    <circle cx="74" cy="74" fill="#515570" r="3" />
    <circle cx="52" cy="74" fill="#515570" r="3" />
    <g fill="#ff8b2c">
        <circle cx="71" cy="79" r="1" />
        <circle cx="69" cy="82" r="1" />
        <circle cx="63" cy="82" r="1" />
        <circle cx="74" cy="81" r="1" />
        <circle cx="77" cy="78" r="1" />
        <circle cx="55" cy="78" r="1" />
        <circle cx="57" cy="81" r="1" />
        <circle cx="52" cy="80" r="1" />
        <circle cx="47" cy="78" r="1" />
        <circle cx="49" cy="81" r="1" />
    </g>
</svg>