<svg height="800" viewBox="0 0 128 128" width="800" xmlns="http://www.w3.org/2000/svg"><circle cx="64" cy="64" fill="#515570" r="60"/><circle cx="64" cy="64" fill="#393c54" opacity=".5" r="48"/><path d="m35 68.36v-15.94c0-14.69 10.41-27.62 24.9-30a30 30 0 0 1 35.1 29.58v16.78a30 30 0 0 1 -35.1 29.58c-14.49-2.36-24.9-15.31-24.9-30z" fill="#ffd8c9"/><path d="m79.62 86h-31.24a38.67 38.67 0 0 0 -31.08 15.65 60 60 0 0 0 93.4 0 38.67 38.67 0 0 0 -31.08-15.65z" fill="#f85565"/><path d="m56.69 41.56s-6.43.76-10.82 4.56" style="fill:none;stroke:#515570;stroke-linecap:round;stroke-linejoin:round;stroke-width:2;opacity:.2"/><path d="m93.14 41.91c-6.65-9.39-15.45-17.11-27.79-17.11s-22.21 6.59-28.24 16.26c-2 3.18 1.66 2.31 5.15.24s18.74-4.3 18.74-4.3-4 2-5.63 4.71c4.26.46 11.4-3.95 11.4-3.95a11.55 11.55 0 0 0 -1.55 3.95c4-1.22 6.87-2.58 8.54-4.41s22.47 8.98 19.38 4.61z" fill="#fff"/><path d="m92.7 40.9s-.47-19.73-19.16-25-34.42 4.86-42.07 12.54c-7.47 7.56-10.78 14.28-12.15 14.89 6.68-4.17 15.6-4.33 17.93-2.13 0 0 10-13.67 28.1-13.67a34.59 34.59 0 0 1 27.35 13.37z" fill="#f85565"/><circle cx="78.64" cy="63.09" fill="#ff8475" opacity=".4" r="7.02"/><circle cx="52.67" cy="63.09" fill="#ff8475" opacity=".4" r="7.02"/><path d="m65 102.59a42.5 42.5 0 0 0 32.31-23.7c10.82-22-3.73-36-3.73-36a109 109 0 0 1 1.09 12.29c.29 7.46-2.48 11.56-5.41 13.9s-7.46 2.34-9.87-2.2-8.09-1.45-14.39-1.45-12-3.07-14.39 1.46-6.94 4.54-9.87 2.2-5.7-6.44-5.41-13.9.88-11.35.88-11.35-14.93 13.1-4.1 35.05a43 43 0 0 0 32.89 23.7z" fill="#fff"/><path d="m33.34 50.19c-.18 4.77.89 8.16 2.44 10.6a22.44 22.44 0 0 1 -.44-5.6c.29-7.46.88-11.35.88-11.35a20.68 20.68 0 0 0 -2.72 3.16c-.06 1-.11 2-.16 3.19z" fill="#356cb6" opacity=".1"/><path d="m98.06 49.33c1.85 6.15 2.21 14.52-2.74 24.56l-.33.65c-13.47 26.28-51 26.29-64.54 0l-.33-.66c-.11-.22-.2-.44-.3-.65a40.72 40.72 0 0 0 2.3 5.65 43 43 0 0 0 32.88 23.71 42.5 42.5 0 0 0 32.31-23.7c6.47-13.11 3.88-23.4.75-29.56z" fill="#356cb6" opacity=".1"/><ellipse cx="65.42" cy="63.09" fill="#ff8475" rx="6.78" ry="4.49"/><circle cx="77.91" cy="54.46" fill="#00adfe" opacity=".2" r="7.03"/><circle cx="52.75" cy="54.46" fill="#00adfe" opacity=".2" r="7.03"/><g fill="none" stroke="#515570" stroke-linecap="round" stroke-linejoin="round"><circle cx="77.91" cy="54.46" r="7.03" stroke-width="2.33"/><circle cx="52.75" cy="54.46" r="7.03" stroke-width="2.33"/><path d="m55.45 54.6a2.71 2.71 0 1 1 -5.41 0" stroke-width="2"/><path d="m80.61 54.6a2.71 2.71 0 1 1 -5.41 0" stroke-width="2"/><path d="m70.89 53.7c-.78 1.34-3 2.3-5.55 2.3s-4.72-.94-5.52-2.26" stroke-width="2.33"/><path d="m84.09 51.11 7.23-3.68" stroke-width="2.33"/><path d="m46.26 51.11-7.23-3.68" stroke-width="2.33"/></g><path d="m37.25 41.2c-.71-5.26 2.32-10.52 2.32-10.52s-10.28 2.18-14.74 10.52c5.83-1.5 11.59-1.88 12.42 0z" fill="#393c54" opacity=".25"/><path d="m74.54 42.73s6.44-.41 10.83 3.39" style="fill:none;stroke:#515570;stroke-linecap:round;stroke-linejoin:round;stroke-width:2;opacity:.2"/><circle cx="21.23" cy="42.42" fill="#fff" r="6.68"/><path d="m72.55 71a1 1 0 0 1 1 1.06 8.55 8.55 0 0 1 -17 0 1 1 0 0 1 1-1.06z" fill="#393c54"/><path d="m65 79.66a8.51 8.51 0 0 0 6.29-2.79 9.06 9.06 0 0 0 -12.58 0 8.51 8.51 0 0 0 6.29 2.79z" fill="#f85565"/><circle cx="64" cy="114" fill="#fff" r="4"/><path d="m86.88 119.46a59.79 59.79 0 0 0 6.82-3.34l-4-11.12z" fill="#393c54" opacity=".25"/><path d="m41.12 119.46-2.82-14.46-4 11.12a59.79 59.79 0 0 0 6.82 3.34z" fill="#393c54" opacity=".25"/></svg>