<svg height="800" viewBox="0 0 128 128" width="800" xmlns="http://www.w3.org/2000/svg">
    <circle cx="64" cy="64" fill="#ff8475" r="60" />
    <circle cx="64" cy="64" fill="#f85565" opacity=".4" r="48" />
    <circle cx="91.32" cy="60.43" fill="#356cb6" r="7.93" />
    <path
        d="m28.14 96.5a21.9 21.9 0 0 0 -12.24 3.38 60 60 0 0 0 96.2 0 21.9 21.9 0 0 0 -12.24-3.38z"
        fill="#ffd8c9" />
    <path d="m64 83.75v13.75" fill="none" stroke="#fbc0aa" stroke-linecap="round"
        stroke-linejoin="round" stroke-width="26" />
    <circle cx="36.68" cy="60.43" fill="#356cb6" r="7.93" />
    <path
        d="m64 94.37a28.31 28.31 0 0 1 -28.32-28.32v-18.62a28.32 28.32 0 1 1 56.64 0v18.62a28.31 28.31 0 0 1 -28.32 28.32z"
        fill="#ffbb94" />
    <path
        d="m64 96.38a30.36 30.36 0 0 1 -30.32-30.33v-18.62a30.32 30.32 0 1 1 60.64 0v18.62a30.36 30.36 0 0 1 -30.32 30.33z"
        fill="#00adfe" />
    <path style="fill:none;stroke-linecap:round;stroke-linejoin:round;stroke:#393c54;stroke-width:2;stroke-dasharray:.1 2.92;opacity:.5"
        d="m43 29.61c3.4 1 10.08 2.39 21 2.39 12.63 0 19.59-1.87 22.34-2.84" />
    <path style="fill:none;stroke-linecap:round;stroke-linejoin:round;stroke:#393c54;stroke-width:2;stroke-dasharray:.1 2.94;opacity:.5"
        d="m48.87 24a59.58 59.58 0 0 0 15.13 1.59c9 0 14.25-1.27 16.54-2" />
    <path d="m74 18.82a30.09 30.09 0 0 0 -20 0v41.18h20z" fill="#393c54" />
    <path d="m64 17.11a29.3 29.3 0 0 0 -4 .3v40.59h8v-40.59a29.3 29.3 0 0 0 -4-.3z" fill="#fff"
        opacity=".3" />
    <path
        d="m95 56.75v-10.75a2 2 0 0 0 -2-2h-14.75a14.21 14.21 0 0 0 -11.06 5.28 5.3 5.3 0 0 0 -3.19-1.09 5.24 5.24 0 0 0 -3.19 1.1 14.19 14.19 0 0 0 -11.06-5.29h-14.75a2 2 0 0 0 -2 2v10.75a14.24 14.24 0 0 0 10.86 13.82 11.93 11.93 0 0 0 -.86 4.43v6a21.15 21.15 0 0 0 2.37 9 30.2 30.2 0 0 0 37.26 0 21.15 21.15 0 0 0 2.37-9v-6a11.93 11.93 0 0 0 -.86-4.43 14.24 14.24 0 0 0 10.86-13.82z"
        fill="#fff" />
    <path d="m54 94.68a30.26 30.26 0 0 0 20 0v-7.86h-20z" fill="#393c54" />
    <path
        d="m70 46h8.75a10.25 10.25 0 0 1 10.25 10.25v12.75a0 0 0 0 1 0 0h-8.75a10.25 10.25 0 0 1 -10.25-10.25v-12.75a0 0 0 0 1 0 0z"
        fill="#f85565" transform="matrix(0 1 -1 0 137 -22)" />
    <path
        d="m49.25 46h8.75a0 0 0 0 1 0 0v12.75a10.25 10.25 0 0 1 -10.25 10.25h-8.75a0 0 0 0 1 0 0v-12.75a10.25 10.25 0 0 1 10.25-10.25z"
        fill="#f85565" transform="matrix(0 1 -1 0 106 9)" />
    <path
        d="m78.25 52h8.75a0 0 0 0 1 0 0v4.75a6.25 6.25 0 0 1 -6.25 6.25h-8.75a0 0 0 0 1 0 0v-4.75a6.25 6.25 0 0 1 6.25-6.25z"
        fill="#ffbb94" />
    <path
        d="m41 52h8.75a6.25 6.25 0 0 1 6.25 6.25v4.75a0 0 0 0 1 0 0h-8.75a6.25 6.25 0 0 1 -6.25-6.25v-4.75a0 0 0 0 1 0 0z"
        fill="#ffbb94" transform="matrix(-1 0 0 -1 97 115)" />
    <circle cx="78.5" cy="58.28" fill="#393c54" r="3" />
    <circle cx="49.5" cy="58.28" fill="#393c54" r="3" />
    <rect fill="#f85565" height="34" rx="8" transform="matrix(0 1 -1 0 142 14)" width="22" x="53"
        y="61" />
    <rect fill="#ffbb94" height="14" rx="4" width="26" x="51" y="71" />
    <path
        d="m62.84 53-5.91 13.49a1.27 1.27 0 0 0 1.16 1.78h11.82a1.27 1.27 0 0 0 1.16-1.78l-5.91-13.49a1.27 1.27 0 0 0 -2.32 0z"
        fill="#393c54" />
    <path d="m63.27 68.12a2.52 2.52 0 1 0 -5 0s0 .1 0 .15h5a.77.77 0 0 0 0-.15z" fill="#f8dc25" />
    <path
        d="m67.25 65.6a2.52 2.52 0 0 0 -2.52 2.52.77.77 0 0 0 0 .15h5s0-.1 0-.15a2.52 2.52 0 0 0 -2.48-2.52z"
        fill="#f8dc25" />
    <path d="m69.5 81h-11a3.5 3.5 0 0 1 0-7h11a3.5 3.5 0 0 1 0 7z" fill="#393c54" />
    <path d="m68 77h-8a2 2 0 0 1 -2-2v-1h12v1a2 2 0 0 1 -2 2z" fill="#fff" />
    <path d="m70 81h-12v-1a2 2 0 0 1 2-2h8a2 2 0 0 1 2 2z" fill="#fff" />
    <path d="m88.32 96.5v.17a22 22 0 0 1 -10.4 18.33l-14.65 9h.73a59.72 59.72 0 0 0 31.5-9v-18.5z"
        fill="#00adfe" />
    <path
        d="m80 118.39-8.14 5.08a59.68 59.68 0 0 0 25.6-9.7v-17.27h-5.14v.19a25.89 25.89 0 0 1 -12.32 21.7z"
        fill="#393c54" />
</svg>