<svg height="800" viewBox="0 0 128 128" width="800" xmlns="http://www.w3.org/2000/svg"><circle cx="64" cy="64" fill="#515570" r="60"/><circle cx="64" cy="64" fill="#393c54" opacity=".5" r="48"/><path d="m106 104.41c-1.9-4.41-6.95-7.41-12.61-7.41h-58.78c-5.61 0-10.71 3-12.61 7.41l-.48 2a60 60 0 0 0 85 0z" fill="#8f5653"/><circle cx="92.56" cy="60.67" fill="#fba875" r="8.29"/><circle cx="35.44" cy="60.67" fill="#fba875" r="8.29"/><path d="m64 96.15a29.61 29.61 0 0 1 -29.6-29.61v-19.46a29.6 29.6 0 1 1 59.2 0v19.46a29.61 29.61 0 0 1 -29.6 29.61z" fill="#ffbb94"/><path d="m34.4 53.54v-6.46a29.6 29.6 0 1 1 59.2 0v6.46z" fill="#8f5653" opacity=".7"/><path d="m44.56 97c2.1 8.36 10 23.59 19.44 23.59s17.34-15.23 19.44-23.59z" fill="#393c54"/><path d="m64 99.9c-12.79 0-26.38-12.24-26.38-27.34l-1-24.74a27.34 27.34 0 0 1 54.68 0l-1 24.74c.08 15.1-13.02 27.34-26.3 27.34z" fill="#fff"/><path d="m76 23.25a27.28 27.28 0 0 1 9.34 20.57l-1 24.74c0 15.1-13.1 27.34-26.38 27.34a23.62 23.62 0 0 1 -10.44-2.59 25.77 25.77 0 0 0 16.48 6.59c13.28 0 26.38-12.24 26.38-27.34l1-24.74a27.34 27.34 0 0 0 -15.38-24.57z" fill="#393c54" opacity=".2"/><path d="m60 17h8a0 0 0 0 1 0 0v7a1 1 0 0 1 -1 1h-6a1 1 0 0 1 -1-1v-7a0 0 0 0 1 0 0z" fill="#393c54"/><path d="m87 45h8a0 0 0 0 1 0 0v5a1 1 0 0 1 -1 1h-6a1 1 0 0 1 -1-1v-5a0 0 0 0 1 0 0z" fill="#393c54" transform="matrix(0 1 -1 0 139 -43)"/><path d="m34 45h6a1 1 0 0 1 1 1v5a0 0 0 0 1 0 0h-8a0 0 0 0 1 0 0v-5a1 1 0 0 1 1-1z" fill="#393c54" transform="matrix(0 1 -1 0 85 11)"/><circle cx="75.5" cy="59.5" fill="#393c54" r="5.5"/><circle cx="52.5" cy="59.5" fill="#393c54" r="5.5"/><path d="m52 50 12 5 11-5z" fill="#f85565"/><path d="m61.68 66.51-1.68 4.77a2 2 0 0 0 1.93 2.72h4.19a2 2 0 0 0 1.93-2.72l-1.67-4.77a2.49 2.49 0 0 0 -4.7 0z" fill="#356cb6" opacity=".3"/><path d="m57 67-10.5 9h6.5z" fill="#f85565"/><path d="m70.5 67 10.5 9h-6.5z" fill="#f85565"/><g fill="#393c54"><circle cx="68" cy="82" r="1.5"/><circle cx="75" cy="82" r="1.5"/><circle cx="81" cy="84" r="1.5"/><circle cx="68" cy="88" r="1.5"/><circle cx="68" cy="94" r="1.5"/><circle cx="60" cy="82" r="1.5"/><circle cx="53" cy="82" r="1.5"/><circle cx="47" cy="84" r="1.5"/><circle cx="60" cy="88" r="1.5"/><circle cx="60" cy="94" r="1.5"/><circle cx="53.5" cy="30.5" r="1.5"/><circle cx="53.5" cy="36.5" r="1.5"/><circle cx="53.5" cy="42.5" r="1.5"/><circle cx="45.5" cy="36.5" r="1.5"/><circle cx="45.5" cy="42.5" r="1.5"/><circle cx="60.5" cy="44.5" r="1.5"/><circle cx="74.5" cy="30.5" r="1.5"/><circle cx="74.5" cy="36.5" r="1.5"/><circle cx="74.5" cy="42.5" r="1.5"/><circle cx="82.5" cy="36.5" r="1.5"/><circle cx="82.5" cy="42.5" r="1.5"/><circle cx="67.5" cy="44.5" r="1.5"/></g></svg>