<svg height="800" viewBox="0 0 128 128" width="800" xmlns="http://www.w3.org/2000/svg"><circle cx="64" cy="64" fill="#a7aece" r="60"/><circle cx="64" cy="64" fill="#515570" opacity=".2" r="48"/><path d="m99.72 51.16a4.33 4.33 0 0 0 -1.15-8.5 4.33 4.33 0 0 0 -3.14-8 4.33 4.33 0 0 0 -5-7 4.33 4.33 0 0 0 -6.43-5.6 4.33 4.33 0 0 0 -7.64-3.91 4.33 4.33 0 0 0 -8.35-2 4.33 4.33 0 0 0 -8.58.13l-.72.09a4.34 4.34 0 0 0 -8.29 2.25 4.34 4.34 0 0 0 -7.48 4.21 4.33 4.33 0 0 0 -6.26 5.86 4.33 4.33 0 0 0 -4.68 7.22 4.33 4.33 0 0 0 -2.86 8.09 4.33 4.33 0 0 0 -.82 8.54 4.33 4.33 0 0 0 1.24 8.46 4.33 4.33 0 0 0 3.23 8 4.33 4.33 0 0 0 5 7 4.33 4.33 0 0 0 6.55 5.54 4.33 4.33 0 0 0 7.68 3.83 4.33 4.33 0 0 0 8.37 1.88 4.33 4.33 0 0 0 8.61-.25 4.33 4.33 0 0 0 8.29-2.21 4.33 4.33 0 0 0 7.52-4.12 4.34 4.34 0 0 0 6.33-5.8 4.33 4.33 0 0 0 4.76-7.14 4.33 4.33 0 0 0 2.91-8.07 4.33 4.33 0 0 0 .91-8.53z" fill="#393c54"/><circle cx="89.84" cy="70.87" fill="#8f5653" r="7.5"/><path d="m64 124a59.75 59.75 0 0 0 37.53-13.2l-2-5.53c-1.53-3.77-5.85-6.27-10.64-6.27h-49.78c-4.79 0-9.07 2.51-10.68 6.28l-2 5.53a59.75 59.75 0 0 0 37.57 13.19z" fill="#ff8475"/><path d="m74.26 100.86c0 5.66-4.6 9.25-10.26 9.25s-10.26-3.59-10.26-9.25 4.6-3.42 10.26-3.42 10.26-2.25 10.26 3.42z" fill="#fff"/><path d="m64 88.88v10" fill="none" stroke="#8f5653" stroke-linecap="round" stroke-miterlimit="10" stroke-width="16"/><circle cx="38.16" cy="70.87" fill="#8f5653" r="7.5"/><path d="m64 98a26.78 26.78 0 0 1 -26.79-26.81v-9.62a26.79 26.79 0 0 1 53.58 0v9.62a26.78 26.78 0 0 1 -26.79 26.81z" fill="#b56b63"/><path d="m63.15 30.12c-15.23.45-27.15 13.35-27.15 28.58a2 2 0 0 0 2 2 2.72 2.72 0 0 0 2.6-2.1 9.28 9.28 0 0 1 9.13-7.6h28.54a9.28 9.28 0 0 1 9.13 7.6 2.72 2.72 0 0 0 2.6 2.06 2 2 0 0 0 2-2v-.6a28 28 0 0 0 -28.85-27.94z" fill="#393c54"/><path d="m74.12 63.84 9.09-.24" style="fill:none;stroke-linecap:round;stroke:#515570;stroke-linejoin:round;stroke-width:1.89;opacity:.4"/><path d="m53.88 63.84-9.09-.24" style="fill:none;stroke-linecap:round;stroke:#515570;stroke-linejoin:round;stroke-width:1.89;opacity:.4"/><path d="m71.55 84a1 1 0 0 1 .94 1.07 8.56 8.56 0 0 1 -17 0 1 1 0 0 1 .96-1.07z" fill="#393c54"/><path d="m59 90.91a8.52 8.52 0 0 0 10.08 0c-1.08-1.75-2.91-1.91-5.08-1.91s-4 .16-5 1.91z" fill="#f85565"/><path d="m69 86h-10a1.84 1.84 0 0 1 -1.73-2h13.5a1.84 1.84 0 0 1 -1.77 2z" fill="#fff"/><path d="m60 84h2v3h-2z" fill="#393c54"/><path d="m63.39 72.24-3.25 7.44a.69.69 0 0 0 .64 1h6.49a.69.69 0 0 0 .64-1l-3.25-7.44a.7.7 0 0 0 -1.27 0z" fill="#8f5653"/><g fill="none" stroke="#515570" stroke-linecap="round" stroke-miterlimit="10" stroke-width="2"><path d="m54 72a3 3 0 0 0 -6 0"/><path d="m80 72a3 3 0 0 0 -6 0"/></g></svg>