<svg height="800" viewBox="0 0 128 128" width="800" xmlns="http://www.w3.org/2000/svg"><circle cx="64" cy="64" fill="#ff8475" r="60"/><path d="m113.75 78.27c0-5.12-22.28-3.27-49.75-3.27s-49.75-1.85-49.75 3.27 22.28 19.21 49.75 19.21 49.75-14.09 49.75-19.21z" fill="#356cb6"/><path d="m64 19a44 44 0 0 1 44 44v44a0 0 0 0 1 0 0h-88a0 0 0 0 1 0 0v-44a44 44 0 0 1 44-44z" fill="#fff" opacity=".3"/><path d="m64 27.18v-9.18" fill="none" stroke="#4bc190" stroke-linecap="round" stroke-linejoin="round" stroke-width="6"/><path d="m64 27.18v-9.18" style="opacity:.3;fill:none;stroke-linecap:round;stroke-width:6;stroke:#356cb6;stroke-miterlimit:10"/><circle cx="64" cy="17" fill="#f8dc25" r="4.75"/><path d="m64 115a26 26 0 0 1 -26-26v-37a26 26 0 0 1 52 0v37a26 26 0 0 1 -26 26z" fill="#4bc190"/><path d="m64 114a18.59 18.59 0 0 1 -18.56-18.56v-20.88c0-10.23 8.33-13.56 18.56-13.56s18.56 3.33 18.56 13.56v20.88a18.59 18.59 0 0 1 -18.56 18.56z" fill="#fff" opacity=".3"/><path d="m72.1 88.31a53.34 53.34 0 0 1 -16.25 0 3.75 3.75 0 0 1 -3.09-2.93 68.23 68.23 0 0 1 -1.12-16.15 3.83 3.83 0 0 1 2.73-3.54 34.22 34.22 0 0 1 19.24 0 3.82 3.82 0 0 1 2.74 3.56 72.18 72.18 0 0 1 -1.16 16.09 3.72 3.72 0 0 1 -3.09 2.97z" fill="#393c54"/><path d="m113.19 76.76s-7 15.87-49.19 15.87-49.19-15.87-49.19-15.87l-9 2.07a60 60 0 0 0 116.3 0z" fill="#fff"/><path d="m113.19 76.76s-7 15.87-49.19 15.87-49.19-15.87-49.19-15.87l-9 2.07a60 60 0 0 0 116.3 0z" fill="#356cb6" opacity=".1"/><path d="m64 100.19c-42.48 0-54.88-15.54-57.68-19.66a60 60 0 0 0 115.36 0c-2.8 4.12-15.2 19.66-57.68 19.66z" fill="#356cb6" opacity=".1"/><g fill="none" stroke="#393c54" stroke-linecap="round" stroke-linejoin="round" stroke-width="2"><path d="m64 36.42v5.41"/><path d="m69 37.42-2 5.41"/><path d="m73 40.42-3 3.41"/><path d="m59 37.42 2 5.41"/><path d="m55 40.42 3 3.41"/></g><circle cx="64" cy="49.67" fill="#fff" r="9"/><circle cx="64" cy="49.67" fill="#393c54" r="4.25"/><path d="m73 49.67a9 9 0 0 0 -18 0 21.23 21.23 0 0 1 18 0z" fill="#4bc190"/><path d="m73 49.67a9 9 0 0 0 -18 0 21.23 21.23 0 0 1 18 0z" fill="#356cb6" opacity=".3"/><path d="m75.19 85.34c.32-1.71.56-3.45.75-5.21-2.26-3.41-6.76-4.89-11.95-4.89s-9.77 1.51-12 5c.2 1.75.45 3.47.79 5.16a3.75 3.75 0 0 0 3.09 2.93 53.34 53.34 0 0 0 16.25 0 3.72 3.72 0 0 0 3.07-2.99z" fill="#f85565"/><path d="m64 75.24c-.34 0-.66 0-1 0v5.76a1 1 0 0 0 2 0v-5.73c-.34-.01-.67-.03-1-.03z" fill="#515570" opacity=".3"/><path d="m71.59 85.22a54.36 54.36 0 0 1 -15.18 0 1.23 1.23 0 0 0 -1.41 1.21v1.63a4 4 0 0 0 .85.25 53.34 53.34 0 0 0 16.25 0 3.36 3.36 0 0 0 .9-.31v-1.57a1.23 1.23 0 0 0 -1.41-1.21z" fill="#fff"/><path d="m73.61 65.69a34.22 34.22 0 0 0 -19.24 0l-.37.14v1a2 2 0 0 0 2.2 2 86.47 86.47 0 0 1 15.6 0 2 2 0 0 0 2.2-2v-1a2.62 2.62 0 0 0 -.39-.14z" fill="#fff"/><path d="m42.5 39.5c-11.72 11.72-14.5 24.18-14.5 16.5s3.93-15.36 9.79-21.21 13.51-9.79 21.21-9.79-4.78 2.78-16.5 14.5z" fill="#fff" opacity=".3"/><path d="m97.49 51.33.89 2.79.44 1.4 1.33 4.19a2.93 2.93 0 1 0 3.67 1.91l-2.21-7 4.19-1.33 1.33 4.19a2.93 2.93 0 1 0 3.68 1.9l-2.22-7-1.27-4.21z" fill="#515570"/></svg>