<svg height="800" viewBox="0 0 128 128" width="800" xmlns="http://www.w3.org/2000/svg">
    <circle cx="64" cy="64" fill="#515570" r="60" />
    <circle cx="64" cy="64" fill="#393c54" opacity=".5" r="48" />
    <path
        d="m13 101.61a65.28 65.28 0 0 0 102 0 17.87 17.87 0 0 0 -14.19-8.9c0-.2 0-.4 0-.61a15.34 15.34 0 0 0 -1.89-7.39 18.84 18.84 0 0 0 -4.75-35.18 13 13 0 0 0 -17.65-16.75 13 13 0 0 0 -25 0 13 13 0 0 0 -17.71 16.75 18.84 18.84 0 0 0 -4.75 35.18 15.34 15.34 0 0 0 -1.89 7.39v.61a17.87 17.87 0 0 0 -14.17 8.9z"
        fill="#fff" />
    <path
        d="m100.81 92.71c0-.2 0-.4 0-.61a15.34 15.34 0 0 0 -1.89-7.39 18.84 18.84 0 0 0 -4.75-35.18 13 13 0 0 0 -17.65-16.75 13 13 0 0 0 -25 0 13 13 0 0 0 -17.71 16.75 18.84 18.84 0 0 0 -4.75 35.18 15.34 15.34 0 0 0 -1.89 7.39v.61a17.49 17.49 0 0 0 -12.09 6 60 60 0 0 0 97.8 0 17.49 17.49 0 0 0 -12.07-6z"
        fill="#fff" />
    <path
        d="m25 60.92a3.26 3.26 0 0 0 3.25 3.25h3a23.91 23.91 0 0 0 16.39-6.51h-19.37a3.26 3.26 0 0 0 -3.27 3.26z"
        fill="#00adfe" />
    <path
        d="m31.32 64.17a23.43 23.43 0 0 0 13.56-4.34h-13.88a3.81 3.81 0 0 0 -3.24 1.71 2.75 2.75 0 0 0 -.34 2.46 3.2 3.2 0 0 0 1 .17z"
        fill="#356cb6" />
    <path
        d="m103 60.92a3.26 3.26 0 0 1 -3.25 3.25h-3a23.91 23.91 0 0 1 -16.39-6.51h19.37a3.26 3.26 0 0 1 3.27 3.26z"
        fill="#00adfe" />
    <path
        d="m96.68 64.17a23.43 23.43 0 0 1 -13.56-4.34h13.93a3.81 3.81 0 0 1 3.24 1.71 2.75 2.75 0 0 1 .29 2.46 3.2 3.2 0 0 1 -1 .17z"
        fill="#356cb6" />
    <path
        d="m84.55 67.21c0 11.35-9.2 33.45-20.55 33.45s-20.55-22.1-20.55-33.45a20.55 20.55 0 0 1 41.1 0z"
        fill="#00adfe" />
    <path
        d="m77.15 44.22a7.74 7.74 0 0 0 -5.08 1.9 9.37 9.37 0 0 0 -16.14 0 7.77 7.77 0 1 0 .89 10.88 9.39 9.39 0 0 0 14.36 0 7.77 7.77 0 1 0 6-12.74z"
        fill="#fff" />
    <path d="m64 89.49v5.79" fill="none" stroke="#393c54" stroke-linecap="round"
        stroke-linejoin="round" stroke-width="2" />
    <path
        d="m71.82 48.64a12.3 12.3 0 0 1 -15.48 1.29 12.29 12.29 0 0 1 -11 7.51 7.76 7.76 0 0 0 11.48-.44 9.39 9.39 0 0 0 14.36 0 7.75 7.75 0 0 0 10.45 1.37 12.29 12.29 0 0 1 -9.81-9.73z"
        fill="#356cb6" opacity=".1" />
    <path
        d="m54 102.08a12.27 12.27 0 0 1 -15-3.86 12.31 12.31 0 0 1 -12.88 3.48 7.76 7.76 0 0 0 11 3.32 9.38 9.38 0 0 0 13.56 4.71 7.75 7.75 0 0 0 9.43 4.73 12.32 12.32 0 0 1 -6.11-12.38z"
        fill="#356cb6" opacity=".1" />
    <path d="m69.55 84.38c0 3.07-2.48 6.78-5.55 6.78s-5.55-3.71-5.55-6.78c0-1.8 11.1-2.03 11.1 0z"
        fill="#393c54" />
    <path
        d="m60.74 94.56h6.51a0 0 0 0 1 0 0v8.68a3.26 3.26 0 0 1 -3.25 3.26 3.26 3.26 0 0 1 -3.26-3.26v-8.68a0 0 0 0 1 0 0z"
        fill="#f85565" />
    <path d="m58.45 93.11q5.55 4.71 11.1 0" fill="none" stroke="#393c54" stroke-linecap="round"
        stroke-linejoin="round" stroke-width="2" />
    <circle cx="74.85" cy="68.51" fill="#fff" r="5.61" />
    <circle cx="74.85" cy="68.51" fill="#393c54" r="3.15" />
    <path d="m80.46 68.51a5.61 5.61 0 1 1 -11.21 0" fill="#356cb6" />
    <circle cx="53.15" cy="68.51" fill="#fff" r="5.61" />
    <circle cx="53.15" cy="68.51" fill="#393c54" r="3.15" />
    <g fill="#356cb6">
        <path
            d="m29 84.65a15.75 15.75 0 0 0 13.2-10.65 15.73 15.73 0 0 1 -22.33.1 18.88 18.88 0 0 0 9.13 10.55z"
            opacity=".1" />
        <path
            d="m99.17 84.65a15.76 15.76 0 0 1 -13.24-10.65 15.73 15.73 0 0 0 22.33.1 18.84 18.84 0 0 1 -9.09 10.55z"
            opacity=".1" />
        <path
            d="m91.08 104.63a12.29 12.29 0 0 1 -6.7-2c0 .4.06.81.06 1.22a12.4 12.4 0 0 1 -11 12.31 10.09 10.09 0 0 0 14.81-5.06 10.1 10.1 0 0 0 13.59-9.51 10 10 0 0 0 -.36-2.65 12.38 12.38 0 0 1 -10.4 5.69z"
            opacity=".1" />
    </g>
</svg>