<!DOCTYPE svg PUBLIC "-//W3C//DTD SVG 1.1//EN" "http://www.w3.org/Graphics/SVG/1.1/DTD/svg11.dtd">

<!-- Uploaded to: SVG Repo, www.svgrepo.com, Transformed by: SVG Repo Mixer Tools -->
<svg fill="none" height="800px" viewBox="0 0 24 24" width="800px"
    xmlns="http://www.w3.org/2000/svg">

    <g id="SVGRepo_bgCarrier" stroke-width="0" />

    <g id="SVGRepo_tracerCarrier" stroke-linecap="round" stroke-linejoin="round" />

    <g id="SVGRepo_iconCarrier">
        <path
            d="M3 12.5L3.84375 9.5M3.84375 9.5L5 5.38889C5 5.38889 5.25 4.5 6 4.5C6.75 4.5 7 5.38889 7 5.38889L8.15625 9.5M3.84375 9.5H8.15625M9 12.5L8.15625 9.5M13 16.8333L15.4615 19.5L21 13.5M12 8.5H15C16.1046 8.5 17 7.60457 17 6.5C17 5.39543 16.1046 4.5 15 4.5H12V8.5ZM12 8.5H16C17.1046 8.5 18 9.39543 18 10.5C18 11.6046 17.1046 12.5 16 12.5H12V8.5Z"
            stroke="#000000" stroke-linecap="round" stroke-linejoin="round"
            stroke-width="0.9600000000000002" />
    </g>

</svg>