<!DOCTYPE svg PUBLIC "-//W3C//DTD SVG 1.1//EN" "http://www.w3.org/Graphics/SVG/1.1/DTD/svg11.dtd">

<!-- Uploaded to: SVG Repo, www.svgrepo.com, Transformed by: SVG Repo Mixer Tools -->
<svg fill="#000000" height="800px" stroke="#000000" stroke-width="0.01024"
    viewBox="0 0 1024 1024" width="800px" xmlns="http://www.w3.org/2000/svg">

    <g id="SVGRepo_bgCarrier" stroke-width="0" />

    <g id="SVGRepo_tracerCarrier" stroke-linecap="round" stroke-linejoin="round" />

    <g id="SVGRepo_iconCarrier">

        <path d="M771.776 794.88A384 384 0 0 1 128 512h64a320 320 0 0 0 555.712 216.448H654.72a32 32 0 1 1 0-64h149.056a32 32 0 0 1 32 32v148.928a32 32 0 1 1-64 0v-50.56zM276.288 295.616h92.992a32 32 0 0 1 0 64H220.16a32 32 0 0 1-32-32V178.56a32 32 0 0 1 64 0v50.56A384 384 0 0 1 896.128 512h-64a320 320 0 0 0-555.776-216.384z"
            fill="#000000" />

    </g>

</svg>